<svg width="16" height="16" viewBox="0 0 16 16" fill="none" xmlns="http://www.w3.org/2000/svg">    <path d="M4.02532 3.65202C4.39599 5.79135 5.69866 7.25668 7.99999 8.00002C10.3013 7.25668 11.604 5.79135 11.9747 3.65202C11.9966 3.50905 11.9874 3.36301 11.9474 3.22398C11.9075 3.08495 11.8379 2.95624 11.7434 2.84672C11.6489 2.73721 11.5318 2.64949 11.4001 2.58964C11.2684 2.52978 11.1253 2.4992 10.9807 2.50002H5.01932C4.87468 2.4992 4.73158 2.52978 4.59989 2.58964C4.46821 2.64949 4.35108 2.73721 4.25658 2.84672C4.16209 2.95624 4.09248 3.08495 4.05255 3.22398C4.01262 3.36301 4.00334 3.50905 4.02532 3.65202Z" stroke="#6A6AF4" stroke-linecap="round" stroke-linejoin="round"/>    <path d="M2.5 0.5H13.5" stroke="#6A6AF4" stroke-linecap="round" stroke-linejoin="round"/>    <path d="M5.01934 13.5C4.87476 13.5008 4.73173 13.4702 4.6001 13.4104C4.46847 13.3506 4.35138 13.2629 4.25689 13.1535C4.16241 13.0441 4.09278 12.9154 4.0528 12.7765C4.01283 12.6375 4.00346 12.4916 4.02534 12.3487C4.39601 10.2093 5.69868 8.744 8.00001 8C10.3013 8.744 11.604 10.2093 11.9747 12.3487C11.9966 12.4916 11.9872 12.6375 11.9472 12.7765C11.9072 12.9154 11.8376 13.0441 11.7431 13.1535C11.6486 13.2629 11.5316 13.3506 11.3999 13.4104C11.2683 13.4702 11.1253 13.5008 10.9807 13.5H5.01934Z" stroke="#6A6AF4" stroke-linecap="round" stroke-linejoin="round"/>    <path d="M2.5 15.5H13.5" stroke="#6A6AF4" stroke-linecap="round" stroke-linejoin="round"/></svg>