<svg xmlns="http://www.w3.org/2000/svg" width="24" height="24" fill="none">
    <path fill="#000091"
          d="M17.578 5H8.937a1.43 1.43 0 0 0-1.005.411c-.267.264-.417.62-.417.993v1.25H6.421c-.377.001-.738.15-1.004.412C5.15 8.33 5 8.686 5 9.06v8.537c0 .372.15.73.417.992.266.264.627.412 1.004.412h8.641a1.43 1.43 0 0 0 1.005-.411c.267-.264.417-.62.417-.993v-1.25h1.095c.377-.001.738-.15 1.004-.412.267-.263.417-.62.417-.993V6.404c0-.372-.15-.73-.417-.993A1.431 1.431 0 0 0 17.578 5Zm-1.98 12.596c0 .14-.057.275-.157.374a.54.54 0 0 1-.379.155h-8.64a.54.54 0 0 1-.38-.155.526.526 0 0 1-.156-.374V9.06c0-.14.056-.275.157-.374a.54.54 0 0 1 .378-.155h8.641a.54.54 0 0 1 .379.155c.1.099.157.233.157.374v8.537Zm2.515-2.655c0 .14-.056.275-.157.374a.54.54 0 0 1-.378.155h-1.094V9.06c0-.373-.15-.73-.417-.993a1.431 1.431 0 0 0-1.004-.411h-6.66V6.404c0-.14.056-.275.156-.374a.54.54 0 0 1 .379-.155h8.64a.53.53 0 0 1 .535.529v8.537Z"/>
</svg>