<svg width="16" height="16" viewBox="0 0 16 16" fill="none" xmlns="http://www.w3.org/2000/svg">    <g clip-path="url(#clip0_1505_7512)">        <path d="M4 8.81534L5.63333 11.1333C5.69529 11.2259 5.77845 11.3023 5.8759 11.3562C5.97335 11.4101 6.08226 11.44 6.19358 11.4433C6.3049 11.4466 6.4154 11.4233 6.5159 11.3753C6.61639 11.3273 6.70396 11.256 6.77133 11.1673L12 4.552" stroke="#6A6AF4" stroke-linecap="round" stroke-linejoin="round"/>        <path d="M8 15.4994C12.1421 15.4994 15.5 12.1415 15.5 7.99939C15.5 3.85725 12.1421 0.49939 8 0.49939C3.85786 0.49939 0.5 3.85725 0.5 7.99939C0.5 12.1415 3.85786 15.4994 8 15.4994Z" stroke="#6A6AF4" stroke-linecap="round" stroke-linejoin="round"/>    </g>    <defs>        <clipPath id="clip0_1505_7512">            <rect width="16" height="16" fill="white"/>        </clipPath>    </defs></svg>