<svg version="1.1" id="Calque_1" xmlns="http://www.w3.org/2000/svg"
     width="20px" height="20px" viewBox="0 0 20 20" enable-background="new 0 0 20 20">
    <path fill="#000091" d="M15.959,1.37c0.476,0,0.862,0.385,0.862,0.863v3.241L15.096,7.2V3.095H3.014v13.809h12.082v-2.38
	l1.726-1.726v4.969c0,0.478-0.387,0.863-0.863,0.863H2.15c-0.477,0-0.863-0.386-0.863-0.863V2.233c0-0.479,0.387-0.863,0.863-0.863
	H15.959z M17.492,7.245l1.221,1.221l-6.712,6.712l-1.223-0.002l0.002-1.219L17.492,7.245z M9.918,9.999v1.727H5.603V9.999H9.918z
	 M12.507,6.548v1.726H5.603V6.548H12.507z"/>
</svg>
