<svg width="24" height="24" viewBox="0 0 24 24" fill="none" xmlns="http://www.w3.org/2000/svg">
    <circle cx="12" cy="12" r="12" fill="#000091"/>
    <path fill-rule="evenodd" clip-rule="evenodd" d="M16.8851 7.71098C17.4308 8.14609 17.5413 8.96908 17.1321 9.54917L12.3471 16.3313C12.1346 16.6314 11.864 16.8797 11.5536 17.0593C11.2433 17.2389 10.9003 17.3458 10.5478 17.3726C10.1953 17.3994 9.84151 17.3456 9.51023 17.2149C9.17895 17.0841 8.87786 16.8794 8.62726 16.6145L8.62474 16.6118L6.1547 13.9859C5.67239 13.4731 5.67239 12.6418 6.1547 12.129C6.637 11.6163 7.41897 11.6163 7.90128 12.129L10.3688 14.7523L10.3714 14.7533L10.3737 14.7519L15.1561 7.9735C15.5654 7.39341 16.3395 7.27587 16.8851 7.71098Z" fill="white"/>
</svg>
