<svg width="16" height="16" viewBox="0 0 16 16" fill="none" xmlns="http://www.w3.org/2000/svg">
<path d="M11.3346 13.3333H4.0013C3.26492 13.3333 2.66797 12.7363 2.66797 12V4.66663C2.66797 3.93025 3.26492 3.33329 4.0013 3.33329H6.0013C6.36949 3.33329 6.66797 3.63177 6.66797 3.99996C6.66797 4.36815 6.36949 4.66663 6.0013 4.66663H4.0013V12H11.3346V9.99996C11.3346 9.63177 11.6331 9.33329 12.0013 9.33329C12.3695 9.33329 12.668 9.63177 12.668 9.99996V12C12.668 12.7363 12.071 13.3333 11.3346 13.3333ZM8.27279 8.66707C8.01245 8.92708 7.59059 8.92664 7.33079 8.66611C7.07139 8.40598 7.07169 7.98491 7.33145 7.72514L11.0566 3.99996H9.33464C8.96645 3.99996 8.66797 3.70148 8.66797 3.33329C8.66797 2.9651 8.96645 2.66663 9.33464 2.66663H13.3346V6.66663C13.3346 7.03482 13.0362 7.33329 12.668 7.33329C12.2998 7.33329 12.0013 7.03482 12.0013 6.66663V4.94329L8.27279 8.66707Z" fill="#4E5C7F"/>
</svg>
