<svg width="15" height="16" viewBox="0 0 15 16" fill="none" xmlns="http://www.w3.org/2000/svg">
<path fill-rule="evenodd" clip-rule="evenodd" d="M6.15275 6.48237C6.27778 6.29747 6.51023 6.21784 6.72238 6.28724C7.90312 6.67351 9.00727 7.32728 9.80129 8.33008C10.5999 9.33863 11.056 10.6645 10.9946 12.3358C10.9799 13.3029 10.5892 14.2264 9.90513 14.9105C9.21964 15.596 8.29369 15.9869 7.32434 16L7.31766 16.0001V16.0001C6.8347 16.0002 6.35645 15.9051 5.91022 15.7204C5.464 15.5356 5.05854 15.2648 4.717 14.9233C4.37545 14.5819 4.10453 14.1765 3.91968 13.7303C3.7369 13.2891 3.64183 12.8165 3.63973 12.339C3.60229 11.7151 3.74227 11.0933 4.04362 10.5455C4.3476 9.99289 4.80311 9.53866 5.35654 9.23624C5.50018 9.15776 5.67315 9.15455 5.8196 9.22766C5.96605 9.30077 6.06745 9.44093 6.09105 9.60291C6.11814 9.78889 6.21487 9.95763 6.36166 10.075C6.44034 10.1379 6.53026 10.1836 6.62562 10.2101C6.82981 9.74917 6.9146 9.24232 6.86963 8.73682C6.81551 8.12859 6.57614 7.5516 6.1838 7.08369C6.04038 6.91265 6.02771 6.66727 6.15275 6.48237ZM7.70101 7.81621C7.7849 8.08548 7.8404 8.36429 7.86566 8.6482C7.9379 9.46021 7.75934 10.2748 7.35406 10.9822C7.27178 11.1258 7.12377 11.2194 6.95876 11.2321C6.51861 11.2661 6.08197 11.1317 5.73718 10.856C5.5925 10.7403 5.46852 10.6034 5.36864 10.4511C5.19028 10.6174 5.03847 10.8117 4.91977 11.0274C4.70763 11.4131 4.61008 11.8513 4.63861 12.2905C4.63931 12.3013 4.63966 12.3121 4.63966 12.3229C4.63966 12.6745 4.70893 13.0227 4.84351 13.3476C4.97808 13.6724 5.17534 13.9676 5.424 14.2162C5.67266 14.4648 5.96787 14.662 6.29275 14.7965C6.6166 14.9306 6.96361 14.9998 7.3141 15.0001C8.02176 14.9897 8.69755 14.7039 9.19805 14.2034C9.69934 13.7021 9.98522 13.025 9.99483 12.3161L9.99514 12.3042C10.0498 10.8443 9.65477 9.75587 9.01733 8.95083C8.65652 8.49516 8.20895 8.11899 7.70101 7.81621Z" fill="#E25100"/>
<path fill-rule="evenodd" clip-rule="evenodd" d="M11.8938 0.212152C11.9926 0.352497 12.0125 0.533718 11.9465 0.692172C11.2967 2.25287 11.1359 3.96603 11.473 5.60772L12.6092 4.18749C12.704 4.06889 12.8477 3.99985 12.9996 3.99985H13.2442C13.4078 3.99985 13.5611 4.07989 13.6546 4.21415C14.4679 5.38239 14.932 6.75799 14.9926 8.18021C15.0532 9.60243 14.7078 11.0125 13.9967 12.2457C13.2856 13.4789 12.2383 14.4842 10.977 15.1443C9.71577 15.8043 8.29272 16.0917 6.87417 15.973C5.45562 15.8543 4.10016 15.3343 2.96618 14.4737C1.8322 13.6132 0.966536 12.4478 0.47035 11.1135C-0.0258359 9.77931 -0.132051 8.33142 0.164116 6.93906C0.460283 5.5467 1.1466 4.26739 2.14287 3.25061C2.3358 3.0537 2.65172 3.05012 2.84908 3.24259L3.98388 4.34934C4.73198 3.1763 5.73192 2.18086 6.91411 1.43713C8.28132 0.577023 9.84649 0.0823969 11.4597 0.000642667C11.6311 -0.00804477 11.795 0.0718057 11.8938 0.212152ZM10.7429 1.0735C9.57424 1.24068 8.4507 1.65185 7.44659 2.28354C6.22432 3.05247 5.21997 4.12238 4.52977 5.39078C4.45493 5.5283 4.32001 5.62282 4.16521 5.64619C4.0104 5.66955 3.85359 5.61905 3.74151 5.50974L2.52173 4.32012C1.83899 5.13333 1.36416 6.10359 1.1422 7.14711C0.885517 8.35382 0.977571 9.60866 1.4076 10.765C1.83763 11.9213 2.58787 12.9314 3.57065 13.6772C4.55343 14.4229 5.72817 14.8736 6.95758 14.9765C8.18699 15.0794 9.42029 14.8303 10.5134 14.2583C11.6065 13.6863 12.5142 12.815 13.1304 11.7462C13.7467 10.6774 14.0461 9.45536 13.9936 8.22277C13.9478 7.14902 13.6367 6.10593 13.0913 5.18559L11.6354 7.00541C11.5207 7.14877 11.3367 7.21774 11.1561 7.18509C10.9754 7.15243 10.8272 7.0234 10.7699 6.84897C10.1527 4.96799 10.1474 2.94712 10.7429 1.0735Z" fill="#E25100"/>
</svg>
