<svg width="17" height="16" viewBox="0 0 17 16" fill="none" xmlns="http://www.w3.org/2000/svg">
    <path fill-rule="evenodd" clip-rule="evenodd"
          d="M8.50084 1.58544C10.3605 -0.0841826 13.2342 -0.0287659 15.0258 1.76594C16.8165 3.56144 16.8783 6.42094 15.2126 8.28611L8.49925 15.0089L1.7875 8.28611C0.121837 6.42094 0.184379 3.55669 1.97434 1.76594C3.76746 -0.0263909 6.63567 -0.0865577 8.50084 1.58544ZM13.9048 2.88457C12.7173 1.69548 10.8014 1.64719 9.5585 2.76344L8.50163 3.71186L7.44396 2.76423C6.19709 1.6464 4.28521 1.69548 3.09455 2.88615C1.91496 4.06573 1.85559 5.95386 2.94255 7.20153L8.50005 12.7677L14.0575 7.20232C15.1453 5.95386 15.0859 4.06811 13.9048 2.88457Z"
          fill="#C9191E"/>
</svg>
