<svg width="24" height="24" viewBox="0 0 24 24" fill="none" xmlns="http://www.w3.org/2000/svg">    <g clip-path="url(#clip0_1497_3650)">        <path d="M9 9.00016C9.00011 8.45019 9.15139 7.91083 9.43732 7.44103C9.72325 6.97123 10.1328 6.58907 10.6213 6.33631C11.1097 6.08356 11.6583 5.96994 12.2069 6.00788C12.7556 6.04581 13.2833 6.23384 13.7323 6.55141C14.1813 6.86898 14.5344 7.30387 14.7529 7.80855C14.9715 8.31323 15.0471 8.86828 14.9715 9.41303C14.8959 9.95778 14.6721 10.4713 14.3244 10.8974C13.9767 11.3235 13.5185 11.6458 13 11.8291C12.7074 11.9326 12.4541 12.1242 12.275 12.3776C12.0959 12.6311 11.9998 12.9338 12 13.2441V14.2501" stroke="#6A6AF4" stroke-width="1.5" stroke-linecap="round" stroke-linejoin="round"/>        <path d="M12 18C11.7929 18 11.625 17.8321 11.625 17.625C11.625 17.4179 11.7929 17.25 12 17.25" stroke="#6A6AF4" stroke-width="1.5"/>        <path d="M12 18C12.2071 18 12.375 17.8321 12.375 17.625C12.375 17.4179 12.2071 17.25 12 17.25" stroke="#6A6AF4" stroke-width="1.5"/>        <path d="M12 23.25C18.2132 23.25 23.25 18.2132 23.25 12C23.25 5.7868 18.2132 0.75 12 0.75C5.7868 0.75 0.75 5.7868 0.75 12C0.75 18.2132 5.7868 23.25 12 23.25Z" stroke="#6A6AF4" stroke-width="1.5" stroke-miterlimit="10"/>    </g>    <defs>        <clipPath id="clip0_1497_3650">            <rect width="24" height="24" fill="white"/>        </clipPath>    </defs></svg>