<svg width="154" height="133" viewBox="0 0 154 133" fill="none" xmlns="http://www.w3.org/2000/svg">    <rect width="65.7529" height="23.9101" transform="translate(1.18555 0.899048)" fill="white"/>    <path d="M21.5451 21.9644C21.5531 21.9644 21.561 21.9526 21.561 21.9526C21.6245 21.9058 21.688 21.8472 21.7435 21.7768C21.7356 21.7768 21.7276 21.7768 21.7197 21.7651C21.6642 21.8237 21.6007 21.894 21.5451 21.9644Z" fill="#000091"/>    <path d="M30.3385 19.0017L30.1997 19.1213C30.279 19.1014 30.3385 19.0814 30.3385 19.0017Z" fill="#000091"/>    <path fill-rule="evenodd" clip-rule="evenodd" d="M27.4955 22.0281C27.7502 21.7719 28.0049 21.5002 28.2596 21.2207H28.2519C28.7304 20.6773 29.1935 20.1572 29.7492 19.6837C29.919 19.5284 30.0811 19.3964 30.2355 19.2878C30.2581 19.265 30.2697 19.231 30.281 19.1977C30.2929 19.163 30.3044 19.129 30.3281 19.1092C30.2181 19.1512 30.1304 19.2176 30.0422 19.2843C29.951 19.3534 29.8592 19.4229 29.7415 19.4663C29.6952 19.4663 29.6489 19.4197 29.6952 19.3732C29.8573 19.2567 30.0194 19.1325 30.1737 19.0083H30.1428C30.0965 19.0083 30.0965 18.9617 30.0965 18.9151C29.522 18.8239 29.0807 19.2168 28.6856 19.5686L28.661 19.5905C28.5995 19.6214 28.5414 19.5908 28.4957 19.5667C28.4726 19.5545 28.4527 19.5439 28.4372 19.5439C28.0876 19.6611 27.7862 19.8772 27.4828 20.0946C27.2033 20.2949 26.9222 20.4964 26.6003 20.623V20.5298C26.4909 20.5675 26.3829 20.6167 26.2746 20.6659C26.1152 20.7384 25.9553 20.8111 25.7899 20.8481C25.4878 20.9182 25.2076 20.9092 24.9361 20.9004C24.8469 20.8975 24.7585 20.8947 24.6707 20.8947C24.1764 20.9437 23.6884 21.0496 23.201 21.1553L23.0422 21.1897C23.0345 21.1936 23.0268 21.1955 23.0191 21.1975C23.0113 21.1994 23.0036 21.2013 22.9959 21.2052C22.7026 21.2828 22.4325 21.3915 22.1624 21.5468L22.1315 21.5623C22.1209 21.5765 22.1103 21.5891 22.1004 21.6008C22.0887 21.6147 22.0781 21.6273 22.0697 21.6399C21.9771 21.7486 21.8922 21.8418 21.761 21.9116C21.5672 22.0091 21.3998 22.1594 21.235 22.3073C21.1636 22.3714 21.0924 22.4352 21.0201 22.4939C21.0047 22.5094 20.9738 22.5172 20.9506 22.5172C20.7114 22.75 20.4721 22.983 20.2251 23.2081C20.2097 23.2236 20.1402 23.2313 20.0862 23.2236C20.0862 23.2236 20.0939 23.2236 20.0939 23.2158L20.1171 23.1692L20.2328 22.9829C20.256 22.948 20.2772 22.9131 20.2984 22.8781C20.3197 22.8432 20.3409 22.8083 20.364 22.7733C20.4257 22.6803 20.4876 22.5869 20.557 22.5016C20.5724 22.4783 20.5724 22.4551 20.557 22.4395C20.5416 22.424 20.5184 22.4162 20.4953 22.4162C20.7191 22.1989 20.9815 22.0126 21.2516 21.8495V21.8418C21.2208 21.8495 21.1744 21.8263 21.1976 21.7952C21.2202 21.7667 21.2387 21.7341 21.2561 21.7034L21.2748 21.671C21.2786 21.6632 21.2806 21.6574 21.2825 21.6516C21.2844 21.6458 21.2864 21.6399 21.2902 21.6322C21.2864 21.6244 21.2806 21.6186 21.2748 21.6128C21.269 21.6069 21.2632 21.6011 21.2593 21.5934L21.2125 21.6242C21.1566 21.6609 21.0991 21.6985 21.051 21.7409C21.0169 21.7702 20.9851 21.8104 20.9525 21.8517C20.8817 21.9413 20.8069 22.0359 20.6959 22.0359C20.6882 22.0359 20.6496 22.0359 20.6265 22.0281C20.6033 22.0281 20.5879 22.0203 20.5802 22.0126C20.5802 22.0087 20.5802 22.0067 20.5811 22.0058C20.5821 22.0048 20.584 22.0048 20.5879 22.0048C20.5879 22.0048 20.5956 21.997 20.5956 21.9893C20.5956 21.9893 20.5956 21.9815 20.6033 21.9815C20.6072 21.9738 20.611 21.9679 20.6149 21.9621C20.6187 21.9563 20.6226 21.9505 20.6265 21.9427C20.6303 21.9349 20.6342 21.9291 20.638 21.9233C20.6419 21.9175 20.6458 21.9116 20.6496 21.9039C20.6535 21.9 20.6554 21.8942 20.6573 21.8884C20.6593 21.8825 20.6612 21.8767 20.6651 21.8728L20.6738 21.8568C20.6814 21.8432 20.6905 21.827 20.6959 21.8107C20.6998 21.803 20.7036 21.7971 20.7075 21.7913C20.7114 21.7855 20.7152 21.7797 20.7191 21.7719C20.7307 21.7564 20.7403 21.7389 20.75 21.7215C20.7596 21.704 20.7692 21.6865 20.7808 21.671C20.7885 21.6555 20.7963 21.6399 20.8117 21.6244C20.8194 21.6089 20.8271 21.5953 20.8349 21.5817C20.8426 21.5681 20.8503 21.5545 20.858 21.539C20.8812 21.5002 20.858 21.4692 20.8271 21.4614C20.912 21.3527 21.0124 21.2596 21.1359 21.1897H21.1204C21.227 21.1361 21.3366 21.0733 21.4454 21.011C21.5096 20.9742 21.5746 20.937 21.6375 20.9025C21.6607 20.8792 21.6838 20.8559 21.7147 20.8404C21.46 20.9257 21.2285 21.0422 21.0047 21.1975C21.0047 21.1975 20.9429 21.2207 20.9275 21.2363C20.9275 21.2363 20.8812 21.2518 20.8194 21.1975C20.8117 21.1897 20.8117 21.1819 20.8117 21.1664C20.8385 21.1124 20.8939 21.0767 20.9537 21.0381C20.9971 21.01 21.0429 20.9805 21.0818 20.9413C21.1281 20.9413 21.1667 20.9413 21.1667 20.9879C22.0556 20.2909 23.1517 20.1296 24.2514 19.9678C24.9278 19.8683 25.6056 19.7686 26.2375 19.5439C26.3031 19.4974 26.3706 19.4527 26.4382 19.4081C26.5057 19.3634 26.5732 19.3188 26.6388 19.2722C26.7514 19.2254 26.8523 19.1451 26.9591 19.0602C27.0647 18.9762 27.176 18.8876 27.3103 18.822C27.6653 18.5503 27.9355 18.2398 28.0744 17.7817C28.0744 17.7352 28.0281 17.6886 28.0281 17.6886C27.4415 18.3174 26.7701 18.8142 26.0523 19.1791C25.3678 19.5402 24.6345 19.5937 23.9085 19.6467C23.6357 19.6666 23.364 19.6864 23.0962 19.7225C23.1426 19.6293 23.2352 19.6293 23.3201 19.6293C23.3201 19.5191 23.3729 19.4717 23.4407 19.4108C23.4588 19.3946 23.478 19.3773 23.4976 19.3576H23.6288C23.652 19.3576 23.6635 19.3343 23.6751 19.311C23.6867 19.2878 23.6983 19.2645 23.7214 19.2645C23.814 19.2645 23.9452 19.2179 23.8989 19.2179C23.8281 19.1269 23.7253 19.1629 23.6118 19.2027C23.5026 19.2409 23.3835 19.2826 23.2738 19.2179C23.3146 19.1731 23.3268 19.1194 23.338 19.0704C23.3501 19.0176 23.3609 18.9704 23.405 18.9462H23.5825C23.5825 18.853 23.6751 18.7676 23.6751 18.7676C24.0776 18.5256 24.4663 18.3143 24.8477 18.107C25.1025 17.9685 25.3543 17.8316 25.6046 17.6886C25.554 17.6886 25.5091 17.7094 25.4655 17.7296C25.3962 17.7618 25.3302 17.7924 25.2496 17.7352C25.2959 17.7352 25.2959 17.7022 25.2959 17.6692C25.2959 17.6362 25.2959 17.6032 25.3422 17.6032C25.6318 17.5258 25.8895 17.4005 26.1527 17.2724C26.3385 17.182 26.5271 17.0903 26.7315 17.0132C26.6708 17.0132 26.6146 17.0295 26.5599 17.0454C26.4545 17.0761 26.3543 17.1052 26.2375 17.0132C26.2682 16.9978 26.2929 16.9781 26.3173 16.9587C26.3667 16.9194 26.4147 16.8812 26.5076 16.8812V16.7493C26.5076 16.7027 26.5539 16.7027 26.6003 16.7027C26.5539 16.7027 26.5076 16.6561 26.5076 16.6561C26.5322 16.6068 26.5805 16.5966 26.6342 16.5853C26.6821 16.5753 26.7342 16.5643 26.7778 16.5241C26.7315 16.5241 26.6466 16.5241 26.6466 16.4776C26.7778 16.299 27.0016 16.2524 27.2254 16.2059C27.2023 16.1593 27.1579 16.1593 27.1193 16.1593C27.0807 16.1593 27.0479 16.1593 27.0479 16.1127C27.0479 16.0661 27.0942 16.0661 27.1405 16.0661H27.0479C26.9752 16.0296 26.9881 15.9643 26.997 15.9192C26.9994 15.9068 27.0016 15.8959 27.0016 15.8876C27.1829 15.6739 27.2425 15.4218 27.3018 15.1712C27.3308 15.0484 27.3598 14.9259 27.4029 14.8085C27.3566 14.8085 27.3103 14.8085 27.3103 14.7619C26.8763 15.2436 26.1885 15.4261 25.5351 15.5995L25.4734 15.6159H25.2496C25.0258 15.709 24.7093 15.709 24.4855 15.5693C24.3791 15.5134 24.3032 15.4436 24.2212 15.3682C24.1664 15.3179 24.1089 15.265 24.0379 15.2122C23.6751 14.9871 23.3201 14.8085 22.9187 14.6688C21.7996 14.3117 20.6342 14.1254 19.4688 14.172C19.7942 13.9929 20.1398 13.9218 20.49 13.8496C20.6713 13.8123 20.8539 13.7747 21.0355 13.7217C21.1501 13.6879 21.2637 13.6531 21.3766 13.6185C22.0168 13.4223 22.6378 13.2319 23.3201 13.2715C23.2308 13.2397 23.1164 13.2512 23.0111 13.2618C22.9617 13.2667 22.9143 13.2715 22.8724 13.2715C22.3565 13.233 21.8354 13.3479 21.2916 13.4677C21.1764 13.4931 21.0603 13.5187 20.9429 13.5432C20.7299 13.5875 20.5274 13.6511 20.3246 13.7149C20.1012 13.7851 19.8773 13.8555 19.6386 13.9003C19.535 13.936 19.4519 13.9968 19.3709 14.056C19.2406 14.1513 19.1159 14.2425 18.9208 14.2185V14.0788C19.3684 13.5354 19.9087 12.9997 20.6265 12.9532C21.3203 12.8402 21.9745 12.9207 22.657 13.0046C22.7716 13.0187 22.8871 13.0329 23.0036 13.0463C23.5631 13.0913 24.0865 13.2161 24.6505 13.3506L24.7093 13.3646C24.8328 13.3646 24.9023 13.4733 24.9695 13.5786C25.0242 13.6641 25.0774 13.7474 25.157 13.7683C25.2669 13.8062 25.3767 13.8132 25.4866 13.8203C25.6469 13.8306 25.8071 13.8409 25.9674 13.9468C25.9674 13.9155 25.9621 13.885 25.9569 13.8548C25.9467 13.7953 25.9366 13.7369 25.9674 13.6751C26.067 13.575 26.1811 13.6018 26.2935 13.6283C26.3814 13.649 26.4683 13.6694 26.5462 13.6285C26.791 13.4767 26.5614 13.2435 26.3316 13.0101C26.2208 12.8976 26.11 12.785 26.0523 12.6815C26.0523 12.6349 26.0986 12.5883 26.0986 12.5883C26.1999 12.6792 26.2944 12.7732 26.388 12.8664C26.6223 13.0997 26.8515 13.328 27.1714 13.4888C27.3952 13.582 27.9355 13.7139 27.8429 13.4422C27.6843 13.0903 27.4135 12.7852 27.1401 12.4771C27.0275 12.3502 26.9145 12.2228 26.8086 12.0915V11.9129C26.7383 11.9129 26.7214 11.8861 26.7004 11.8527C26.6938 11.8422 26.6867 11.831 26.6774 11.8198V11.6412C26.5643 11.5819 26.5389 11.4878 26.5134 11.3932C26.4989 11.3394 26.4844 11.2854 26.4536 11.2376C26.3762 11.1122 26.3707 10.9579 26.365 10.7989C26.3604 10.6724 26.3557 10.5428 26.3147 10.4224C26.2221 10.1507 26.1835 9.92561 26.1372 9.65391C26.0869 9.37594 26.0316 9.11016 25.9775 8.84995C25.882 8.39075 25.79 7.94885 25.7358 7.48804C25.6644 6.82938 25.997 6.27233 26.3371 5.70288C26.4379 5.53407 26.5394 5.36416 26.6311 5.1902C26.9476 4.64679 27.3026 4.11114 27.8892 3.74628C28.0171 3.21628 28.3654 2.7749 28.7119 2.3357L28.7382 2.30237C29.0801 1.87615 29.6513 1.61559 30.0722 1.42357L30.1197 1.40186C30.7449 1.1224 31.3083 0.943848 31.316 0.943848H0.3125V24.846H22.309C22.8973 24.4196 23.4819 24.1505 24.1779 23.8303C24.4955 23.6841 24.8362 23.5273 25.211 23.34C25.2904 23.3001 25.3847 23.2537 25.4894 23.2022C26.1176 22.8931 27.1185 22.4007 27.4955 22.0281ZM20.5158 18.8033C20.4286 18.8121 20.336 18.8214 20.3709 18.7513C20.4033 18.5941 20.5642 18.547 20.7214 18.501C20.7886 18.4813 20.8552 18.4618 20.9107 18.434L20.9361 18.4209L20.9546 18.4111C21.0416 18.3649 21.1482 18.3083 21.2268 18.3412C21.2799 18.4166 21.3456 18.436 21.4095 18.4549C21.457 18.469 21.5035 18.4828 21.543 18.5191C21.3762 18.6865 21.1815 18.703 20.9841 18.7198C20.853 18.7309 20.7207 18.7421 20.5946 18.7977C20.5719 18.7977 20.5441 18.8005 20.5158 18.8033ZM13.6875 17.7117C13.6875 17.7582 13.7338 17.8048 13.7338 17.8048C14.8143 16.586 15.7945 15.5458 17.1838 14.6841C17.221 14.6685 17.2071 14.688 17.1888 14.7138C17.1614 14.7524 17.1239 14.8051 17.2301 14.7773C17.69 14.6724 17.8966 14.2784 18.0975 13.8951C18.1495 13.796 18.2011 13.6976 18.2566 13.605C18.4674 13.2623 18.7667 13.0426 19.0684 12.8213C19.2859 12.6617 19.5046 12.5013 19.6922 12.2931C19.6922 12.3397 19.6922 12.3863 19.6459 12.4328C19.6922 12.4794 19.7385 12.4794 19.7848 12.4794C19.8662 12.418 19.9551 12.3926 20.0403 12.3682C20.1489 12.3371 20.2515 12.3078 20.325 12.2077C19.97 12.068 19.5147 12.0214 19.1596 12.1611C18.218 12.6114 17.4153 13.3333 16.6512 14.1485C16.1882 14.6375 15.7096 15.0955 15.1231 15.4138C14.7217 16.2212 14.2741 16.9431 13.6875 17.7117ZM17.4555 14.8245C17.4313 14.873 17.4071 14.8983 17.384 14.9224C17.363 14.9445 17.3428 14.9656 17.3244 15.0025C17.2781 15.0953 17.2319 15.134 17.147 15.1804C17.1008 15.1804 17.0545 15.1804 17.0545 15.134C17.1008 14.956 17.2319 14.7781 17.4092 14.7316C17.4555 14.7394 17.4555 14.7858 17.4555 14.8245ZM19.4291 21.7185C19.4677 21.6797 19.5139 21.6331 19.5371 21.5866C19.5756 21.4934 19.3366 21.5167 19.298 21.54C19.263 21.5682 19.2408 21.5963 19.2139 21.6303L19.2055 21.6409C19.1733 21.6779 19.1357 21.7122 19.0975 21.7469C19.0715 21.7705 19.0454 21.7943 19.0204 21.8194C18.9125 21.9281 18.8045 22.0368 18.6889 22.1377C18.6118 22.2076 18.8585 22.2386 18.9125 22.1921C18.9742 22.1455 19.0281 22.0912 19.0821 22.0368C19.1027 22.0368 19.1232 22.0334 19.137 22.0311L19.1464 22.0295L19.1515 22.029C19.2793 21.9862 19.3745 21.8972 19.467 21.8106L19.4908 21.7884C19.5216 21.7573 19.4831 21.7263 19.4291 21.7185ZM18.7313 21.2137C18.7304 21.2138 18.7298 21.2141 18.7294 21.2145C18.7284 21.2155 18.7284 21.2174 18.7284 21.2213C18.6811 21.2538 18.6343 21.2868 18.5877 21.3198C18.467 21.4052 18.3471 21.4901 18.219 21.5629C18.0966 21.6318 17.9711 21.6914 17.8444 21.7515C17.7714 21.7862 17.6981 21.821 17.6247 21.8579C17.6247 21.8579 17.6247 21.8501 17.617 21.8501C17.6016 21.8268 17.5707 21.8191 17.5398 21.8346C17.37 21.9277 17.2234 22.0519 17.0922 22.1839C17.069 22.1994 17.0459 22.2227 17.0304 22.246L16.961 22.3159V22.3236C16.9301 22.3547 16.8992 22.3858 16.8606 22.4323C16.8526 22.4404 16.8465 22.4485 16.8405 22.4562C16.8294 22.4708 16.8191 22.4843 16.7989 22.4944C16.768 22.51 16.6908 22.51 16.6986 22.4634V22.4556C16.6754 22.4711 16.6445 22.4867 16.6214 22.4944C16.6098 22.5022 16.5982 22.508 16.5867 22.5138C16.5751 22.5197 16.5635 22.5255 16.5519 22.5332C16.5442 22.5255 16.5288 22.5255 16.521 22.5255C16.5133 22.5255 16.4979 22.5255 16.4902 22.5332C16.4722 22.5488 16.4542 22.5634 16.4361 22.5781C16.4001 22.6074 16.3641 22.6368 16.3281 22.673C16.2355 22.7584 16.1506 22.8515 16.0657 22.9524C16.0657 22.9524 16.0657 22.9602 16.058 22.9602C16.058 22.9641 16.056 22.966 16.0541 22.968C16.0522 22.9699 16.0502 22.9719 16.0502 22.9757L16.0348 22.9913C16.0319 22.9942 16.03 22.9972 16.0285 22.9997C16.026 23.0038 16.0241 23.0068 16.0194 23.0068L16.0117 23.0146C16.0039 23.0301 15.9962 23.0456 15.9808 23.0611C15.9731 23.0689 15.9576 23.0767 15.9422 23.0767C15.9345 23.0689 15.9268 23.0611 15.9268 23.0534C15.9229 23.0495 15.921 23.0456 15.919 23.0417C15.9171 23.0378 15.9152 23.034 15.9113 23.0301C15.9036 23.0184 15.8978 23.0068 15.892 22.9951C15.8862 22.9835 15.8804 22.9719 15.8727 22.9602V22.9524C15.8727 22.9486 15.8708 22.9447 15.8689 22.9408C15.8669 22.9369 15.865 22.933 15.865 22.9292L16.0039 22.7661L16.0117 22.7584C16.0194 22.7506 16.0271 22.7409 16.0348 22.7312C16.0425 22.7215 16.0502 22.7118 16.058 22.704C16.0695 22.6885 16.083 22.673 16.0965 22.6575C16.1101 22.6419 16.1236 22.6264 16.1351 22.6109C16.139 22.6031 16.1429 22.5973 16.1467 22.5915C16.1506 22.5856 16.1544 22.5798 16.1583 22.5721C16.2046 22.51 16.2509 22.4479 16.2972 22.378V22.3702C16.3049 22.3625 16.3127 22.3547 16.3127 22.3392C16.3358 22.3081 16.359 22.2771 16.3744 22.246L16.4207 22.1529V22.1451L16.4284 22.1373C16.4284 22.1335 16.4304 22.1315 16.4323 22.1296C16.4342 22.1276 16.4361 22.1257 16.4361 22.1218C16.4439 22.1024 16.4516 22.085 16.4593 22.0675C16.467 22.05 16.4747 22.0325 16.4825 22.0131V22.0054L16.4902 21.9743C16.494 21.9665 16.496 21.9588 16.4979 21.951C16.4998 21.9433 16.5018 21.9355 16.5056 21.9277V21.92C16.5095 21.9083 16.5114 21.8967 16.5133 21.885C16.5153 21.8734 16.5172 21.8617 16.521 21.8501C16.521 21.8423 16.521 21.8268 16.5133 21.8191C16.5596 21.7337 16.6214 21.656 16.6908 21.5784C16.687 21.5784 16.6831 21.5803 16.6793 21.5823C16.6771 21.5834 16.6748 21.5845 16.6726 21.5853C16.671 21.5858 16.6693 21.5862 16.6677 21.5862C16.6333 21.6078 16.6038 21.6366 16.5737 21.6659C16.5496 21.6893 16.5253 21.713 16.4979 21.7337C16.4516 21.7725 16.359 21.7104 16.4207 21.6638C16.4593 21.6328 16.4902 21.6017 16.521 21.5707C16.521 21.5707 16.521 21.5629 16.5288 21.5629C16.5595 21.535 16.5891 21.5035 16.6189 21.4717C16.6638 21.4237 16.7093 21.3751 16.7603 21.3377C16.8143 21.2989 16.8529 21.2679 16.8992 21.2291C16.907 21.2213 16.9147 21.2135 16.9224 21.2135C16.9533 21.1747 16.9841 21.1359 17.0227 21.0971C17.0227 21.0971 17.0304 21.0971 17.0304 21.0893C17.2955 20.8323 17.6679 20.7416 18.0481 20.6491C18.2878 20.5907 18.5307 20.5316 18.7516 20.4295C18.8763 20.3776 19.0155 20.398 19.153 20.4182C19.2622 20.4342 19.3703 20.4501 19.4694 20.4295C19.6006 20.4295 19.7395 20.4295 19.8707 20.5226C19.5655 20.6851 19.2743 20.871 18.9861 21.0548C18.9027 21.1081 18.8193 21.1613 18.7361 21.2135C18.734 21.2135 18.7324 21.2135 18.7313 21.2137ZM19.6958 18.0497C19.6596 18.0539 19.6362 18.0566 19.6563 18.0768C19.7875 18.2087 20.0576 18.1621 20.2429 18.0612C20.3741 17.9681 20.513 17.9681 20.6905 17.9681C20.7368 17.9681 20.7368 17.8827 20.7368 17.8361C20.868 17.8827 20.9606 17.8827 21.0919 17.8827C22.1647 17.6576 23.1989 17.4324 24.1868 16.9356C23.1872 16.1632 21.9548 15.8192 20.7478 15.4822C20.5475 15.4263 20.3479 15.3706 20.1503 15.3131C20.1937 15.3131 20.2372 15.3276 20.2809 15.3422C20.3692 15.3716 20.4587 15.4014 20.5516 15.3131C20.4291 15.2154 20.2928 15.1968 20.1578 15.1783C20.046 15.163 19.9352 15.1478 19.8338 15.088C19.8444 15.088 19.857 15.0904 19.8706 15.0931C19.9169 15.102 19.9756 15.1133 20.0113 15.0414C19.7769 14.9235 19.5424 14.8835 19.3058 14.8431C19.184 14.8223 19.0617 14.8014 18.9385 14.7697C19.1623 14.7231 19.3013 14.5446 19.3013 14.3195C19.3013 14.2729 19.2086 14.2729 19.1623 14.2729C18.6298 14.5446 18.267 15.0414 18.0432 15.6237C18.245 15.7425 18.4625 15.7287 18.6756 15.7152C18.7968 15.7075 18.9165 15.6999 19.0311 15.7168C18.9299 15.8129 18.7837 15.839 18.6431 15.8641C18.5907 15.8735 18.5391 15.8827 18.4909 15.8954C18.3519 15.9264 18.2207 16.0273 18.267 16.1205C18.2979 16.1593 18.3288 16.1748 18.3674 16.1826C18.267 16.2136 18.1744 16.2602 18.0895 16.3456C18.2166 16.4456 18.3476 16.4263 18.4769 16.4073C18.5283 16.3997 18.5793 16.3922 18.6298 16.3922C18.6298 16.4486 18.6668 16.4677 18.7053 16.4876C18.7251 16.4979 18.7453 16.5083 18.761 16.5242C18.5372 16.6095 18.3597 16.7959 18.3133 16.9278C18.258 17.0623 18.1559 17.1497 18.0546 17.2363C17.9864 17.2947 17.9185 17.3528 17.8657 17.4247V17.5644C17.7166 17.6966 17.5634 17.8146 17.4122 17.931C17.1018 18.1701 16.8001 18.4025 16.5613 18.7366C16.6077 18.7366 16.6077 18.7832 16.6077 18.8298C16.565 18.8942 16.5042 18.9388 16.4466 18.9811C16.3792 19.0306 16.3162 19.0769 16.2912 19.148C16.2912 19.1946 16.2912 19.2412 16.3375 19.2412C16.6207 19.1476 16.8658 18.99 17.106 18.8355C17.324 18.6953 17.5381 18.5576 17.7731 18.4727C17.9651 18.4265 18.1324 18.3394 18.2955 18.2544C18.4339 18.1823 18.5694 18.1118 18.7147 18.069C18.8266 18.0457 18.9501 18.0127 19.0736 17.9797C19.1971 17.9467 19.3206 17.9137 19.4325 17.8904C19.4325 17.937 19.4325 17.9836 19.4788 17.9836H19.8338C19.8119 18.0364 19.743 18.0443 19.6958 18.0497Z" fill="#000091"/>    <path d="M66.0661 0.943848H40.3559C40.3559 0.943848 40.4025 0.951621 40.5968 1.05267C40.8067 1.1615 41.0787 1.30918 41.2419 1.39469C41.5761 1.5657 41.8948 1.78335 42.1046 2.11759C42.1979 2.24973 42.33 2.52179 42.2445 2.70058C42.1513 2.926 42.1046 3.29133 41.8792 3.37684C41.6072 3.51675 41.2497 3.51675 40.931 3.47011C40.7523 3.47011 40.5735 3.42348 40.387 3.37684C41.0632 3.6489 41.7005 3.9676 42.1513 4.59722C42.1979 4.6905 42.3767 4.72936 42.5554 4.72936C42.602 4.72936 42.602 4.82264 42.602 4.86151C42.5088 4.95478 42.4233 5.00142 42.4699 5.13356H42.602C42.8274 5.04029 42.7808 4.58945 43.0995 4.72936C43.3248 4.86151 43.4181 5.1802 43.2782 5.40562C43.0995 5.58441 42.9207 5.72432 42.7342 5.85647C42.6875 5.94974 42.6875 6.08189 42.7342 6.17516C42.8663 6.35395 42.9129 6.53273 42.9596 6.71928C43.0995 7.03798 43.1383 7.39555 43.2782 7.71424C43.457 8.39051 43.6357 9.06677 43.5969 9.7508C43.5969 10.1084 43.4181 10.4271 43.5502 10.7924C43.6435 11.15 43.8689 11.422 44.0477 11.7407C44.2264 12.0128 44.4052 12.1916 44.5451 12.4636C44.8171 12.9145 45.3145 13.3653 45.0891 13.9094C44.957 14.2281 44.4596 14.1815 44.1409 14.3603C43.8689 14.5857 44.0943 14.951 44.2342 15.1764C44.4596 15.5807 43.9622 15.8527 43.6435 15.9926C43.7368 16.1325 43.9155 16.0859 43.9622 16.1714C44.0088 16.3968 44.2342 16.529 44.0943 16.7622C43.9155 17.0342 43.3715 17.1664 43.6435 17.5783C43.8223 17.897 43.7057 18.2468 43.5969 18.5733C43.4647 18.9775 43.0995 19.1563 42.7808 19.2496C42.5088 19.3428 42.1901 19.3428 41.9259 19.2962C41.8326 19.2496 41.7471 19.2029 41.6538 19.2029C40.8844 19.1097 40.115 18.892 39.3533 18.892C39.1279 18.9386 38.9025 18.9775 38.7238 19.0708C38.5217 19.2185 38.3352 19.3817 38.1797 19.5527C38.1797 19.5527 38.1797 19.5527 38.1719 19.5605C38.1408 19.5994 38.102 19.6305 38.0709 19.6693C38.0554 19.6926 38.032 19.716 38.0165 19.7393C38.0009 19.7548 37.9932 19.7704 37.9776 19.7859C37.8455 19.9492 37.7289 20.1279 37.6201 20.3067C37.6123 20.3223 37.6046 20.33 37.5968 20.3378C37.589 20.3611 37.5735 20.3767 37.5579 20.4C37.4103 20.6721 37.3015 20.9519 37.216 21.2317C36.9051 22.2655 37.045 23.1517 37.2626 23.3693C37.3248 23.4315 38.7548 23.8746 39.7497 24.3176C40.216 24.5275 40.5424 24.683 40.8145 24.854H66.0583V0.943848H66.0661Z" fill="#E1000F"/>    <path d="M41.8827 9.66039C42.061 9.70696 42.3323 9.70696 42.3323 9.80012C42.2393 10.1572 41.7044 10.2504 41.4331 10.6152H41.2936C41.1618 10.7084 41.2006 10.9335 41.0688 10.9335C40.937 10.8869 40.7975 10.9335 40.6657 10.9801C40.844 11.1586 41.0688 11.2984 41.3401 11.2518C41.3866 11.2518 41.4719 11.345 41.4719 11.4303C41.4719 11.4303 41.5184 11.4303 41.5649 11.3838C41.6114 11.3838 41.6579 11.3838 41.6579 11.4303V11.6089C41.5261 11.7874 41.2936 11.702 41.1153 11.7409C41.4796 11.834 41.8362 11.834 42.154 11.7409C42.4253 11.6477 42.154 11.1975 42.3323 10.9723C42.2393 10.9723 42.3323 10.8326 42.2393 10.8326C42.3323 10.7394 42.4176 10.6075 42.5106 10.5609C42.6036 10.5609 42.7354 10.5143 42.7819 10.4212C42.7819 10.328 42.6036 10.2892 42.6424 10.196C42.9137 10.0175 43.1385 9.74578 43.0455 9.47407C42.999 9.33434 42.6424 9.33434 42.4176 9.24895C42.1928 9.16355 41.9215 9.24895 41.6502 9.29553C41.4254 9.29553 41.2006 9.43526 40.9757 9.47407C40.6579 9.56723 40.3866 9.74578 40.123 9.92433C40.4409 9.79236 40.7509 9.74578 41.1153 9.65262C41.3866 9.66039 41.6114 9.59828 41.8827 9.66039Z" fill="#808080"/>    <path d="M3.64829 52.7792H7.04353V46.0126H8.78897L13.2602 52.7792H17.2532L12.0168 45.367C13.7384 44.578 14.7187 43.0717 14.7187 41.0393C14.7187 37.931 12.4472 36.0421 8.76506 36.0421H3.64829V52.7792ZM8.95635 38.8635C10.391 38.8635 11.2278 39.7242 11.2278 40.9915C11.2278 42.3543 10.391 43.1912 8.95635 43.1912H7.04353V38.8635H8.95635ZM26.1464 34.6075L29.2548 31.3796H25.7639L23.062 34.6075H26.1464ZM19.7624 52.7792H29.5178V49.9578H23.1577V45.654H28.5614V42.8326H23.1577V38.8635H29.5178V36.0421H19.7624V52.7792ZM33.8218 52.7792H37.217V46.0126H39.345C43.0272 46.0126 45.2747 44.1237 45.2747 41.0393C45.2747 37.931 43.0272 36.0421 39.345 36.0421H33.8218V52.7792ZM39.4885 38.8635C40.9231 38.8635 41.7839 39.7242 41.7839 40.9915C41.7839 42.3543 40.9231 43.1912 39.4885 43.1912H37.217V38.8635H39.4885ZM58.3119 46.5147C58.3119 48.7623 57.0208 50.0773 54.9406 50.0773C52.8126 50.0773 51.5454 48.7623 51.5454 46.5147V36.0421H48.1501V46.2278C48.1501 50.6273 50.7324 53.2574 54.9167 53.2574C59.1249 53.2574 61.7072 50.6273 61.7072 46.2278V36.0421H58.3119V46.5147ZM66.2835 52.7792H71.5677C75.4172 52.7792 77.7843 50.9142 77.7843 47.8537C77.7843 46.1082 76.804 44.6736 75.0347 43.8846C76.2063 43.1195 76.8279 41.9479 76.8279 40.585C76.8279 37.7636 74.6999 36.0421 71.209 36.0421H66.2835V52.7792ZM71.2808 38.8635C72.5719 38.8635 73.337 39.5569 73.337 40.7285C73.337 41.9479 72.5719 42.6413 71.2808 42.6413H69.6788V38.8635H71.2808ZM71.759 45.4627C73.337 45.4627 74.2934 46.2756 74.2934 47.7102C74.2934 49.1209 73.337 49.9578 71.759 49.9578H69.6788V45.4627H71.759ZM81.6271 52.7792H91.3825V49.6948H85.0224V36.0421H81.6271V52.7792ZM94.7291 52.7792H98.1244V36.0421H94.7291V52.7792ZM117.196 52.3488L116.192 51.3924C118.249 49.7665 119.492 47.2081 119.492 44.4106C119.492 39.6286 115.881 35.5639 110.621 35.5639C105.337 35.5639 101.727 39.6286 101.727 44.4106C101.727 49.1927 105.337 53.2574 110.621 53.2574C111.434 53.2574 112.199 53.1617 112.917 52.9705L114.901 54.7398C116.551 56.1744 118.272 56.9395 120.137 56.9395C120.879 56.9395 121.357 56.8439 121.907 56.6287V53.7595C121.548 53.903 121.07 53.9508 120.711 53.9508C119.635 53.9508 118.488 53.5204 117.196 52.3488ZM110.621 50.0773C107.465 50.0773 105.217 47.6146 105.217 44.4106C105.217 41.2067 107.465 38.7439 110.621 38.7439C113.753 38.7439 116.001 41.2067 116.001 44.4106C116.001 47.6146 113.753 50.0773 110.621 50.0773ZM132.975 46.5147C132.975 48.7623 131.684 50.0773 129.604 50.0773C127.476 50.0773 126.209 48.7623 126.209 46.5147V36.0421H122.813V46.2278C122.813 50.6273 125.396 53.2574 129.58 53.2574C133.788 53.2574 136.37 50.6273 136.37 46.2278V36.0421H132.975V46.5147ZM140.947 52.7792H150.702V49.9578H144.342V45.654H149.746V42.8326H144.342V38.8635H150.702V36.0421H140.947V52.7792ZM3.64829 76.7792H7.04353V69.654H12.4472V66.8326H7.04353V62.8635H13.4036V60.0421H3.64829V76.7792ZM16.7503 76.7792H20.1455V70.0126H21.891L26.3622 76.7792H30.3552L25.1189 69.367C26.8404 68.578 27.8207 67.0717 27.8207 65.0393C27.8207 61.931 25.5492 60.0421 21.8671 60.0421H16.7503V76.7792ZM22.0584 62.8635C23.493 62.8635 24.3298 63.7242 24.3298 64.9915C24.3298 66.3543 23.493 67.1912 22.0584 67.1912H20.1455V62.8635H22.0584ZM31.4842 76.7792H35.0946L36.6966 72.4275H43.3914L44.9934 76.7792H48.6039L42.2677 60.0421H37.8204L31.4842 76.7792ZM37.7486 69.5344L40.044 63.246L42.3394 69.5344H37.7486ZM51.547 76.7792H54.9423V64.6806L62.4262 76.7792H66.7778V60.0421H63.3826V72.1406L55.8987 60.0421H51.547V76.7792ZM79.2774 74.0773C76.1213 74.0773 73.8737 71.6146 73.8737 68.4106C73.8737 65.2067 76.1213 62.7439 79.2774 62.7439C81.1902 62.7439 82.6966 63.6764 83.653 65.0393L86.3309 62.9591C84.8006 60.9267 82.314 59.5639 79.2774 59.5639C73.9933 59.5639 70.3828 63.6286 70.3828 68.4106C70.3828 72.6666 73.252 76.3488 77.6037 77.1139L75.4996 80.6287H78.5123L80.5925 77.1617C83.0313 76.8509 85.0397 75.6076 86.3309 73.8382L83.653 71.782C82.6966 73.1448 81.1902 74.0773 79.2774 74.0773ZM87.4153 76.7792H91.0257L92.6277 72.4275H99.3225L100.924 76.7792H104.535L98.1987 60.0421H93.7514L87.4153 76.7792ZM93.6797 69.5344L95.9751 63.246L98.2705 69.5344H93.6797ZM107.478 76.7792H110.873V60.0421H107.478V76.7792ZM114.404 74.4599C115.886 76.2292 117.775 77.2574 120.597 77.2574C123.657 77.2574 126.12 75.3685 126.168 72.2123C126.168 66.4739 118.564 67.3347 118.564 64.2981C118.564 63.2939 119.353 62.5287 120.549 62.5287C121.816 62.5287 122.916 63.3656 123.896 64.6328L126.383 62.3853C124.948 60.6876 123.035 59.5639 120.525 59.5639C117.321 59.5639 115.121 61.7636 115.121 64.4176C115.121 70.0843 122.725 69.2475 122.725 72.3319C122.725 73.5274 121.912 74.2447 120.573 74.2447C119.21 74.2447 117.871 73.4796 116.867 72.1884L114.404 74.4599ZM130.086 76.7792H139.842V73.9578H133.482V69.654H138.885V66.8326H133.482V62.8635H139.842V60.0421H130.086V76.7792Z" fill="#161616"/>    <path fill-rule="evenodd" clip-rule="evenodd" d="M63.3121 121.674L61.0881 123.706H60.5142L61.8294 121.387H63.3121V121.674ZM61.7099 129.539H61.2317C60.6338 130.256 59.9642 130.83 59.3186 130.83C58.649 130.83 58.3142 130.423 58.3142 129.539C58.3142 129.18 58.362 128.798 58.4338 128.463L62.3317 127.172C63.0969 125.355 62.1882 124.566 61.1121 124.566C59.2707 124.566 57.1663 127.794 57.1663 130.376C57.1663 131.595 57.7403 132.264 58.649 132.264C59.7012 132.241 60.8012 131.212 61.7099 129.539ZM60.3722 125.618C60.8983 125.618 61.3527 126.025 61.1136 126.957L58.6983 127.603C59.0809 126.455 59.7983 125.618 60.3722 125.618ZM52.7688 125.666H54.0602L52.0036 131.308C51.8123 131.786 52.0753 132.264 52.5775 132.264C54.0363 132.264 55.7819 131.021 56.4515 129.252H56.0928C55.5667 129.993 54.4189 130.806 53.558 130.95L55.4472 125.666H57.3842L57.6233 124.853H55.7341L56.4515 122.821H55.7102L54.371 124.853L52.7688 125.068V125.666ZM50.974 124.591C51.237 124.591 51.5958 124.878 51.4284 125.404L49.1087 131.023C49.7066 130.927 50.3283 130.353 50.687 129.827H51.0697C50.5196 131.238 49.2761 132.266 48.2 132.266C47.937 132.266 47.5543 131.979 47.7457 131.453L49.8979 125.834C49.3 125.93 48.6783 126.504 48.3196 127.03H47.9609C48.5109 125.595 49.8501 124.591 50.974 124.591ZM51.6452 123.156C52.1234 123.156 52.53 122.773 52.53 122.271C52.53 121.793 52.1234 121.387 51.6452 121.387C51.143 121.387 50.7604 121.793 50.7604 122.271C50.7604 122.75 51.1669 123.156 51.6452 123.156ZM41.1946 127.819C41.7207 126.671 41.5294 126.145 41.1946 126.145C40.9076 126.145 40.5728 126.456 40.238 127.03H39.8793C40.4293 125.81 41.1468 124.591 41.9359 124.591C42.6055 124.591 42.8446 125.261 42.8446 126.002V127.054C42.9522 126.929 43.057 126.806 43.1594 126.686L43.1613 126.683L43.1628 126.682C44.1731 125.496 44.9444 124.591 45.8338 124.591C46.5273 124.591 46.886 125.021 46.886 125.667C46.886 126.05 46.7665 126.528 46.5034 127.03L44.5186 131.023C45.1164 130.927 45.7382 130.353 46.0969 129.827H46.4556C45.9056 131.262 44.5664 132.266 43.4425 132.266C42.9403 132.266 42.6533 131.74 42.8685 131.309L45.1642 126.886C45.4273 126.384 45.4751 126.05 45.0686 126.05C44.5186 126.05 43.2272 126.958 42.5337 127.795L41.0272 131.764C40.8598 132.17 40.6924 132.266 40.3098 132.266C39.688 132.266 39.3771 131.859 39.6641 131.214L41.1946 127.819ZM39.6384 126.287C39.9015 125.379 39.758 124.566 39.0645 124.566C38.1996 124.566 37.9288 125.137 37.0907 126.904L37.0318 127.028V125.976C37.0318 125.235 36.7927 124.566 36.1231 124.566C35.334 124.566 34.6166 125.785 34.0666 127.005H34.4253C34.8079 126.455 35.1666 126.12 35.4535 126.12C35.7883 126.12 35.9796 126.646 35.4535 127.794L33.9231 131.189C33.6361 131.834 33.947 132.241 34.5687 132.241C34.9514 132.241 35.1188 132.145 35.2862 131.738L36.7927 127.77C37.2232 127.244 37.6058 126.789 38.084 126.287H39.6384ZM32.0823 126.957C32.3214 126.025 31.8671 125.618 31.341 125.618C30.767 125.618 30.0496 126.455 29.667 127.603L32.0823 126.957ZM32.6786 129.539H32.2004C31.6025 130.256 30.9329 130.83 30.2873 130.83C29.6177 130.83 29.2829 130.423 29.2829 129.539C29.2829 129.18 29.3307 128.798 29.4025 128.463L33.3004 127.172C34.0656 125.355 33.1569 124.566 32.0808 124.566C30.2394 124.566 28.135 127.794 28.135 130.376C28.135 131.595 28.709 132.264 29.6177 132.264C30.6699 132.241 31.7699 131.212 32.6786 129.539ZM25.0289 125.666H23.7375V125.068L25.3398 124.853L26.6789 122.821H27.4202L26.7028 124.853H28.592L28.3529 125.666H26.4159L24.5267 130.95C25.3876 130.806 26.5354 129.993 27.0615 129.252H27.4202C26.7507 131.021 25.005 132.264 23.5462 132.264C23.044 132.264 22.781 131.786 22.9723 131.308L25.0289 125.666ZM16.8995 130.042C16.8995 128.296 18.8365 125.953 19.9126 125.953C20.1517 125.953 20.3908 125.977 20.5821 126.049L19.4582 129.061C18.8125 129.85 17.8082 130.807 17.3299 130.807C17.0668 130.807 16.8995 130.568 16.8995 130.042ZM22.2328 124.208L22.8306 124.256L20.7501 129.037C20.248 130.185 20.4632 130.711 20.7501 130.711C21.0371 130.711 21.3958 130.376 21.7784 129.826H22.1371C21.5871 131.046 20.8697 132.265 20.0806 132.265C19.411 132.265 19.0044 131.548 19.124 130.257L19.1718 129.802L19.0416 129.984C18.185 131.182 17.4099 132.265 16.6131 132.265C15.9196 132.265 15.5609 131.835 15.5609 131.189C15.5609 128.416 18.5979 124.877 21.4436 124.877H21.5632L22.2328 124.208ZM16.7551 126.287C17.0181 125.379 16.8746 124.566 16.1812 124.566C15.3163 124.566 15.0455 125.137 14.2074 126.904L14.1485 127.028V125.976C14.1485 125.235 13.9094 124.566 13.2398 124.566C12.4506 124.566 11.7332 125.785 11.1832 127.005H11.5419C11.9245 126.455 12.2832 126.12 12.5463 126.12C12.8811 126.12 13.0724 126.646 12.5463 127.794L11.0158 131.212C10.7288 131.858 11.0397 132.264 11.6615 132.264C12.0441 132.264 12.2115 132.169 12.3789 131.762L13.8854 127.794C14.3159 127.268 14.6985 126.813 15.1768 126.311H16.7551V126.287ZM6.9009 131.546L6.75742 131.976H1.18555L1.32903 131.522C3.05081 131.211 3.33777 131.068 4.05518 129.131L5.60957 124.971C6.30306 123.034 6.15958 122.891 4.65302 122.58L4.7965 122.15H12.0423L11.6119 124.469H11.0858C11.0858 123.082 10.9423 122.723 9.62705 122.723H9.29226C8.00093 122.723 7.83353 122.915 7.47483 123.919L6.44654 126.716H7.9531C8.95747 126.716 9.34009 126.095 9.79445 125.282H10.3205L9.07704 128.677H8.55094C8.67051 127.649 8.67051 127.242 7.73788 127.242H6.23132L5.53782 129.155C4.78818 131.146 5.0024 131.186 6.78749 131.524C6.82461 131.531 6.86241 131.538 6.9009 131.546Z" fill="black"/>    <path fill-rule="evenodd" clip-rule="evenodd" d="M11.6358 103.382L9.41177 104.985V105.009H8.83782L10.1531 103.095H11.6358V103.382ZM27.1823 114.601L30.7455 105.128L30.6259 104.985L28.1628 105.272V105.559L28.641 105.918C29.0494 106.235 28.9413 106.532 28.6025 107.46L28.5454 107.616L25.8192 114.888C25.6039 115.319 25.8909 115.845 26.3931 115.845C27.5171 115.845 28.7128 114.817 29.2628 113.405H28.9041C28.5215 113.932 27.7562 114.506 27.1823 114.601ZM43.5141 107.305L45.7381 105.272V104.985H44.2554L42.9402 107.305H43.5141ZM43.656 113.118H44.1343C43.2495 114.817 42.1494 115.845 41.0972 115.845C40.1884 115.845 39.6145 115.175 39.6145 113.955C39.6145 111.372 41.719 108.142 43.5604 108.142C44.6126 108.142 45.5452 108.932 44.78 110.75L40.858 112.042C40.7863 112.377 40.7385 112.759 40.7385 113.118C40.7385 114.003 41.0733 114.41 41.7429 114.41C42.3886 114.41 43.0582 113.836 43.656 113.118ZM43.5353 110.535C43.7744 109.626 43.3201 109.219 42.794 109.219C42.2439 109.219 41.5265 110.056 41.12 111.181L43.5353 110.535ZM36.5044 109.266H35.2131V108.668L36.8153 108.453L38.1545 106.42H38.8959L38.1784 108.453H40.0677L39.8285 109.266H37.8915L36.0022 114.553C36.8632 114.409 38.011 113.596 38.5372 112.855H38.8959C38.2263 114.625 36.4805 115.869 35.0218 115.869C34.5196 115.869 34.2565 115.39 34.4478 114.912L36.5044 109.266ZM33.8737 108.979C34.0172 108.453 33.6824 108.166 33.3954 108.166C32.2715 108.166 30.9322 109.194 30.3822 110.606H30.7409C31.0996 110.08 31.7214 109.505 32.3193 109.41L30.167 115.031C29.9757 115.558 30.3583 115.845 30.6214 115.845C31.6975 115.845 32.941 114.816 33.4911 113.405H33.1324C32.7736 113.931 32.1519 114.505 31.554 114.601L33.8737 108.979ZM34.9755 105.87C34.9755 106.348 34.569 106.755 34.0907 106.755C33.6124 106.755 33.2059 106.348 33.2059 105.87C33.2059 105.391 33.5885 104.985 34.0907 104.985C34.569 104.985 34.9755 105.391 34.9755 105.87ZM22.9013 109.554C21.8252 109.554 19.8881 111.898 19.8881 113.644C19.8881 114.171 20.0555 114.41 20.3425 114.41C20.7968 114.41 21.8012 113.453 22.4469 112.664L23.5709 109.65C23.3557 109.578 23.1404 109.554 22.9013 109.554ZM25.8194 107.855L25.2216 107.808L24.552 108.477H24.4324C21.5866 108.477 18.5495 112.018 18.5495 114.793C18.5495 115.439 18.9082 115.869 19.6017 115.869C20.3985 115.869 21.1737 114.785 22.0303 113.587L22.1606 113.405L22.1127 113.86C21.9932 115.152 22.3997 115.869 23.0693 115.869C23.8585 115.869 24.5759 114.649 25.1259 113.429H24.7672C24.3846 113.979 24.0259 114.314 23.7389 114.314C23.4519 114.314 23.2367 113.788 23.7389 112.64L25.8194 107.855ZM13.7653 115.606C12.737 116.013 12.0195 116.491 12.0195 117.233C12.0195 117.927 12.6652 118.214 14.0044 118.214C15.798 118.214 16.7785 117.688 16.7785 116.994C16.7785 116.683 16.3719 116.539 15.2958 116.18C14.6023 115.965 14.1001 115.774 13.7653 115.606ZM14.9594 112.664C14.4811 112.664 14.3137 112.257 14.3137 111.827C14.3137 110.439 14.9833 108.717 16.0595 108.717C16.5378 108.717 16.7052 109.123 16.7052 109.554C16.6813 110.965 16.0116 112.664 14.9594 112.664ZM15.8706 114.912C17.1859 115.319 17.9989 115.63 17.9989 116.539C17.9989 117.711 15.8467 119.099 13.24 119.075C11.7334 119.075 10.442 118.668 10.442 117.687C10.442 116.754 11.3029 115.989 13.4074 115.367C13.1204 115.175 13.0009 114.936 13.0009 114.601C13.0009 114.027 13.527 113.573 14.4357 113.142C13.5509 113.022 12.9769 112.353 12.9769 111.372C12.9769 109.865 14.2205 108.142 16.1815 108.142C16.588 108.142 16.9467 108.238 17.2337 108.429H19.386L19.1468 109.243H17.8794C17.9511 109.458 17.9989 109.697 17.9989 109.96C17.9989 111.42 16.8271 113.094 14.9618 113.19C14.4835 113.453 14.2444 113.812 14.2444 114.099C14.2444 114.437 14.6356 114.551 15.5002 114.803C15.6152 114.837 15.7386 114.873 15.8706 114.912ZM8.28811 110.822C9.22077 110.822 9.24468 111.229 9.10119 112.257H9.62731L10.8709 108.86H10.3447C9.89037 109.674 9.50774 110.296 8.50333 110.296H6.4467L7.4511 107.497C7.80982 106.492 7.97722 106.301 9.26859 106.301H10.1773C11.4926 106.301 11.6361 106.659 11.6361 108.047H12.1622L12.5927 105.726H4.79661L4.65313 106.157C6.15973 106.468 6.30322 106.612 5.6097 108.549L4.05527 112.736C3.33784 114.673 3.05087 114.817 1.30512 115.128L1.18555 115.582H9.84254L11.397 113.118H10.7991C9.79471 114.099 8.79031 115.008 6.82933 115.008C4.6724 115.008 4.71083 114.903 5.358 113.124C5.39966 113.01 5.44385 112.888 5.49013 112.76L6.20756 110.846H8.28811V110.822Z" fill="black"/>    <path fill-rule="evenodd" clip-rule="evenodd" d="M15.4313 90.3381C15.9094 90.3381 16.3158 89.9319 16.3158 89.4539C16.3158 88.9759 15.9094 88.5696 15.4313 88.5696C14.9293 88.5696 14.5468 88.9759 14.5468 89.4539C14.5468 89.9558 14.9293 90.3381 15.4313 90.3381ZM22.5099 93.3489C22.5099 92.2017 22.223 91.7715 21.4102 91.7715C20.4062 91.7715 19.4739 92.847 18.5416 94.1376L20.5496 88.7601L20.4301 88.5929L17.9678 88.8796V89.1664L18.4459 89.5249C18.8622 89.8486 18.7416 90.1723 18.3869 91.1235L18.3503 91.2218L16.1749 96.9099C15.9837 97.3879 15.7685 97.9615 15.7685 98.1049C15.7685 98.7741 16.6769 99.4194 17.5136 99.4194C19.3783 99.4433 22.5099 96.0017 22.5099 93.3489ZM43.236 90.9111L45.4592 88.8796V88.5929H43.977L42.6622 90.9111H43.236ZM43.3799 96.7187H43.858C42.9496 98.4156 41.85 99.4433 40.7981 99.4194C39.8897 99.4194 39.316 98.7741 39.316 97.5552C39.316 94.9741 41.4197 91.7476 43.2604 91.7476C44.3122 91.7476 45.2446 92.5363 44.4796 94.3527L40.583 95.6433C40.5113 95.9779 40.4635 96.3602 40.4635 96.7187C40.4635 97.603 40.7981 98.0093 41.4675 98.0093C42.1129 98.0093 42.7823 97.4357 43.3799 96.7187ZM43.2581 94.1377C43.4972 93.2295 43.0429 92.8232 42.517 92.8232C41.9433 92.8232 41.2261 93.6597 40.8436 94.783L43.2581 94.1377ZM36.2033 92.8723H34.9124V92.2749L36.5141 92.0598L37.8528 90.0283H38.5939L37.8767 92.0598H39.7652L39.5262 92.8723H37.5898L35.7013 98.1541C36.5619 98.0107 37.7093 97.1982 38.2353 96.4573H38.5939C37.9245 98.2258 36.1794 99.4686 34.7212 99.4686C34.2191 99.4686 33.9562 98.9906 34.1474 98.5126L36.2033 92.8723ZM34.2476 93.4937C34.5105 92.5855 34.3671 91.7729 33.6738 91.7729C32.8093 91.7729 32.5385 92.3438 31.7007 94.1105L31.6419 94.2346V93.183C31.6419 92.4421 31.4028 91.7729 30.7335 91.7729C29.9446 91.7729 29.2274 92.9918 28.6776 94.2107H29.0362C29.4187 93.661 29.7772 93.3264 30.0402 93.3264C30.3749 93.3264 30.5661 93.8522 30.0402 94.9994L28.5103 98.3931C28.2234 99.0384 28.5342 99.4447 29.1557 99.4447C29.5382 99.4447 29.7055 99.3491 29.8729 98.9428L31.3789 94.9755C31.8092 94.4497 32.1917 93.9956 32.6698 93.4937H34.2476ZM26.6701 94.1377C26.9091 93.2295 26.4549 92.8232 25.929 92.8232C25.3553 92.8232 24.662 93.6597 24.2556 94.783L26.6701 94.1377ZM27.2662 96.7187H26.7881C26.1905 97.4357 25.5211 98.0093 24.8757 98.0093C24.2063 98.0093 23.8717 97.603 23.8717 96.7187C23.8717 96.3602 23.9195 95.9779 23.9912 95.6433L27.8878 94.3527C28.6528 92.5363 27.7443 91.7476 26.6686 91.7476C24.8279 91.7476 22.7242 94.9741 22.7242 97.5552C22.7242 98.7741 23.2979 99.4194 24.2063 99.4194C25.2582 99.4433 26.3578 98.4156 27.2662 96.7187ZM17.2277 97.6278C17.2277 97.9385 17.7775 98.297 18.16 98.297C19.7139 98.297 21.1721 95.5007 21.1482 93.9472C21.1482 93.4214 20.8852 93.2063 20.5267 93.2063C19.9529 93.2063 18.9011 94.0667 18.2317 94.8793L17.6102 96.5523C17.395 97.102 17.2277 97.5322 17.2277 97.6278ZM14.7181 91.7729C15.0049 91.7729 15.3396 92.0597 15.1962 92.5855L12.9012 98.2019C13.4989 98.1063 14.1204 97.5327 14.479 97.0069H14.8376C14.2878 98.417 13.0447 99.4447 11.9689 99.4447C11.6821 99.4447 11.2996 99.1579 11.4908 98.6321L13.6423 93.0157C13.0447 93.1113 12.4231 93.6849 12.0645 94.2107H11.706C12.2558 92.8006 13.5945 91.7729 14.7181 91.7729ZM4.79528 89.2873H9.93496L9.79153 89.7414C8.04643 90.0521 7.75956 90.1955 7.0424 92.1313L5.51244 96.3376C4.77137 98.3452 4.96262 98.5842 6.27742 98.5842C7.90184 98.5842 8.967 97.4038 9.89708 96.3731C9.96617 96.2966 10.0345 96.2208 10.1023 96.1464H10.6999L9.00265 99.1578H1.18555L1.32898 98.7276C3.05018 98.4169 3.33704 98.2735 4.05421 96.3376L5.60807 92.1074C6.30133 90.1716 6.15789 90.0282 4.65185 89.7175L4.79528 89.2873Z" fill="black"/></svg>