<svg width="172" height="88" viewBox="0 0 172 88" fill="none" xmlns="http://www.w3.org/2000/svg">    <path d="M48.1356 82.9829C48.5424 82.9829 48.8814 83.2541 48.678 83.9999L46.8475 84.4067C47.1864 83.6609 47.7288 82.9829 48.1356 82.9829ZM49.1525 85.966H48.8136C48.339 86.5084 47.8644 86.9151 47.3898 86.9151C46.9153 86.9151 46.6441 86.6439 46.6441 85.966C46.6441 85.6948 46.6441 85.4236 46.7119 85.1524L49.6271 84.2033C50.1695 82.8473 49.4915 82.2372 48.678 82.2372C47.322 82.2372 45.6949 84.5423 45.6949 86.5762C45.6949 87.4575 46.1017 87.9999 46.7797 87.9999C47.661 87.9999 48.4746 87.1863 49.1525 85.966ZM48.6102 81.6948L50.6441 79.7965V79.5931H49.5593L48.2712 81.7626H48.6102V81.6948ZM42.3051 83.0507H43.2542L41.6949 87.2541C41.5593 87.5931 41.7627 87.9999 42.1017 87.9999C42.983 87.9999 44.4068 87.1185 44.8814 85.966H44.6102C44.2034 86.3728 43.4576 86.9151 42.8475 87.0507L44.2712 83.1185H45.6949L45.8983 82.5084H44.4746L45.0169 81.0168H44.4746L43.4576 82.5084L42.2373 82.644V83.0507H42.3051ZM40.9492 82.8473C41.0847 82.4406 40.8136 82.2372 40.6102 82.2372C39.7966 82.2372 38.7797 82.9829 38.3729 84.0677H38.6441C38.9153 83.6609 39.3898 83.2541 39.7966 83.1863L38.1695 87.3897C38.0339 87.7965 38.3051 87.9999 38.5085 87.9999C39.322 87.9999 40.2712 87.2541 40.678 86.1694H40.4068C40.1356 86.5762 39.661 86.9829 39.2542 87.0507L40.9492 82.8473ZM41.2881 80.7456C41.6949 80.7456 41.9661 80.4067 41.9661 80.0677C41.9661 79.6609 41.6271 79.3897 41.2881 79.3897C40.8814 79.3897 40.6102 79.7287 40.6102 80.0677C40.5424 80.4067 40.8814 80.7456 41.2881 80.7456ZM31.9322 87.1863C31.7288 87.6609 31.9322 87.9999 32.4068 87.9999C32.678 87.9999 32.8136 87.9321 32.9492 87.5931L34.1017 84.6101C34.6441 83.9999 35.661 83.3219 36.1356 83.3219C36.4746 83.3219 36.4068 83.5931 36.2034 83.9321L34.5085 87.2541C34.3729 87.5931 34.5763 87.9999 34.9153 87.9999C35.7288 87.9999 36.7458 87.2541 37.1525 86.1694H36.8814C36.6102 86.5762 36.1356 86.9829 35.7288 87.0507L37.2203 84.0677C37.4237 83.6609 37.4915 83.3219 37.4915 83.0507C37.4915 82.5761 37.2203 82.2372 36.678 82.2372C35.9322 82.2372 35.1864 83.0507 34.3051 84.0677V83.2541C34.3051 82.7117 34.1017 82.1694 33.6271 82.1694C33.2881 82.1694 33.0169 82.4406 32.7458 82.8473V82.9829C33.2881 82.9829 33.5593 83.7965 33.1525 84.6101L31.9322 87.1863ZM31.9322 83.5253C32.1356 82.8473 32 82.2372 31.5254 82.2372C30.9153 82.2372 30.7119 82.7117 30.1017 84.0677V83.2541C30.1017 82.7117 29.8983 82.1694 29.4237 82.1694C28.8136 82.1694 28.2712 83.1185 27.8644 83.9999H28.1356C28.4068 83.5931 28.678 83.3219 28.8814 83.3219C29.1525 83.3219 29.2881 83.7287 28.8814 84.6101L27.7288 87.1185C27.5254 87.5931 27.7288 87.9321 28.2034 87.9321C28.4746 87.9321 28.6102 87.8643 28.7458 87.5253L29.8983 84.5423C30.2373 84.1355 30.5085 83.7965 30.8475 83.4575H31.9322V83.5253ZM25.4237 82.9829C25.8305 82.9829 26.1695 83.2541 25.9661 83.9999L24.1356 84.4067C24.4746 83.6609 25.0169 82.9829 25.4237 82.9829ZM26.4407 85.966H26.1017C25.6271 86.5084 25.1525 86.9151 24.678 86.9151C24.2034 86.9151 23.9322 86.6439 23.9322 85.966C23.9322 85.6948 23.9322 85.4236 24 85.1524L26.9153 84.2033C27.4576 82.8473 26.7797 82.2372 25.9661 82.2372C24.6102 82.2372 22.9831 84.5423 22.9831 86.5762C22.9831 87.4575 23.3898 87.9999 24.0678 87.9999C24.9492 87.9999 25.7627 87.1863 26.4407 85.966ZM19.5254 83.0507H20.4746L18.9153 87.2541C18.7797 87.5931 18.983 87.9999 19.322 87.9999C20.2034 87.9999 21.6271 87.1185 22.1017 85.966H21.8305C21.4237 86.3728 20.678 86.9151 20.0678 87.0507L21.4915 83.1185H22.9153L23.1186 82.5084H21.6949L22.2373 81.0168H21.6949L20.678 82.5084L19.4576 82.644V83.0507H19.5254ZM14.2373 86.305C14.2373 85.0168 15.661 83.2541 16.4746 83.2541C16.678 83.2541 16.8136 83.2541 16.9492 83.3219L16.1356 85.5592C15.661 86.1694 14.9153 86.8473 14.5763 86.8473C14.3729 86.9151 14.2373 86.7117 14.2373 86.305ZM18.6441 81.966H18.1695L17.6949 82.4406H17.5593C15.1186 82.4406 13.0847 85.1524 13.0847 87.1185C13.0847 87.6609 13.4237 87.9999 13.9661 87.9999C14.5763 87.9999 15.1864 87.1185 15.8644 86.1694V86.5084C15.7966 87.4575 16.0678 87.9999 16.6102 87.9999C17.2203 87.9999 17.7627 87.0507 18.1695 86.1694H17.8983C17.6271 86.5762 17.3559 86.8473 17.1525 86.8473C16.9492 86.8473 16.7458 86.4406 17.1525 85.5592L18.6441 81.966ZM13.5593 83.5253C13.7627 82.8473 13.6271 82.2372 13.1525 82.2372C12.5424 82.2372 12.339 82.7117 11.7288 84.0677V83.2541C11.7288 82.7117 11.5254 82.1694 11.0508 82.1694C10.4407 82.1694 9.8983 83.1185 9.49152 83.9999H9.76271C10.0339 83.5931 10.3051 83.3219 10.5085 83.3219C10.7797 83.3219 10.9153 83.7287 10.5085 84.6101L9.35593 87.1185C9.15254 87.5931 9.35593 87.9321 9.83051 87.9321C10.1017 87.9321 10.2373 87.8643 10.3729 87.5253L11.5254 84.5423C11.8644 84.1355 12.1356 83.7965 12.4746 83.4575H13.5593V83.5253ZM5.42373 87.7965L5.55932 87.4575C4.13559 87.1863 4 87.1863 4.54237 85.6948L5.08475 84.1355H6.64407C7.32203 84.1355 7.32203 84.4067 7.25424 85.1524H7.66102L8.61017 82.5762H8.20339C7.86441 83.1863 7.59322 83.5931 6.84746 83.5931H5.28813L6.10169 81.3558C6.37288 80.6778 6.50847 80.4745 7.45763 80.4745H8.13559C9.08475 80.4745 9.22034 80.7456 9.22034 81.7626H9.62712L9.9661 79.9999H4.13559L4 80.3389C5.15254 80.5423 5.22034 80.6778 4.67797 82.1016L3.38983 85.5592C2.84746 86.9829 2.64407 87.1185 1.35593 87.3219L1.28814 87.6609H5.42373V87.7965ZM34.0339 69.8304C34.4407 69.8304 34.7797 70.1016 34.5763 70.8473L32.7458 71.2541C33.0847 70.4406 33.6271 69.8304 34.0339 69.8304ZM35.0508 72.7456H34.7119C34.2373 73.288 33.7627 73.6948 33.2881 73.6948C32.8136 73.6948 32.5424 73.4236 32.5424 72.7456C32.5424 72.4745 32.5424 72.2033 32.6102 71.9321L35.5254 70.9829C36.0678 69.627 35.3898 69.0168 34.5763 69.0168C33.2203 69.0168 31.5932 71.3219 31.5932 73.3558C31.5932 74.2372 32 74.7795 32.678 74.7795C33.5593 74.7795 34.3729 74.0338 35.0508 72.7456ZM34.4407 68.4745L36.4746 66.5762V66.3728H35.3898L34.1017 68.5423H34.4407V68.4745ZM28.1356 69.8304H29.0847L27.5254 74.0338C27.3898 74.3728 27.5932 74.7795 27.9322 74.7795C28.8136 74.7795 30.2373 73.8982 30.7119 72.7456H30.4407C30.0339 73.1524 29.2881 73.6948 28.678 73.8304L30.1017 69.8982H31.5254L31.7288 69.288H30.3051L30.8475 67.7965H30.3051L29.2881 69.288L28.0678 69.4236V69.8304H28.1356ZM26.8475 69.627C26.983 69.2202 26.7119 69.0168 26.5085 69.0168C25.6949 69.0168 24.678 69.7626 24.2712 70.8473H24.5424C24.8136 70.4406 25.2881 70.0338 25.6949 69.966L24.0678 74.1694C23.9322 74.5762 24.2034 74.7795 24.4068 74.7795C25.2203 74.7795 26.1695 74.0338 26.5763 72.949H26.3051C26.0339 73.3558 25.5593 73.7626 25.1525 73.8304L26.8475 69.627ZM27.1186 67.5253C27.5254 67.5253 27.7966 67.1863 27.7966 66.8473C27.7966 66.4406 27.4576 66.1694 27.1186 66.1694C26.7119 66.1694 26.4407 66.5084 26.4407 66.8473C26.4407 67.2541 26.7119 67.5253 27.1186 67.5253ZM21.4915 73.8304L24.4068 66.1016L24.339 65.966L22.5085 66.1694V66.3728L22.8475 66.6439C23.1864 66.9151 23.0508 67.1185 22.7797 67.9321L20.4746 73.966C20.339 74.305 20.5424 74.7118 20.8814 74.7118C21.6949 74.7118 22.6441 73.966 23.0508 72.8812H22.7797C22.5085 73.3558 21.8983 73.7626 21.4915 73.8304ZM15.9322 73.1524C15.9322 71.8643 17.3559 70.1016 18.1695 70.1016C18.3729 70.1016 18.5085 70.1016 18.6441 70.1694L17.8305 72.4067C17.3559 73.0168 16.6102 73.6948 16.2712 73.6948C16 73.6948 15.9322 73.4914 15.9322 73.1524ZM20.339 68.8134H19.8644L19.3898 69.288H19.322C16.8814 69.288 14.8475 71.9999 14.8475 73.966C14.8475 74.5084 15.1864 74.8473 15.7288 74.8473C16.339 74.8473 16.9492 73.966 17.6271 73.0168V73.3558C17.5593 74.305 17.8305 74.8473 18.3729 74.8473C18.983 74.8473 19.5254 73.8982 19.9322 73.0168H19.661C19.3898 73.4236 19.1186 73.6948 18.9153 73.6948C18.7119 73.6948 18.5085 73.288 18.9153 72.4067L20.339 68.8134ZM9.62712 75.7965C9.62712 75.2541 10.1695 74.9151 10.9153 74.5761C11.1864 74.7117 11.5254 74.8473 12.0678 74.9829C12.8814 75.2541 13.1525 75.3219 13.1525 75.5931C13.1525 76.1355 12.2712 76.4745 11.0508 76.4745C10.1017 76.5423 9.62712 76.3389 9.62712 75.7965ZM11.7966 72.4067C11.4576 72.4067 11.322 72.1355 11.322 71.7965C11.322 70.8473 11.7966 69.4914 12.6102 69.4914C12.9492 69.4914 13.0847 69.7626 13.0847 70.1016C13.0847 70.9829 12.5424 72.4067 11.7966 72.4067ZM14.1017 75.2541C14.1017 74.5761 13.4915 74.305 12.5424 74.0338C11.7288 73.7626 11.322 73.6948 11.322 73.4236C11.322 73.2202 11.5254 72.949 11.8644 72.7456C13.2203 72.6778 14.1695 71.4575 14.1695 70.3728C14.1695 70.1694 14.1017 69.966 14.0339 69.7626H15.1864L15.3898 69.1524H13.5593C13.3559 69.0168 13.0847 68.949 12.8136 68.949C11.322 68.949 10.3729 70.2372 10.3729 71.2541C10.3729 72.0677 10.8475 72.5423 11.5254 72.6779C10.8475 73.0168 10.4407 73.3558 10.4407 73.7626C10.4407 74.0338 10.5085 74.1694 10.7119 74.305C9.15254 74.7795 8.47458 75.3219 8.47458 76.0677C8.47458 76.8134 9.42373 77.0846 10.5763 77.0846C12.4746 77.2202 14.1017 76.1355 14.1017 75.2541ZM6.71186 70.7795C7.38983 70.7795 7.38983 71.0507 7.32203 71.7965H7.72881L8.67797 69.2202H8.27119C7.9322 69.8304 7.66102 70.2372 6.91525 70.2372H5.35593L6.10169 68.1355C6.37288 67.4575 6.50847 67.3219 7.45763 67.3219H8.13559C9.08475 67.3219 9.22034 67.5931 9.22034 68.5423H9.62712L9.9661 66.7795H4.13559L4 67.1185C5.15254 67.3219 5.22034 67.4575 4.67797 68.8812L3.38983 72.3389C2.84746 73.7626 2.64407 73.8982 1.35593 74.1016L1.28814 74.4406H7.79661L8.94915 72.6101H8.47458C7.72881 73.288 6.77966 73.966 5.49152 73.966C3.79661 73.966 3.9322 73.8982 4.47458 72.3389L5.08475 70.644H6.71186V70.7795ZM7.52542 66.305L9.55932 64.8812V64.6779H8.33898L7.18644 66.305H7.52542ZM33.3559 56.6101C33.7627 56.6101 34.1017 56.8812 33.8983 57.627L32.0678 58.0338C32.4068 57.2202 32.8814 56.6101 33.3559 56.6101ZM34.3729 59.5253H34.0339C33.5593 60.0677 33.0847 60.4745 32.6102 60.4745C32.1356 60.4745 31.8644 60.2033 31.8644 59.5253C31.8644 59.2541 31.8644 58.9829 31.9322 58.7117L34.8475 57.7626C35.3898 56.4067 34.7119 55.7965 33.8983 55.7965C32.5424 55.7965 30.9153 58.1016 30.9153 60.1355C30.9153 61.0168 31.322 61.5592 32 61.5592C32.8136 61.5592 33.6949 60.8134 34.3729 59.5253ZM33.7627 55.3219L35.7966 53.4236V53.2202H34.7119L33.4237 55.3897H33.7627V55.3219ZM27.7288 56.6101H28.4746L26.9153 60.8134C26.7797 61.1524 26.9831 61.5592 27.322 61.5592C28.2034 61.5592 29.6271 60.6778 30.1017 59.5253H29.8305C29.4237 59.9321 28.678 60.4745 28.0678 60.6101L29.4915 56.6779H30.9153L31.1186 56.0677H29.6949L30.2373 54.5762H29.6949L28.678 56.0677L27.661 56.2033V56.6101H27.7288ZM26.9153 57.0846C27.1186 56.4067 26.983 55.7965 26.5085 55.7965C25.8983 55.7965 25.6949 56.2711 25.0847 57.627V56.8134C25.0847 56.2711 24.8814 55.7287 24.4068 55.7287C23.7966 55.7287 23.2542 56.6779 22.8475 57.5592H23.1186C23.3898 57.1524 23.661 56.8812 23.8644 56.8812C24.1356 56.8812 24.2712 57.288 23.8644 58.1694L22.7119 60.6779C22.5085 61.1524 22.7119 61.4914 23.1864 61.4914C23.4576 61.4914 23.5932 61.4236 23.7288 61.0846L24.8814 58.1016C25.2203 57.6948 25.4915 57.3558 25.8305 57.0168H26.9153V57.0846ZM20.4746 56.6101C20.8814 56.6101 21.2203 56.8812 21.0169 57.627L19.1864 58.0338C19.5254 57.2202 20.0678 56.6101 20.4746 56.6101ZM21.4915 59.5253H21.1525C20.678 60.0677 20.2034 60.4745 19.7288 60.4745C19.2542 60.4745 18.983 60.2033 18.983 59.5253C18.983 59.2541 18.983 58.9829 19.0508 58.7117L21.9661 57.7626C22.5085 56.4067 21.8305 55.7965 21.0169 55.7965C19.661 55.7965 18.0339 58.1016 18.0339 60.1355C18.0339 61.0168 18.4407 61.5592 19.1186 61.5592C20 61.5592 20.8136 60.8134 21.4915 59.5253ZM14.3051 60.7456C14.0339 60.7456 13.6271 60.4745 13.6271 60.2711C13.6271 60.2033 13.7627 59.8643 13.8983 59.4575L14.3729 58.1694C14.8475 57.5592 15.661 56.949 16.0678 56.949C16.339 56.949 16.5424 57.0846 16.5424 57.4914C16.5424 58.6439 15.4576 60.7456 14.3051 60.7456ZM17.6271 57.0168C17.6271 56.1355 17.2881 55.8643 16.7458 55.8643C16 55.8643 15.322 56.6779 14.6441 57.627L16.4068 53.0168L16.339 52.8812L14.5085 53.0846V53.288L14.8475 53.5592C15.1864 53.8304 15.0508 54.1016 14.7797 54.8473L12.8814 59.7287C12.7458 60.0677 12.5424 60.5423 12.5424 60.6101C12.5424 61.0846 13.2203 61.5592 13.8305 61.5592C15.2542 61.5592 17.6271 58.9829 17.6271 57.0168ZM11.8644 56.4067C12 55.9999 11.7288 55.7965 11.5254 55.7965C10.7119 55.7965 9.69491 56.5423 9.28814 57.627H9.55932C9.83051 57.2202 10.3051 56.8134 10.7119 56.7456L9.08475 60.949C8.94915 61.3558 9.22034 61.5592 9.42373 61.5592C10.2373 61.5592 11.1864 60.8134 11.5932 59.7287H11.322C11.0508 60.1355 10.5763 60.5423 10.1695 60.6101L11.8644 56.4067ZM12.2034 54.305C12.6102 54.305 12.8814 53.966 12.8814 53.627C12.8814 53.2202 12.5424 52.949 12.2034 52.949C11.7966 52.949 11.5254 53.288 11.5254 53.627C11.4576 54.0338 11.7966 54.305 12.2034 54.305ZM7.9322 53.627H4.0678L3.9322 53.966C5.08474 54.1694 5.15254 54.305 4.61017 55.7287L3.38983 59.1863C2.84746 60.6101 2.64407 60.7456 1.35593 60.949L1.28814 61.288H7.11864L8.40678 59.0507H7.9322C7.18644 59.8643 6.37288 60.8134 5.08475 60.8134C4.13559 60.8134 4 60.6778 4.54237 59.1863L5.76271 55.7287C6.30508 54.305 6.50847 54.1694 7.79661 53.966L7.9322 53.627ZM7.72881 40.5423C8.40678 40.5423 9.01695 40.4067 9.55932 40.2033C10.1017 39.9999 10.5763 39.6609 10.9831 39.3219V36.949H7.38983V34.3728H13.7627V40.3389C13.0847 41.2202 12.2712 41.8982 11.1864 42.4406C10.1017 42.9829 8.94915 43.2541 7.66102 43.2541C6.50847 43.2541 5.49153 43.0507 4.54237 42.644C3.59322 42.2372 2.77966 41.6948 2.10169 41.0168C1.42373 40.3389 0.881355 39.5931 0.542372 38.644C0.135593 37.7626 0 36.8134 0 35.7965C0 34.7795 0.203389 33.8304 0.542372 32.949C0.881355 32.0677 1.42373 31.2541 2.0339 30.5762C2.71186 29.8982 3.45763 29.3558 4.40678 28.949C5.35593 28.5423 6.30508 28.3389 7.45763 28.3389C8.74576 28.3389 9.83051 28.6101 10.8475 29.1524C11.8644 29.6948 12.678 30.3728 13.3559 31.1863L11.1864 32.949C10.7797 32.4067 10.3051 31.9321 9.62712 31.5253C8.94915 31.1185 8.27118 30.9829 7.52542 30.9829C6.84746 30.9829 6.23729 31.1185 5.69492 31.3219C5.15254 31.5931 4.67797 31.9321 4.27119 32.3389C3.86441 32.7456 3.59322 33.288 3.32203 33.8304C3.11864 34.4406 2.98305 35.0507 2.98305 35.7287C2.98305 36.4067 3.11864 37.0168 3.32203 37.627C3.52542 38.2372 3.86441 38.7117 4.27119 39.1185C4.67797 39.5253 5.22034 39.8643 5.76271 40.1355C6.44068 40.4067 7.05085 40.5423 7.72881 40.5423ZM23.3898 28.4067C24.4746 28.4067 25.4915 28.6101 26.3729 29.0168C27.2542 29.4236 28.0678 29.966 28.7458 30.644C29.4237 31.3219 29.8983 32.0677 30.2373 33.0168C30.5763 33.8982 30.7797 34.8473 30.7797 35.8643C30.7797 36.8812 30.5763 37.8304 30.2373 38.7118C29.8983 39.5931 29.3559 40.4067 28.7458 41.0846C28.0678 41.7626 27.322 42.305 26.3729 42.7118C25.4237 43.1185 24.4746 43.3219 23.3898 43.3219C22.3051 43.3219 21.2881 43.1185 20.339 42.7118C19.3898 42.305 18.6441 41.7626 17.9661 41.0846C17.2881 40.4067 16.8136 39.6609 16.4746 38.7118C16.1356 37.8304 15.9322 36.8812 15.9322 35.8643C15.9322 34.8473 16.1356 33.8982 16.4746 33.0168C16.8136 32.1355 17.3559 31.3219 17.9661 30.644C18.6441 29.966 19.3898 29.4236 20.339 29.0168C21.2881 28.6101 22.3051 28.4067 23.3898 28.4067ZM23.3898 40.5423C24.0678 40.5423 24.678 40.4067 25.2203 40.2033C25.7627 39.9321 26.2373 39.5931 26.6441 39.1863C27.0508 38.7795 27.322 38.2372 27.5932 37.6948C27.8644 37.1524 27.9322 36.4745 27.9322 35.7965C27.9322 35.1185 27.7966 34.5084 27.5932 33.8982C27.3898 33.288 27.0508 32.8134 26.6441 32.4067C26.2373 31.9999 25.7627 31.6609 25.2203 31.3897C24.678 31.1185 24.0678 31.0507 23.3898 31.0507C22.7119 31.0507 22.1017 31.1863 21.5593 31.3897C21.0169 31.6609 20.5424 31.9999 20.1356 32.4067C19.7288 32.8134 19.4576 33.3558 19.1864 33.8982C18.983 34.5084 18.8475 35.1185 18.8475 35.7965C18.8475 36.4745 18.983 37.0846 19.1864 37.6948C19.3898 38.305 19.7288 38.7795 20.1356 39.1863C20.5424 39.5931 21.0169 39.9321 21.5593 40.2033C22.1017 40.4067 22.7119 40.5423 23.3898 40.5423ZM41.7627 37.5592V28.8134H44.6102V37.3558C44.6102 39.1863 44.0678 40.6101 43.0508 41.6948C42.0339 42.7118 40.678 43.2541 38.9153 43.2541C37.1525 43.2541 35.7966 42.7118 34.7797 41.6948C33.7627 40.6779 33.2881 39.1863 33.2881 37.3558V28.8134H36.1356V37.5592C36.1356 38.5084 36.4068 39.2541 36.8814 39.7287C37.3559 40.2711 38.1017 40.5423 38.983 40.5423C39.8644 40.5423 40.5424 40.2711 41.0169 39.7287C41.5593 39.2541 41.7627 38.5084 41.7627 37.5592ZM46.3729 28.8134H49.4237L53.5593 39.7287L57.6949 28.8134H60.7458L55.4576 42.8473H51.7288L46.3729 28.8134ZM62.8475 42.7795V28.8134H70.983V31.2541H65.6949V34.5084H70.2373V36.949H65.6949V40.4067H70.983V42.8473H62.8475V42.7795ZM74.3051 42.7795V28.8134H78.5763C80.1356 28.8134 81.3559 29.2202 82.2373 29.966C83.1186 30.7117 83.5932 31.7287 83.5932 33.0168C83.5932 33.8304 83.3898 34.5762 82.983 35.1863C82.5763 35.7965 82.0339 36.2711 81.3559 36.6101L85.7627 42.7795H82.3729L78.6441 37.1524H77.1525V42.7795H74.3051ZM78.7797 31.1863H77.1525V34.7117H78.7797C79.3898 34.7117 79.8644 34.5762 80.2034 34.2372C80.5424 33.8982 80.678 33.4914 80.678 32.949C80.678 32.4067 80.5424 31.9999 80.2034 31.6609C79.7966 31.3897 79.3898 31.1863 78.7797 31.1863ZM87.5254 42.7795V28.8134H91.1864L97.4237 38.8473V28.8134H100.271V42.8473H96.6102L90.3729 32.8134V42.8473H87.5254V42.7795ZM104.136 42.7795V28.8134H112.271V31.2541H106.983V34.5084H111.525V36.949H106.983V40.4067H112.271V42.8473H104.136V42.7795ZM115.593 42.7795V28.8134H119.186L122.576 34.5762L125.966 28.8134H129.559V42.8473H126.712V32.8134L123.593 37.966H121.559L118.441 32.8134V42.7795H115.593ZM133.424 42.7795V28.8134H141.559V31.2541H136.271V34.5084H140.814V36.949H136.271V40.4067H141.559V42.8473H133.424V42.7795ZM144.881 42.7795V28.8134H148.542L154.78 38.8473V28.8134H157.627V42.8473H153.966L147.729 32.8134V42.8473H144.881V42.7795ZM160.136 31.3897V28.8134H171.593V31.3897H167.254V42.7795H164.407V31.3897H160.136Z" fill="black"/>    <path d="M23.1186 16.9492C23.322 16.7458 23.5253 16.5424 23.7287 16.2712C24.1355 15.8644 24.4745 15.3898 24.9491 15.0508C25.0847 14.9153 25.2203 14.8475 25.3559 14.7119C25.4237 14.6441 25.4237 14.5763 25.4237 14.5763C25.2203 14.6441 25.1525 14.7797 24.9491 14.8475C24.8813 14.8475 24.8813 14.7797 24.8813 14.7797C25.0169 14.7119 25.1525 14.5763 25.2881 14.5085C25.2203 14.5085 25.2203 14.4407 25.2203 14.4407C24.7457 14.3729 24.4067 14.7119 24.0677 14.9831C23.9999 15.0508 23.9321 14.9153 23.8643 14.9153C23.322 15.1186 22.9152 15.5932 22.3728 15.7966V15.7288C22.1694 15.7966 21.966 15.9322 21.6948 16C21.3559 16.0678 21.0847 16.0678 20.8135 16.0678C20.4067 16.1356 19.9321 16.2034 19.5253 16.2712H19.4576C19.2542 16.339 18.983 16.4068 18.7796 16.5424C18.5762 16.678 18.7118 16.6102 18.7118 16.6102C18.644 16.678 18.5762 16.7458 18.4406 16.8136C18.2372 16.9492 18.0338 17.1525 17.8304 17.2881H17.7626C17.5592 17.4915 17.3559 17.6949 17.1525 17.8305H17.0169C16.9491 17.8305 17.0169 17.8305 17.0169 17.7627C17.0169 17.6949 17.0847 17.6271 17.0847 17.6271C17.1525 17.5593 17.1525 17.4915 17.2203 17.4915C17.2881 17.4237 17.2881 17.3559 17.3559 17.2881V17.2203H17.2881C17.4915 17.0169 17.6948 16.8814 17.8982 16.7458C18.1016 16.6102 17.8304 16.7458 17.8304 16.678L17.8982 16.6102C17.8304 16.678 17.7626 16.678 17.6948 16.7458C17.627 16.8136 17.5592 17.017 17.4237 16.9492H17.3559H17.2881C17.2203 16.9492 17.2881 16.9492 17.2881 16.8814C17.2881 16.8136 17.2881 16.8136 17.3559 16.8136V16.7458C17.3559 16.7458 17.3559 16.678 17.4237 16.678V16.6102C17.4915 16.5424 17.5592 16.4746 17.6948 16.4068L18.1016 16.2034L18.1694 16.1356C17.966 16.2034 17.7626 16.2712 17.5592 16.4068H17.4237L17.627 16.2034C17.6948 16.2034 17.6948 16.2034 17.6948 16.2712C18.8474 15.3898 20.4745 15.5932 21.8304 15.1186C21.966 15.0508 22.0338 14.9831 22.1694 14.9153C22.3728 14.8475 22.5084 14.6441 22.7118 14.5763C22.983 14.3729 23.1864 14.1017 23.322 13.7627C23.322 13.6949 23.2542 13.6949 23.2542 13.6949C22.7796 14.2373 22.2372 14.5763 21.627 14.9153C20.8813 15.322 19.9999 15.2542 19.2542 15.322C19.322 15.2542 19.3898 15.2542 19.4576 15.2542C19.4576 15.1186 19.5254 15.1186 19.5931 15.0508H19.9999C20.0677 15.0508 20.0677 14.9831 20.0677 14.9831C20.1355 14.9831 20.2711 14.9153 20.2033 14.9153C20.0677 14.7797 19.8643 15.0508 19.6609 14.9153C19.7287 14.8475 19.7287 14.7119 19.7965 14.7119H19.9321C19.9321 14.6441 19.9999 14.5763 19.9999 14.5763C20.5423 14.2373 21.0847 13.9661 21.5592 13.6949C21.4237 13.6949 21.3559 13.8305 21.2881 13.7627C21.3559 13.7627 21.2881 13.6271 21.3559 13.6271C21.7626 13.4915 22.1016 13.2881 22.5084 13.1525C22.3728 13.1525 22.2372 13.2881 22.1016 13.1525C22.1694 13.0847 22.2372 13.0169 22.305 13.0169V12.8814C22.305 12.8136 22.3728 12.8136 22.3728 12.8136C22.305 12.8136 22.305 12.7458 22.305 12.7458C22.3728 12.678 22.4406 12.678 22.5084 12.6102C22.4406 12.6102 22.3728 12.6102 22.3728 12.5424C22.5084 12.4068 22.644 12.339 22.8474 12.339C22.7796 12.2712 22.7118 12.339 22.7118 12.2712C22.7118 12.2034 22.7796 12.2034 22.7796 12.2034H22.7118C22.644 12.1356 22.644 12.0678 22.644 12.0678C22.8474 11.7966 22.8474 11.4576 22.983 11.1864C22.9152 11.1864 22.9152 11.1864 22.9152 11.1186C22.5762 11.5254 21.966 11.661 21.4237 11.7966H21.2203C21.0169 11.8644 20.8135 11.8644 20.6101 11.7288C20.4745 11.661 20.4067 11.5254 20.2711 11.4576C19.9999 11.2542 19.6609 11.1186 19.3898 11.0508C18.5084 10.7797 17.5592 10.6441 16.6101 10.6441C17.0169 10.4407 17.4237 10.4407 17.8982 10.3051C18.5084 10.1017 19.1186 9.8983 19.7287 9.9661C19.5931 9.8983 19.4576 9.9661 19.3898 9.9661C18.8474 9.8983 18.3728 10.1017 17.8304 10.1695C17.4915 10.2373 17.1525 10.3729 16.7457 10.4407C16.5423 10.5085 16.4067 10.7119 16.1355 10.7119V10.5763C16.4745 10.1695 16.9491 9.69492 17.4915 9.69492C18.1694 9.55932 18.7796 9.69491 19.3898 9.76271C19.8643 9.83051 20.2711 9.89831 20.7457 10.0339C20.9491 10.0339 20.9491 10.3051 21.0847 10.3729C21.2881 10.4407 21.4915 10.3729 21.7626 10.5085C21.7626 10.4407 21.6948 10.3729 21.7626 10.3051C21.8982 10.1695 22.1016 10.3729 22.2372 10.2373C22.5084 10.0339 21.966 9.76271 21.8304 9.49153C21.8304 9.42373 21.8982 9.42373 21.8982 9.42373C22.1694 9.69491 22.3728 9.9661 22.7796 10.1695C22.983 10.2373 23.3898 10.3729 23.322 10.1017C23.1186 9.69491 22.7796 9.35593 22.5084 9.01695V8.88136C22.4406 8.88136 22.4406 8.81356 22.3728 8.81356V8.67797C22.2372 8.61017 22.2372 8.47458 22.1694 8.33898C22.0338 8.13559 22.1016 7.9322 22.0338 7.66102C22.1016 7.38983 22.0338 7.18644 22.0338 6.98305C21.8982 6.37288 21.7626 5.83051 21.6948 5.22034C21.627 4.54237 22.1016 4 22.4406 3.38983C22.7118 2.98305 22.983 2.50848 23.4576 2.23729C23.5931 1.83051 23.8643 1.42373 24.1355 1.08475C24.4067 0.745763 24.8813 0.542373 25.2881 0.338983C25.7626 0.135593 26.2372 0 26.2372 0H33.4915C33.4915 0 33.5592 2.57613e-07 33.6948 0.0677969L34.2372 0.338983C34.5084 0.474576 34.7796 0.677966 34.9152 0.949152C34.983 1.08475 35.1186 1.28814 35.0508 1.42373C34.983 1.62712 34.9152 1.8983 34.7796 1.9661C34.5762 2.10169 34.305 2.1017 34.0338 2.0339C33.8982 2.0339 33.7626 1.9661 33.627 1.9661C34.1694 2.16949 34.7118 2.44068 35.0508 2.91526C35.1186 2.98305 35.2542 3.05085 35.3898 3.05085C35.4576 3.05085 35.4576 3.11864 35.4576 3.18644C35.3898 3.25424 35.322 3.32204 35.322 3.38983H35.4576C35.6609 3.32204 35.5931 2.98305 35.8643 3.05085C36.0677 3.18644 36.1355 3.38983 35.9999 3.59322C35.8643 3.72881 35.7287 3.86441 35.5931 3.9322C35.5253 4 35.5253 4.13559 35.5931 4.20339C35.7287 4.33898 35.7287 4.47458 35.7965 4.61017C35.9321 4.88136 35.9321 5.15254 36.0677 5.42373C36.2033 5.9661 36.3389 6.50847 36.3389 7.05085C36.3389 7.32203 36.2033 7.59322 36.2711 7.86441C36.3389 8.13559 36.5423 8.40678 36.6779 8.61017C36.8135 8.81356 36.9491 8.94915 37.0847 9.22034C37.2881 9.55932 37.6948 9.9661 37.4915 10.3729C37.3559 10.6441 36.9491 10.5763 36.7457 10.7119C36.5423 10.9153 36.6779 11.1864 36.8135 11.3898C37.0169 11.7288 36.6101 11.9322 36.3389 12.0678C36.4067 12.2034 36.5423 12.1356 36.6101 12.2034C36.6779 12.4068 36.8135 12.4746 36.7457 12.678C36.6101 12.8814 36.1355 13.0169 36.4067 13.3559C36.5423 13.6271 36.4745 13.8983 36.3389 14.1695C36.2033 14.5085 35.9321 14.6441 35.6609 14.7119C35.4576 14.7797 35.1864 14.7797 34.983 14.7797C34.9152 14.7119 34.8474 14.7119 34.7796 14.7119C34.1694 14.6441 33.5592 14.4407 32.9491 14.4407C32.7457 14.5085 32.6101 14.5085 32.4745 14.5763C32.3389 14.7119 32.1355 14.8475 32.0677 14.9831C31.9999 15.1186 31.9999 15.0508 31.9999 15.0508C31.9999 15.0508 31.9999 15.1186 31.9321 15.1186V15.1864C31.7965 15.322 31.7287 15.4576 31.6609 15.5932V15.661C31.5253 15.8644 31.4576 16.1356 31.3898 16.339C31.1186 17.1525 31.2542 17.8983 31.4576 18.0339C31.5254 18.1017 32.6779 18.4407 33.4237 18.7797C33.8304 18.9153 34.0338 19.0508 34.305 19.1864H19.3898C20.0677 18.7119 20.7457 18.4407 21.7626 17.9661C21.7626 17.7627 22.7796 17.2881 23.1186 16.9492ZM17.5592 14.3051C17.4915 14.3051 17.3559 14.3729 17.3559 14.2373C17.4237 14.0339 17.627 14.0339 17.7626 13.9661C17.8304 13.8983 17.966 13.8305 18.0338 13.8983C18.1016 14.0339 18.2372 13.9661 18.305 14.0339C18.1016 14.3051 17.8304 14.2373 17.5592 14.3051ZM11.9999 13.4915L11.9321 13.4237C12.4067 12.8136 12.7457 12.2034 13.0847 11.5932C13.5592 11.322 13.966 10.9831 14.305 10.5763C14.9152 9.89831 15.5931 9.35593 16.3389 8.94915C16.6101 8.81356 17.0169 8.88136 17.2881 9.01695C17.1525 9.15254 17.0169 9.15254 16.8813 9.22034C16.8135 9.22034 16.8135 9.22034 16.7457 9.15254C16.8135 9.08475 16.8135 9.08475 16.8135 9.01695C16.4745 9.42373 15.9321 9.62712 15.6609 10.1017C15.4576 10.4407 15.322 10.9153 14.8474 11.0508C14.7118 11.1186 14.9152 10.9153 14.7796 10.9831C13.627 11.7288 12.8813 12.5424 11.9999 13.4915ZM14.983 11.1186L14.8474 11.2542C14.7796 11.322 14.7796 11.3898 14.7118 11.3898C14.644 11.3898 14.644 11.3898 14.644 11.322C14.7118 11.1864 14.7796 11.0508 14.9152 10.9831C14.983 11.0508 14.983 11.1186 14.983 11.1186ZM16.6779 16.5424C16.6779 16.6102 16.6101 16.6102 16.6101 16.678C16.6779 16.678 16.6779 16.678 16.6779 16.7458C16.6101 16.8136 16.5423 16.8814 16.4067 16.9492H16.3389L16.2033 17.0847C16.1355 17.1525 15.9321 17.0847 15.9999 17.017L16.2711 16.7458C16.3389 16.678 16.4067 16.678 16.4067 16.6102L16.4745 16.5424C16.5423 16.5424 16.7457 16.4746 16.6779 16.5424ZM16.0677 16.2712C15.9321 16.4068 15.7965 16.4746 15.6609 16.5424C15.5253 16.6102 15.322 16.678 15.1864 16.7458H15.1186C14.983 16.8136 14.8474 16.9492 14.7796 17.017L14.7118 17.0847L14.644 17.1525L14.5762 17.2203C14.5762 17.2203 14.5762 17.2881 14.5084 17.2881H14.305L14.1694 17.4237L13.966 17.6271L14.1016 17.4915L14.1694 17.4237L14.2372 17.3559C14.305 17.2881 14.305 17.2203 14.3728 17.2203C14.4406 17.2203 14.4406 17.1525 14.4406 17.1525C14.4406 17.1525 14.4406 17.0847 14.5084 17.0847C14.5762 17.0847 14.5084 17.017 14.5762 17.017C14.644 17.017 14.5762 17.017 14.5762 16.9492V16.8814C14.644 16.8136 14.644 16.7458 14.7118 16.678C14.644 16.678 14.644 16.7458 14.5762 16.8136C14.5084 16.8136 14.4406 16.8136 14.5084 16.7458L14.5762 16.678L14.7796 16.4746C14.8474 16.4746 14.8474 16.4068 14.9152 16.4068C14.983 16.4068 14.983 16.339 14.983 16.339C15.322 16 15.9321 16 16.4067 15.7966C16.6101 15.7288 16.8135 15.8644 17.0169 15.7966C17.1525 15.7966 17.2203 15.7966 17.3559 15.8644C16.6101 15.8644 16.3389 16.0678 16.0677 16.2712ZM16.8135 13.7627C16.7457 13.6949 16.9491 13.7627 16.9491 13.6949H16.6101C16.5423 13.6949 16.5423 13.6271 16.5423 13.6271C16.3389 13.6949 16.1355 13.7627 15.9321 13.7627C15.6609 13.8305 15.4576 14.0339 15.1864 14.1017C14.7796 14.2373 14.4406 14.5763 14.0338 14.7119C13.966 14.7119 13.966 14.6441 13.966 14.6441C14.0338 14.5085 14.1694 14.5085 14.2372 14.3729C14.2372 14.3051 14.2372 14.3051 14.1694 14.3051C14.4406 13.8983 14.8474 13.6949 15.2542 13.3559V13.2203C15.3898 13.0847 15.5254 13.0169 15.5931 12.8136C15.6609 12.678 15.7965 12.5424 15.9321 12.4746C15.8643 12.4068 15.7965 12.4068 15.7965 12.339C15.6609 12.339 15.5254 12.4068 15.3898 12.2712C15.4576 12.2034 15.5254 12.1356 15.5931 12.1356C15.5931 12.1356 15.5254 12.1356 15.5254 12.0678C15.4576 12 15.5931 11.9322 15.7287 11.8644C15.8643 11.7966 16.0677 11.7966 16.1355 11.7288C15.8643 11.661 15.5931 11.7966 15.322 11.661C15.5253 11.1864 15.7965 10.7797 16.2033 10.5763C16.2711 10.5763 16.3389 10.5763 16.3389 10.6441C16.3389 10.8475 16.2033 10.9831 16.0677 10.9831C16.3389 11.0508 16.6779 11.0508 16.9491 11.1864C16.8813 11.2542 16.8135 11.2542 16.8135 11.2542C17.0169 11.3898 17.2203 11.322 17.4237 11.4576C17.2881 11.5932 17.2203 11.4576 17.0847 11.4576C18.2372 11.7966 19.3898 12.0678 20.3389 12.7458C19.5253 13.1525 18.7118 13.3559 17.8304 13.4915C17.6948 13.4915 17.627 13.4915 17.5592 13.4237C17.5592 13.4915 17.5592 13.5593 17.4915 13.5593C17.3559 13.5593 17.2203 13.5593 17.1525 13.6271C17.0847 13.8305 16.8813 13.8305 16.8135 13.7627Z" fill="white"/>    <path d="M23.1186 16.9492C23.322 16.7458 23.5254 16.5424 23.7288 16.2712C24.1355 15.8644 24.4745 15.3898 24.9491 15.0508C25.0847 14.9153 25.2203 14.8475 25.3559 14.7119C25.4237 14.6441 25.4237 14.5763 25.4237 14.5763C25.2203 14.6441 25.1525 14.7797 24.9491 14.8475C24.8813 14.8475 24.8813 14.7797 24.8813 14.7797C25.0169 14.7119 25.1525 14.5763 25.2881 14.5085C25.2203 14.5085 25.2203 14.4407 25.2203 14.4407C24.7457 14.3729 24.4067 14.7119 24.0677 14.9831C23.9999 15.0508 23.9321 14.9153 23.8643 14.9153C23.322 15.1186 22.9152 15.5932 22.3728 15.7966V15.7288C22.1694 15.7966 21.966 15.9322 21.6949 16C21.3559 16.0678 21.0847 16.0678 20.8135 16.0678C20.4067 16.1356 19.9321 16.2034 19.5254 16.2712H19.4576C19.2542 16.339 18.983 16.4068 18.7796 16.5424C18.5762 16.678 18.7118 16.6102 18.7118 16.6102C18.644 16.678 18.5762 16.7458 18.4406 16.8136C18.2372 16.9492 18.0338 17.1525 17.8305 17.2881H17.7627C17.5593 17.4915 17.3559 17.6949 17.1525 17.8305H17.0169C16.9491 17.8305 17.0169 17.8305 17.0169 17.7627C17.0169 17.6949 17.0847 17.6271 17.0847 17.6271C17.1525 17.5593 17.1525 17.4915 17.2203 17.4915C17.2881 17.4237 17.2881 17.3559 17.3559 17.2881V17.2203H17.2881C17.4915 17.0169 17.6949 16.8814 17.8983 16.7458C18.1016 16.6102 17.8305 16.7458 17.8305 16.678L17.8983 16.6102C17.8305 16.678 17.7627 16.678 17.6949 16.7458C17.6271 16.8136 17.5593 17.017 17.4237 16.9492H17.3559H17.2881C17.2203 16.9492 17.2881 16.9492 17.2881 16.8814C17.2881 16.8136 17.2881 16.8136 17.3559 16.8136V16.7458C17.3559 16.7458 17.3559 16.678 17.4237 16.678V16.6102C17.4915 16.5424 17.5593 16.4746 17.6949 16.4068L18.1016 16.2034L18.1694 16.1356C17.966 16.2034 17.7627 16.2712 17.5593 16.4068H17.4237L17.6271 16.2034C17.6949 16.2034 17.6949 16.2034 17.6949 16.2712C18.8474 15.3898 20.4745 15.5932 21.8305 15.1186C21.966 15.0508 22.0338 14.9831 22.1694 14.9153C22.3728 14.8475 22.5084 14.6441 22.7118 14.5763C22.983 14.3729 23.1864 14.1017 23.322 13.7627C23.322 13.6949 23.2542 13.6949 23.2542 13.6949C22.7796 14.2373 22.2372 14.5763 21.6271 14.9153C20.8813 15.322 19.9999 15.2542 19.2542 15.322C19.322 15.2542 19.3898 15.2542 19.4576 15.2542C19.4576 15.1186 19.5254 15.1186 19.5932 15.0508H19.9999C20.0677 15.0508 20.0677 14.9831 20.0677 14.9831C20.1355 14.9831 20.2711 14.9153 20.2033 14.9153C20.0677 14.7797 19.8644 15.0508 19.661 14.9153C19.7288 14.8475 19.7288 14.7119 19.7966 14.7119H19.9321C19.9321 14.6441 19.9999 14.5763 19.9999 14.5763C20.5423 14.2373 21.0847 13.9661 21.5593 13.6949C21.4237 13.6949 21.3559 13.8305 21.2881 13.7627C21.3559 13.7627 21.2881 13.6271 21.3559 13.6271C21.7627 13.4915 22.1016 13.2881 22.5084 13.1525C22.3728 13.1525 22.2372 13.2881 22.1016 13.1525C22.1694 13.0847 22.2372 13.0169 22.305 13.0169V12.8814C22.305 12.8136 22.3728 12.8136 22.3728 12.8136C22.305 12.8136 22.305 12.7458 22.305 12.7458C22.3728 12.678 22.4406 12.678 22.5084 12.6102C22.4406 12.6102 22.3728 12.6102 22.3728 12.5424C22.5084 12.4068 22.644 12.339 22.8474 12.339C22.7796 12.2712 22.7118 12.339 22.7118 12.2712C22.7118 12.2034 22.7796 12.2034 22.7796 12.2034H22.7118C22.644 12.1356 22.644 12.0678 22.644 12.0678C22.8474 11.7966 22.8474 11.4576 22.983 11.1864C22.9152 11.1864 22.9152 11.1864 22.9152 11.1186C22.5762 11.5254 21.966 11.661 21.4237 11.7966H21.2203C21.0169 11.8644 20.8135 11.8644 20.6101 11.7288C20.4745 11.661 20.4067 11.5254 20.2711 11.4576C19.9999 11.2542 19.661 11.1186 19.3898 11.0508C18.5084 10.7797 17.5593 10.6441 16.6101 10.6441C17.0169 10.4407 17.4237 10.4407 17.8983 10.3051C18.5084 10.1017 19.1186 9.8983 19.7288 9.9661C19.5932 9.8983 19.4576 9.9661 19.3898 9.9661C18.8474 9.8983 18.3728 10.1017 17.8305 10.1695C17.4915 10.2373 17.1525 10.3729 16.7457 10.4407C16.5423 10.5085 16.4067 10.7119 16.1355 10.7119V10.5763C16.4745 10.1695 16.9491 9.69492 17.4915 9.69492C18.1694 9.55932 18.7796 9.69491 19.3898 9.76271C19.8644 9.83051 20.2711 9.89831 20.7457 10.0339C20.9491 10.0339 20.9491 10.3051 21.0847 10.3729C21.2881 10.4407 21.4915 10.3729 21.7627 10.5085C21.7627 10.4407 21.6949 10.3729 21.7627 10.3051C21.8983 10.1695 22.1016 10.3729 22.2372 10.2373C22.5084 10.0339 21.966 9.76271 21.8305 9.49153C21.8305 9.42373 21.8983 9.42373 21.8983 9.42373C22.1694 9.69491 22.3728 9.9661 22.7796 10.1695C22.983 10.2373 23.3898 10.3729 23.322 10.1017C23.1186 9.69491 22.7796 9.35593 22.5084 9.01695V8.88136C22.4406 8.88136 22.4406 8.81356 22.3728 8.81356V8.67797C22.2372 8.61017 22.2372 8.47458 22.1694 8.33898C22.0338 8.13559 22.1016 7.9322 22.0338 7.66102C22.1016 7.38983 22.0338 7.18644 22.0338 6.98305C21.8983 6.37288 21.7627 5.83051 21.6949 5.22034C21.6271 4.54237 22.1016 4 22.4406 3.38983C22.7118 2.98305 22.983 2.50848 23.4576 2.23729C23.5932 1.83051 23.8643 1.42373 24.1355 1.08475C24.4067 0.745763 24.8813 0.542373 25.2881 0.338983C25.7627 0.135593 26.2372 0 26.2372 0H1.28809V19.1864H18.9152C19.5932 18.7119 20.2711 18.4407 21.2881 17.9661C21.7627 17.7627 22.7796 17.2881 23.1186 16.9492ZM17.5593 14.3051C17.4915 14.3051 17.3559 14.3729 17.3559 14.2373C17.4237 14.0339 17.6271 14.0339 17.7627 13.9661C17.8305 13.8983 17.966 13.8305 18.0338 13.8983C18.1016 14.0339 18.2372 13.9661 18.305 14.0339C18.1016 14.3051 17.8305 14.2373 17.5593 14.3051ZM11.9999 13.4915L11.9322 13.4237C12.4067 12.8136 12.7457 12.2034 13.0847 11.5932C13.5593 11.322 13.966 10.9831 14.305 10.5763C14.9152 9.89831 15.5932 9.35593 16.3389 8.94915C16.6101 8.81356 17.0169 8.88136 17.2881 9.01695C17.1525 9.15254 17.0169 9.15254 16.8813 9.22034C16.8135 9.22034 16.8135 9.22034 16.7457 9.15254C16.8135 9.08475 16.8135 9.08475 16.8135 9.01695C16.4745 9.42373 15.9321 9.62712 15.661 10.1017C15.4576 10.4407 15.322 10.9153 14.8474 11.0508C14.7118 11.1186 14.9152 10.9153 14.7796 10.9831C13.6949 11.7288 12.8813 12.5424 11.9999 13.4915ZM14.983 11.1186L14.8474 11.2542C14.7796 11.322 14.7796 11.3898 14.7118 11.3898C14.644 11.3898 14.644 11.3898 14.644 11.322C14.7118 11.1864 14.7796 11.0508 14.9152 10.9831C14.983 11.0508 14.983 11.1186 14.983 11.1186ZM16.6779 16.5424C16.6779 16.6102 16.6101 16.6102 16.6101 16.678C16.6779 16.678 16.6779 16.678 16.6779 16.7458C16.6101 16.8136 16.5423 16.8814 16.4067 16.9492H16.3389L16.2033 17.0847C16.1355 17.1525 15.9321 17.0847 15.9999 17.017L16.2711 16.7458C16.3389 16.678 16.4067 16.678 16.4067 16.6102L16.4745 16.5424C16.5423 16.5424 16.7457 16.4746 16.6779 16.5424ZM16.0677 16.2712C15.9322 16.4068 15.7966 16.4746 15.661 16.5424C15.5254 16.6102 15.322 16.678 15.1864 16.7458H15.1186C14.983 16.8136 14.8474 16.9492 14.7796 17.017L14.7118 17.0847L14.644 17.1525L14.5762 17.2203C14.5762 17.2203 14.5762 17.2881 14.5084 17.2881H14.305L14.1694 17.4237L13.966 17.6271L14.1016 17.4915L14.1694 17.4237L14.2372 17.3559C14.305 17.2881 14.305 17.2203 14.3728 17.2203C14.4406 17.2203 14.4406 17.1525 14.4406 17.1525C14.4406 17.1525 14.4406 17.0847 14.5084 17.0847C14.5762 17.0847 14.5084 17.017 14.5762 17.017C14.644 17.017 14.5762 17.017 14.5762 16.9492V16.8814C14.644 16.8136 14.644 16.7458 14.7118 16.678C14.644 16.678 14.644 16.7458 14.5762 16.8136C14.5084 16.8136 14.4406 16.8136 14.5084 16.7458L14.5762 16.678L14.7796 16.4746C14.8474 16.4746 14.8474 16.4068 14.9152 16.4068C14.983 16.4068 14.983 16.339 14.983 16.339C15.322 16 15.9322 16 16.4067 15.7966C16.6101 15.7288 16.8135 15.8644 17.0169 15.7966C17.1525 15.7966 17.2203 15.7966 17.3559 15.8644C16.6101 15.8644 16.3389 16.0678 16.0677 16.2712ZM16.8135 13.7627C16.7457 13.6949 16.9491 13.7627 16.9491 13.6949H16.6101C16.5423 13.6949 16.5423 13.6271 16.5423 13.6271C16.3389 13.6949 16.1355 13.7627 15.9322 13.7627C15.661 13.8305 15.4576 14.0339 15.1864 14.1017C14.7796 14.2373 14.4406 14.5763 14.0338 14.7119C13.9661 14.7119 13.966 14.6441 13.966 14.6441C14.0338 14.5085 14.1694 14.5085 14.2372 14.3729C14.2372 14.3051 14.2372 14.3051 14.1694 14.3051C14.4406 13.8983 14.8474 13.6949 15.2542 13.3559V13.2203C15.3898 13.0847 15.5254 13.0169 15.5932 12.8136C15.661 12.678 15.7966 12.5424 15.9322 12.4746C15.8644 12.4068 15.7966 12.4068 15.7966 12.339C15.661 12.339 15.5254 12.4068 15.3898 12.2712C15.4576 12.2034 15.5254 12.1356 15.5932 12.1356C15.5932 12.1356 15.5254 12.1356 15.5254 12.0678C15.4576 12 15.5932 11.9322 15.7288 11.8644C15.8644 11.7966 16.0677 11.7966 16.1355 11.7288C15.8644 11.661 15.5932 11.7966 15.322 11.661C15.5254 11.1864 15.7966 10.7797 16.2033 10.5763C16.2711 10.5763 16.3389 10.5763 16.3389 10.6441C16.3389 10.8475 16.2033 10.9831 16.0677 10.9831C16.3389 11.0508 16.6779 11.0508 16.9491 11.1864C16.8813 11.2542 16.8135 11.2542 16.8135 11.2542C17.0169 11.3898 17.2203 11.322 17.4237 11.4576C17.2881 11.5932 17.2203 11.4576 17.0847 11.4576C18.2372 11.7966 19.3898 12.0678 20.3389 12.7458C19.5254 13.1525 18.7118 13.3559 17.8305 13.4915C17.6949 13.4915 17.6271 13.4915 17.5593 13.4237C17.5593 13.4915 17.5593 13.5593 17.4915 13.5593C17.3559 13.5593 17.2203 13.5593 17.1525 13.6271C17.0847 13.8305 16.8813 13.8305 16.8135 13.7627Z" fill="#000091"/>    <path d="M54.1018 0H33.4916C33.4916 0 33.5594 2.57613e-07 33.695 0.0677969L34.2374 0.338983C34.5085 0.474576 34.7797 0.677966 34.9153 0.949152C34.9831 1.08475 35.1187 1.28814 35.0509 1.42373C34.9831 1.62712 34.9153 1.8983 34.7797 1.9661C34.5763 2.10169 34.3052 2.1017 34.034 2.0339C33.8984 2.0339 33.7628 1.9661 33.6272 1.9661C34.1696 2.16949 34.7119 2.44068 35.0509 2.91526C35.1187 2.98305 35.2543 3.05085 35.3899 3.05085C35.4577 3.05085 35.4577 3.11864 35.4577 3.18644C35.3899 3.25424 35.3221 3.32204 35.3221 3.38983H35.4577C35.6611 3.32204 35.5933 2.98305 35.8645 3.05085C36.0679 3.18644 36.1357 3.38983 36.0001 3.59322C35.8645 3.72881 35.7289 3.86441 35.5933 3.9322C35.5255 4 35.5255 4.13559 35.5933 4.20339C35.7289 4.33898 35.7289 4.47458 35.7967 4.61017C35.9323 4.88136 35.9323 5.15254 36.0679 5.42373C36.2035 5.9661 36.3391 6.50847 36.3391 7.05085C36.3391 7.32203 36.2035 7.59322 36.2713 7.86441C36.3391 8.13559 36.5424 8.40678 36.678 8.61017C36.8136 8.81356 36.9492 8.94915 37.0848 9.22034C37.2882 9.55932 37.695 9.9661 37.4916 10.3729C37.356 10.6441 36.9492 10.5763 36.7458 10.7119C36.5424 10.9153 36.678 11.1864 36.8136 11.3898C37.017 11.7288 36.6102 11.9322 36.3391 12.0678C36.4068 12.2034 36.5424 12.1356 36.6102 12.2034C36.678 12.4068 36.8136 12.4746 36.7458 12.678C36.6102 12.8814 36.1357 13.0169 36.4068 13.3559C36.5424 13.6271 36.4746 13.8983 36.3391 14.1695C36.2035 14.5085 35.9323 14.6441 35.6611 14.7119C35.4577 14.7797 35.1865 14.7797 34.9831 14.7797C34.9153 14.7119 34.8475 14.7119 34.7797 14.7119C34.1696 14.6441 33.5594 14.4407 32.9492 14.4407C32.7458 14.5085 32.6102 14.5085 32.4746 14.5763C32.3391 14.7119 32.1357 14.8475 32.0679 14.9831C32.0001 15.1186 32.0001 15.0508 32.0001 15.0508C32.0001 15.0508 32.0001 15.1186 31.9323 15.1186V15.1864C31.7967 15.322 31.7289 15.4576 31.6611 15.5932V15.661C31.5255 15.8644 31.4577 16.1356 31.3899 16.339C31.1187 17.1525 31.2543 17.8983 31.4577 18.0339C31.5255 18.1017 32.678 18.4407 33.4238 18.7797C33.8306 18.9153 34.034 19.0508 34.3052 19.1864H54.5763V0H54.1018Z" fill="#E1000F"/>    <path d="M34.712 6.98296C34.8476 7.05076 35.051 7.05076 35.051 7.11855C34.9832 7.38974 34.5764 7.45754 34.3052 7.79652H34.2374C34.1018 7.86432 34.1696 8.0677 34.034 8.0677C33.8984 7.99991 33.8306 8.0677 33.695 8.1355C33.8306 8.27109 34.034 8.40669 34.2374 8.33889C34.3052 8.33889 34.373 8.40669 34.373 8.47448C34.373 8.47448 34.4408 8.47448 34.4408 8.40669C34.5086 8.40669 34.5086 8.40669 34.5086 8.47448V8.54228C34.373 8.67787 34.2374 8.61008 34.1018 8.67787C34.373 8.74567 34.712 8.74567 34.9154 8.67787C35.1188 8.61008 34.9154 8.27109 35.051 8.0677C34.9832 8.0677 35.051 7.93211 34.9832 7.93211C35.051 7.86431 35.1188 7.72872 35.1866 7.72872C35.2544 7.72872 35.3899 7.66092 35.3899 7.59313C35.3899 7.52533 35.2544 7.45753 35.2544 7.38974C35.4577 7.25414 35.6611 7.05076 35.5933 6.77957C35.5255 6.64398 35.2544 6.64397 35.051 6.57618C34.8476 6.50838 34.6442 6.57618 34.4408 6.64398C34.2374 6.64398 34.1018 6.77957 33.8984 6.77957C33.6272 6.84737 33.4238 6.98296 33.2205 7.11855C33.4916 6.98296 33.7628 6.98296 34.034 6.91516C34.3052 6.98296 34.4408 6.91516 34.712 6.98296Z" fill="#9C9B9B"/></svg>