<svg width="44" height="51" viewBox="0 0 44 51" fill="none" xmlns="http://www.w3.org/2000/svg">
    <path fill-rule="evenodd" clip-rule="evenodd"
          d="M4.71429 3.85715C4.29752 3.85715 3.89782 4.02271 3.60312 4.31741C3.30842 4.61211 3.14286 5.01181 3.14286 5.42858V46.2857C3.14286 46.7025 3.30842 47.1022 3.60312 47.3969C3.89782 47.6916 4.29752 47.8571 4.71429 47.8571H39.2857C39.7025 47.8571 40.1022 47.6916 40.3969 47.3969C40.6916 47.1022 40.8571 46.7025 40.8571 46.2857V17.7301C40.8571 17.7299 40.8571 17.7302 40.8571 17.7301C40.857 17.3139 40.6917 16.9144 40.3976 16.6199C40.3975 16.6198 40.3977 16.6201 40.3976 16.6199L28.0947 4.31706C27.8002 4.02274 27.4009 3.85733 26.9846 3.85715C26.9845 3.85715 26.9847 3.85715 26.9846 3.85715H4.71429ZM1.38078 2.09508C2.26488 1.21098 3.46398 0.714294 4.71429 0.714294H26.9846C28.234 0.714561 29.4326 1.21081 30.3163 2.09401L42.6199 14.3976C43.5031 15.2814 43.9997 16.48 44 17.7294V46.2857C44 47.536 43.5033 48.7351 42.6192 49.6192C41.7351 50.5033 40.536 51 39.2857 51H4.71429C3.46398 51 2.26488 50.5033 1.38078 49.6192C0.496683 48.7351 0 47.536 0 46.2857V5.42858C0 4.17827 0.496683 2.97918 1.38078 2.09508Z"
          fill="#000091"/>
    <path fill-rule="evenodd" clip-rule="evenodd"
          d="M26.7143 0.714294C27.5822 0.714294 28.2857 1.41785 28.2857 2.28572V14.8572C28.2857 15.2739 28.4513 15.6736 28.746 15.9683C29.0407 16.263 29.4404 16.4286 29.8571 16.4286H42.4286C43.2964 16.4286 44 17.1321 44 18C44 18.8679 43.2964 19.5714 42.4286 19.5714H29.8571C28.6068 19.5714 27.4077 19.0748 26.5236 18.1907C25.6395 17.3066 25.1429 16.1075 25.1429 14.8572V2.28572C25.1429 1.41785 25.8464 0.714294 26.7143 0.714294Z"
          fill="#000091"/>
    <path fill-rule="evenodd" clip-rule="evenodd"
          d="M11.17 26.4639C11.7931 25.8814 12.8033 25.8814 13.4263 26.4639L14.6835 27.6393L15.6827 26.7052C16.3057 26.1227 17.3159 26.1227 17.939 26.7052C18.5621 27.2877 18.5621 28.2321 17.939 28.8146L16.9399 29.7487L17.939 30.6827C18.5621 31.2652 18.5621 32.2096 17.939 32.7921C17.3159 33.3746 16.3057 33.3746 15.6827 32.7921L14.6835 31.8581L13.4263 33.0334C12.8033 33.6159 11.7931 33.6159 11.17 33.0334C10.5469 32.4509 10.5469 31.5065 11.17 30.924L12.4272 29.7487L11.17 28.5733C10.5469 27.9908 10.5469 27.0464 11.17 26.4639ZM26.061 26.4639C26.6841 25.8814 27.6943 25.8814 28.3173 26.4639L29.5745 27.6393L30.5737 26.7052C31.1967 26.1227 32.2069 26.1227 32.83 26.7052C33.4531 27.2877 33.4531 28.2321 32.83 28.8146L31.8309 29.7487L32.83 30.6827C33.4531 31.2652 33.4531 32.2096 32.83 32.7921C32.2069 33.3746 31.1967 33.3746 30.5737 32.7921L29.5745 31.8581L28.3173 33.0334C27.6943 33.6159 26.6841 33.6159 26.061 33.0334C25.4379 32.4509 25.4379 31.5065 26.061 30.924L27.3182 29.7487L26.061 28.5733C25.4379 27.9908 25.4379 27.0464 26.061 26.4639ZM22.129 41.1841C21.2479 41.1841 20.5336 41.8519 20.5336 42.6757H17.3426C17.3426 40.2044 19.4856 38.201 22.129 38.201C24.7725 38.201 26.9154 40.2044 26.9154 42.6757H23.7245C23.7245 41.8519 23.0102 41.1841 22.129 41.1841Z"
          fill="#000091"/>
</svg>
