<svg width="24" height="24" viewBox="0 0 24 24" fill="none" xmlns="http://www.w3.org/2000/svg">
    <g clip-path="url(#clip0_1605_3974)">
        <path d="M12 15C14.8995 15 17.25 12.6495 17.25 9.75C17.25 6.85051 14.8995 4.5 12 4.5C9.10051 4.5 6.75 6.85051 6.75 9.75C6.75 12.6495 9.10051 15 12 15Z" stroke="#6A6AF4" stroke-width="1.5" stroke-linecap="round" stroke-linejoin="round"/>
        <path d="M18.913 20.8759C18.0072 19.9644 16.9301 19.2411 15.7437 18.7475C14.5573 18.2539 13.285 17.9998 12 17.9998C10.715 17.9998 9.4427 18.2539 8.25629 18.7475C7.06987 19.2411 5.99279 19.9644 5.08701 20.8759" stroke="#6A6AF4" stroke-width="1.5" stroke-linecap="round" stroke-linejoin="round"/>
        <path d="M12 23.25C18.2132 23.25 23.25 18.2132 23.25 12C23.25 5.7868 18.2132 0.75 12 0.75C5.7868 0.75 0.75 5.7868 0.75 12C0.75 18.2132 5.7868 23.25 12 23.25Z" stroke="#6A6AF4" stroke-width="1.5" stroke-linecap="round" stroke-linejoin="round"/>
    </g>
    <defs>
        <clipPath id="clip0_1605_3974">
            <rect width="24" height="24" fill="white"/>
        </clipPath>
    </defs>
</svg>
