<svg width="19" height="17" viewBox="0 0 19 17" fill="none" xmlns="http://www.w3.org/2000/svg">
    <path fill-rule="evenodd" clip-rule="evenodd" d="M9.80399 0.547145L11.2401 1.26519C12.0728 1.6814 12.5029 2.62166 12.2732 3.52381L11.5583 6.33344H16.625C17.4994 6.33344 18.2083 7.04232 18.2083 7.91677V9.58244C18.2085 9.78935 18.1682 9.9943 18.0896 10.1857L15.6394 16.1351C15.5171 16.4317 15.2279 16.6251 14.9071 16.6251H1.58332C1.1461 16.6251 0.791656 16.2707 0.791656 15.8334V7.91677C0.791656 7.47955 1.1461 7.1251 1.58332 7.1251H4.33991C4.5971 7.12517 4.8383 7.00029 4.9867 6.79023L9.30366 0.67302C9.41643 0.513209 9.62902 0.459725 9.80399 0.547145ZM10.009 2.42102L6.28028 7.70302C6.08236 7.98327 5.82903 8.21285 5.54166 8.38227V15.0418H14.3767L16.625 9.58244V7.91677H11.5583C11.0697 7.9167 10.6084 7.691 10.3085 7.3052C10.0086 6.9194 9.90362 6.41673 10.0241 5.94315L10.7389 3.13431C10.785 2.95378 10.699 2.76554 10.5323 2.68227L10.009 2.42102Z" fill="#000091"/>
</svg>
