<svg width="21" height="21" viewBox="0 0 21 21" fill="none" xmlns="http://www.w3.org/2000/svg">    <path fill-rule="evenodd" clip-rule="evenodd" d="M8 13C12.4183 13 16 16.5817 16 21H14C14 17.6863 11.3137 15 8 15C4.68629 15 2 17.6863 2 21H0C0 16.5817 3.58172 13 8 13ZM16.284 13.703C19.1546 14.9958 21.0003 17.8517 21 21H19C19.0005 18.6387 17.6161 16.4966 15.463 15.527L16.283 13.703H16.284ZM15.596 2.413C17.6566 3.26235 19.0008 5.27126 19 7.5C19.0009 10.3443 16.8326 12.7199 14 12.978V10.965C15.521 10.7472 16.7221 9.56276 16.9612 8.04493C17.2002 6.52711 16.4214 5.03085 15.041 4.356L15.596 2.413ZM8 0C11.315 0 14 2.685 14 6C14 9.315 11.315 12 8 12C4.685 12 2 9.315 2 6C2 2.685 4.685 0 8 0ZM8 2C5.79 2 4 3.79 4 6C4 8.21 5.79 10 8 10C10.21 10 12 8.21 12 6C12 3.79 10.21 2 8 2Z" fill="#000091"/></svg>