<svg width="42" height="42" viewBox="0 0 42 42" fill="none" xmlns="http://www.w3.org/2000/svg">
    <path d="M21.0151 2.10384C23.261 2.10384 25.4149 2.99602 27.003 4.58411C28.5911 6.1722 29.4833 8.32612 29.4833 10.572C29.4833 12.8179 28.5911 14.9718 27.003 16.5599C25.4149 18.148 23.261 19.0402 21.0151 19.0402C18.7692 19.0402 16.6153 18.148 15.0272 16.5599C13.4391 14.9718 12.547 12.8179 12.547 10.572C12.547 8.32612 13.4391 6.1722 15.0272 4.58411C16.6153 2.99602 18.7692 2.10384 21.0151 2.10384ZM21.0151 28.2556C26.5527 28.2556 31.4651 29.3811 34.9194 31.1082C38.4923 32.8947 39.944 34.9948 39.944 36.7237V39.9616H2.08626V36.7237C2.08626 34.9948 3.53793 32.8947 7.11087 31.1082C10.5652 29.3811 15.4776 28.2556 21.0151 28.2556Z" stroke="#19199C" stroke-width="3.98502"/>
</svg>

