<svg width="20" height="20" viewBox="0 0 20 20" fill="none" xmlns="http://www.w3.org/2000/svg">
    <path fill-rule="evenodd" clip-rule="evenodd" d="M10 0C15.523 0 20 4.477 20 10C20 15.523 15.523 20 10 20C8.35735 20.0025 6.73962 19.5985 5.291 18.824L-1.17042e-05 20L1.176 14.709C0.401532 13.2604 -0.00247355 11.6426 -1.17042e-05 10C-1.17042e-05 4.477 4.477 0 10 0ZM10 2C5.58172 2 2 5.58172 2 10C2 11.334 2.325 12.618 2.94 13.766L3.289 14.419L2.634 17.366L5.581 16.711L6.234 17.061C7.39255 17.6801 8.68639 18.0027 10 18C14.4183 18 18 14.4183 18 10C18 5.58172 14.4183 2 10 2Z" fill="#626262"/>
</svg>
