<svg xmlns="http://www.w3.org/2000/svg" width="2788" height="1679">
    <g fill="none" fill-rule="evenodd">
        <path fill="#F1F2F9"
              d="M2726.87 1660.37h-159.5v-21.52l18.59.14s22.93-489.46 12.78-522.86a7.992 7.992 0 0 0 4.71-6.93c.59-13.24 2.32-45.64 6.41-87.1 2.67 25.21 8.74 107.58 8.74 107.58s11.22 3.62 22.26 4.14c.55.03 1.09.04 1.62.04 7.94 0 14.37-2.66 14.37-2.66s13.18-101.48 7.78-126.2c-3.62-16.59-29.91-104.96-46.83-161.35-4.72-31.282-14.18-55.938-28.72-68.644-.55-.484-1.91-.726-3.86-.726-5.78 0-16.79 2.138-27.61 6.446-9.99 3.984-20.09 7.551-29.58 7.551-3.06 0-6.05-.372-8.96-1.221-.08 0-12.69 9.78-12.81 9.78-15.76 12.41-30.87 30.694-42.33 57.234-2.43 5.63-4.51 11.95-6.29 18.79-51.92-32.28-118.66-53.725-192.26-58.936V590.961c0-25.579-20.93-46.508-46.51-46.508h-318.65c-28.27-157.974-162.32-284.398-332.64-315.617-.49-2.296-.59-4.618-.25-6.919-13.55-2.083-23.45-2.79-31.46-2.79-11.13 0-18.59 1.366-27.12 2.297l-.19.572c-7.6-.38-15.26-.573-22.96-.573-207.99 0-381.95 140.442-414.63 323.03H630.293c-25.579 0-46.507 20.929-46.507 46.508V839.3c-30.566 11.03-58.367 25.17-82.483 41.77 5.363-13.69 10.647-25.82 10.647-25.82-33.059-28.08-46.257-29.922-49.151-29.922-.437 0-.639.042-.639.042v-.01s-4.731-.853-19.681-1.642c19.662-42.049 1.96-131.356-17.557-142.446-6.902-3.923-14.94-4.947-21.462-4.947-1.341 0-2.618.043-3.808.113 1.796-1.854 5.329-2.53 5.329-2.53a6.637 6.637 0 0 0-.976-.066c-4.647 0-13.005 3.714-13.005 3.714-6.867-2.647-13.083-3.838-18.689-3.838-43.509 0-50.793 71.598-49.673 89.832 1.254 20.58-20.22 27.303-51.525 43.52-59.73 30.94-64.976 72.38-64.976 72.38.465.27.951.58 1.467.94 2.964-5.02 9.064-14.45 14.209-15.87-.195.45-6.079 12.98-8.275 20.15 17.582 13.38 50.434 42.97 73.402 64.02-1.065 16.06-2.322 37.29-3.755 65.24l-14.146 107.27c-73.158 25.75-123.099 75.99-123.099 133.41v405.76H51.389V.856H2726.87V1660.37M290.963 1114.42c1.852-6.17 3.914-13.05 6.055-20.22 3.717 1.2 20.354 6.54 37.215 11.66-14.974 1.95-29.458 4.84-43.27 8.56m8.816-29.5c8.98-30.24 18.335-62.44 18.894-67.18.657-5.6 6.388-45.37 10.823-75.98.348 3.32.658 6.68.924 10.07.682 8.71 1.076 17.63 1.076 26.63.001 13.14-.839 26.45-2.846 39.49-1.82 11.77-13.47 28.55-28.81 66.82l-.061.15M287.073 946.7c.006-2.27.122-4.78.479-6.99-.155 2.21-.315 4.54-.479 6.99m150.428-123.224a505.9 505.9 0 0 0-1.776-.077c3.628-11.45 5.117-22.371 5.284-23.653-.828 9.893-2.082 17.648-3.508 23.73"/>
        <path fill="#EBEDF7" d="M2567.37 1675.46H145.94v-15.09h331.215v2.7H2372.01v-2.7h195.36v15.09"/>
        <path fill="#E3E5F3"
              d="M2567.37 1660.37h-195.36v-26.21c38.96-43.86 83.63-118.11 119.69-194.12 2.76 74 8.96 146.05 21.21 198.39l54.46.42v21.52m-2090.215 0H145.94v-405.76c0-57.42 49.941-107.66 123.099-133.41l-2.367 17.96-1.431 3.87s-21.823 15.15-10.581 42.04c0 0 3.077 6.06 6.967 6.06 1.271 0 2.629-.64 3.994-2.36 5.547-6.97 2.546-5.13 10.554-14.78 8.008-9.65 11.454-22.28 7.906-30.54l-1.018-2.87s3.303-10.87 7.9-26.16c13.812-3.72 28.296-6.61 43.27-8.56 11.466 3.48 23.036 6.86 30.717 8.75 1.03.26 1.99.48 2.88.68 26.781 5.98 62.771 7.02 84.626 7.02 11.71 0 19.363-.3 19.363-.3s-1.559-5.28-1.199-84.2c.01-2.21 21.16-92.87 20.69-102.85-.3-6.25-.89-12.54-1.71-18.82l.58.43c.131-6.02 5.668-21.57 11.123-35.5 24.116-16.6 51.917-30.74 82.483-41.77v778.07H477.155v43m1831.665-43h-43.44V813.924c73.6 5.211 140.34 26.656 192.26 58.936-7.83 30.03-9.9 70-10.75 105.35-.07 2.78-.13 5.54-.18 8.27-.31 15.86-.45 30.49-.83 42.49l-.01.2c-1.56 47.57-11.65 75.07-16.16 85.43a5.86 5.86 0 0 0-.47 1.79c-.02.22-.03.45-.03.67v.23c.09 1.55.78 2.99 1.9 4.03l.07.06c.75.67 1.67 1.15 2.72 1.37-14.46 35.29-103.93 406.5-125.08 494.62m-408.6-1072.917h-52.35l-107.22-58.278c-4.39-8.854-9.95-18.558-9.95-18.558s-10.87-110.412-32.06-165.976c-4.13-10.865-36.51-32.628-74.77-52.894-4.02 5.925-9.79 9.553-17.59 9.553-2.15 0-4.47-.278-6.94-.862-14.01-3.305-29.01-15.554-31.76-28.602 170.32 31.219 304.37 157.643 332.64 315.617m-242.1 0h-54.59c1.37-5.491 2.93-13.78 4.59-26.234 16.34 7.599 29.14 13.094 34.87 15.511l5.88 4.612c1.81 1.707 5.1 4.043 9.25 6.111m-250.09 0h-337.06c32.68-182.588 206.64-323.03 414.63-323.03 7.7 0 15.36.193 22.96.573l-42.35 126.231.84-1.087c-.29.866-19.27 56.344-27.68 76.545-24.18 58.011-27.78 77.568-27.7 84.11.04 2.943.82 3.261.82 3.261l1.7.401c-1.22 1.895-1.94 4.054-2.1 6.504-.06.988-.13 1.965-.18 2.942h-.01c-1.42 3.667-2.7 11.834-3.87 23.55m274.1-26.616c-4.57-1.27-8.98-1.715-12.91-1.715-3.82 0-7.2.419-9.84.91-.68.126-1.32.185-1.94.185-3.11 0-5.53-1.519-8.28-3.654l-1.51-.964a10951.59 10951.59 0 0 1-33.77-31.83c7.91-24.274 29.59-65.344 36.05-77.376.5-.923.9-1.686 1.21-2.253.41-.755.64-1.158.64-1.158s2.91 21.542 6.38 35.923c6.43 26.69 23.65 68.056 23.65 68.056l.02.026v.003c-.04 3.38 4.75 5.126 4.75 5.126l.18.192-4.63 8.529"/>
        <path fill="#2F2C60"
              d="m1632.33 1024.89-58.97-.75-14.08-.18s-28.97-124.01-40-261.641c-1.46-18.335-3.98-30.25-5.27-42.995-11.07 126.226-25.76 270.286-46.37 305.566l-71.16-.93s-3.04-88.07 2.86-256.376c2.18-115.348 5.98-229.643 12.56-246.681h.01c.05-.977.12-1.954.18-2.942 2.9-44.166 187.6 5.862 187.6 5.862l32.64 501.067"/>
        <path fill="#272253"
              d="M1421.12 561.206c35.72 0 51.24-25.749 51.39-26.012l-1.65-.956c-.15.257-15.52 25.686-51.01 25.06l-.03 1.896c.43.008.87.012 1.3.012M1601.04 558.836c-18.16-7.445-26.37-21.082-26.49-21.264l1.65-.965c.11.183 7.77 12.856 24.7 20.119l.14 2.11"/>
        <path fill="#2F2C60"
              d="M1409.68 959.65c5.73-37.49 10.46-81.98 13.06-128.4a1954.377 1954.377 0 0 0 2.02-45.949c.08-2.76-.68-5.953-1.42-9.038-.68-2.871-1.39-5.839-1.33-8.22.76-30.553.13-58.535-.43-83.223-.14-6.475-.28-12.811-.4-19.027-1.04-56.133-1.43-87.941-1.42-88.255-.01.313-1.42 31.962-.38 88.173.12 6.217.26 12.557.41 19.034.55 24.665 1.18 52.619.42 83.123-.07 2.66.67 5.77 1.39 8.775.71 2.948 1.44 5.994 1.36 8.466-.26 8.029-.57 16.179-.93 24.227-.32 7.295-.69 14.589-1.08 21.674-2.61 46.36-6.07 91.24-11.78 128.67l.51-.03"/>
        <path fill="#945C2E"
              d="M1638.05 264.255c6.77-5.291-3.77-9.074-9.41-11.063-.88-.31-2.26-.718-4.04-1.204-.43-.116-.52-.544-.58-.983-2.81-21.99 1.78-34.141 1.78-34.141l-38.16-42.052c-13.07 37.733-22.36 46.499-25.61 61.822-.08.395 28.97 47.699 76.02 27.621"/>
        <path fill="#575BA3"
              d="M1686.58 509.116a387.835 387.835 0 0 1-4.75-5.129l-.02-.026s-17.22-41.366-23.65-68.056c-3.47-14.381-6.38-35.923-6.38-35.923s-.23.403-.64 1.158c-.31.567-.71 1.33-1.21 2.253-7.69 14.329-36.97 69.841-38.87 89.123-6.92 69.755-12.97 62.268-12.97 62.268l-185.6-43.728s-.78-.318-.821-3.261c-.079-6.542 3.521-26.099 27.701-84.11 8.41-20.201 27.39-75.679 27.68-76.545l-.84 1.087 42.54-126.803c14.66-1.601 26.19-4.487 58.58.493-2.31 15.377 15.54 31.635 32.01 35.521 11.4 2.695 19.4-1.126 24.53-8.691 38.26 20.266 70.64 42.029 74.77 52.894 21.19 55.564 32.06 165.976 32.06 165.976s7.59 13.237 12.04 22.897c0 0-7.44 4.058-21.92 9.355-15.89 5.815-33.25 10.297-34.24 9.247"/>
        <path fill="#A36D3C"
              d="M1636.18 221.091s-56.03-10.553-48.93-45.345c7.11-34.792 4.67-59.586 40.74-54.319 36.08 5.266 40.29 19.958 40.75 32.148.45 12.19-17.81 69.364-32.56 67.516"/>
        <path fill="#51539E"
              d="M1411.669 507.795c14.151-3.51 60.731-7.42 87.641-32.379 24.09-22.338 44.63-27.461 55.38-112.177 5.62-44.268-43.39-104.556-46.91-98.952-5.08 8.062-37.18 76.426-41.57 83.942l.85-1.103s-19.21 56.201-27.69 76.561c-24.19 58.009-27.78 77.566-27.701 84.108M1701.35 503.29c-6.31 1.74-12.05 3.14-16.34 4.13-1.9-2.04-3.03-3.28-3.18-3.44l-.01-.02s-17.23-41.36-23.67-68.06c-3.46-14.38-6.37-35.92-6.37-35.92s2.48-30.27 11.02-24.84c12.12 7.72 16.69 104.01 24.41 114.93 1.72 2.42 7.02 7.14 14.14 13.22"/>
        <path fill="#2F2C60"
              d="M1588.91 166.484s27.16-36.344 71.66-13.661c30.48 15.537 30.15-19.391 29.59-25.284 0 0-23.95-10.959-48.91-21.558-52.38-22.244-53.22 51.602-52.34 60.503"/>
        <path fill="#575BA3"
              d="M1489.82 450.266a206.22 206.22 0 0 1-3.19-2.422c-9.86-7.616-17.3-14.615-20.93-20.428-21.33-34.178.47-183.734 22.02-203.16 11.92-10.748 60.14-4.772 60.14-4.772s-2.84 60.427-4.76 83.863-18.45 94.357-18.45 94.357c2.21.983 7.76 5.338 15.37 11.816 5 4.264-39.27 14.355-50.2 40.746"/>
        <path fill="#A36D3C"
              d="M1820.71 598.606c-5.89-32.487-35.98-33.44-35.98-33.44s-18.65-24.438-25.39-41.996c-2.8-7.298-10.26-23.426-16.6-32.656-20.26 9.73-56.16 18.602-56.16 18.602 7.76 8.275 23.84 25.045 39.68 39.146 24.57 21.854 43.03 27.661 43.03 27.661 1.94 6.224 10.57 21.181 24.14 25.418 13.56 4.236 9.57 4.335 19.14 7.542 9.57 3.206 8.14-10.277 8.14-10.277M1704.79 532.799c-15.33-18.443-35.52-17.605-45.41-15.767-4.1.762-6.93-.912-10.22-3.469l-1.51-.964c-23.02-21.607-82.28-77.441-107.63-103.08-12.22.599-43.3 28.853-53.39 38.325 47.11 38.825 138.01 78.146 156.36 85.886l5.88 4.612c4.74 4.467 19.62 13.241 33.51 10.258 13.89-2.984 10.47-.935 20.38-2.852 9.91-1.916 2.03-12.949 2.03-12.949"/>
        <path fill="#51539E"
              d="m1542.98 412.503-2.96-2.983s-23.56 1.106-53.78 38.023l7.95 6.624s29.97-40.086 48.79-41.664M1681.83 503.984s59.03-14.211 59.91-15.578c0 0 1.32.81 1 2.108 0 0-44.28 18.763-56.16 18.602 0 0-4.79-1.749-4.75-5.132"/>
        <path fill="#373481"
              d="M2265.38 1663.07H583.786V590.961c0-25.579 20.928-46.508 46.507-46.508H2218.87c25.58 0 46.51 20.929 46.51 46.508V1663.07"/>
        <path fill="#DADFEF" d="M643.345 1624.95H2205.82V599.395H643.345z"/>
        <path fill="#575BA3"
              d="M1412.07 570.966c0-6.912 5.6-12.516 12.51-12.516 6.92 0 12.52 5.604 12.52 12.516s-5.6 12.515-12.52 12.515c-6.91 0-12.51-5.603-12.51-12.515"/>
        <path fill="#595AA1" d="M477.155 1663.07H2372.01v-45.7H477.155z"/>
        <path fill="#C4CCE8" d="M683.806 1617.37H2165.66V636.004H683.806z"/>
        <path fill="#595AA1"
              d="M721.255 681.626c0-10.198 8.267-18.465 18.465-18.465s18.466 8.267 18.466 18.465-8.268 18.466-18.466 18.466-18.465-8.268-18.465-18.466M775.625 681.626c0-10.198 8.267-18.465 18.465-18.465 10.199 0 18.466 8.267 18.466 18.465s-8.267 18.466-18.466 18.466c-10.198 0-18.465-8.268-18.465-18.466M831.534 681.626c0-10.198 8.267-18.465 18.466-18.465 10.197 0 18.465 8.267 18.465 18.465s-8.268 18.466-18.465 18.466c-10.199 0-18.466-8.268-18.466-18.466"/>
        <path fill="#373481"
              d="M2778.11 1660.37H10.059c-5.301 0-9.637 4.05-9.637 9v.1c0 4.95 4.336 9 9.637 9H2778.11c5.21 0 9.47-3.98 9.47-8.84v-.42c0-4.86-4.26-8.84-9.47-8.84"/>
        <path fill="#D0A2A9"
              d="M709.564 840.48c-32.9-4.22-41.203 25.7-41.203 25.7s-40.853 16.85-54.664 23.08c-12.787 5.77-51.729 24.95-51.729 24.95s-72.432-86.05-99.806-88.291l4.686 65.751s32.248 35.2 45.1 46.53c8.636 7.62 40.851 29.26 40.851 29.26s30.467-10.04 71.754-40.29c12.959-9.5 49.95-40.44 49.95-40.44 10.141 1.4 19.016-1.24 27.192-12.94 8.176-11.7 10.428-7.21 15.625-15.91 7.052-11.81-3.981-16.21-7.756-17.4"/>
        <path fill="#D2A4AB" d="m341.199 1572 16.094 67.79 24.107-.14.884-67.65h-41.085"/>
        <path fill="#B54D00"
              d="M369.515 1633.81c-27.271-1.18-28.316 26.56-28.316 26.56h55.757s-.17-27.74-27.441-26.56"/>
        <path fill="#D2A4AB" d="m550.429 1574.89 39.34 64.9 24.106-.14-19.408-73.68-44.038 8.92"/>
        <path fill="#B54D00"
              d="M601.991 1633.81c-27.271-1.18-28.316 26.56-28.316 26.56h55.757s-.17-27.74-27.441-26.56"/>
        <path fill="#A33C00"
              d="M424.922 681.272c-8.321-4.73-18.295-5.246-25.27-4.834 1.796-1.854 5.329-2.53 5.329-2.53-4.326-.642-13.981 3.648-13.981 3.648-60.17-23.186-69.627 65.41-68.362 85.994 1.254 20.58-20.22 27.303-51.525 43.52-59.73 30.94-64.976 72.38-64.976 72.38.465.27.951.58 1.467.94 2.964-5.02 9.064-14.45 14.209-15.87-.195.45-6.079 12.98-8.275 20.15 17.621 13.41 50.584 43.11 73.559 64.17-.102-4.12.061-9.96 1.565-13.05l2.839 17.09a3341.375 3341.375 0 0 1 20.771 19.26c-1.519-16.64 75.226-104.41 115.266-130.7 9.747-14.35 13.212-39.698 13.471-41.694-1.682 20.1-5.121 31.374-8.194 37.724 33.905-31.207 14.166-143.664-7.893-156.198"/>
        <path fill="#BC8996"
              d="M425.168 842.75c-5.563-2.6-2.135-49.946-2.135-49.946l-47.137-9.338c1.02 16.879-1.563 42.605-7.413 43.764-.189.04 8.844 17.97 22.656 21.74 14.699 4.01 34.234-6.13 34.029-6.22"/>
        <path fill="#595AA1" d="M376.655 694.43s25.765-23.699 50.76 1.318c0 0-17.063-1.647-50.76-1.318"/>
        <path fill="#B54D00"
              d="M373.951 779.146s-13.047-20.614-16.178-38.24c-2.235-12.584 4.174-59.229 51.048-52.511 0 0 13.614 1.341 26.411 9.984 10.177 6.874 24.865 21.713 8.442 62.417l-4.265 13.75-65.458 4.6"/>
        <path fill="#595AA1"
              d="M461.37 1088.82H347.822c.022.2.05.41.073.61l-49.561.6s-9.249 18.35-13.269 70.59c-5.553 72.13-1.47 206.56 49.426 437.89h64.668c1.427 0 1.007-184.72.446-331.76.226.6.45 1.2.677 1.8 58.6 154.79 144.396 330.7 144.396 330.7h67.207c-13.991-76.32-150.515-510.43-150.515-510.43"/>
        <path fill="#D0A2A9"
              d="M318.673 1017.74c1.089-9.26 16.081-112.19 16.081-112.19l-43.72-4.7s-2.859 15.72-7.849 113.08l-16.513 125.23-1.431 3.87s-21.823 15.15-10.581 42.04c0 0 5.414 10.67 10.961 3.7 5.547-6.97 2.546-5.13 10.554-14.78 8.008-9.65 11.454-22.28 7.906-30.54l-1.018-2.87s34.521-113.59 35.61-122.84"/>
        <path fill="#53529C"
              d="M544.678 1599.25s-85.796-175.91-144.396-330.7c-1.669-21.46-4.472-52.27 8.985-62.99 0 0 142.947 264.67 135.411 393.69M376.55 1598.51h-42.059c-50.896-231.33-54.979-365.76-49.426-437.89 12.627 64.27 84.778 430.58 91.485 437.89"/>
        <path fill="#CD832C"
              d="M470.62 1037.81c-.36 78.92 1.199 84.2 1.199 84.2s-62.859 2.46-103.989-6.72c-.89-.2-1.85-.42-2.88-.68-20.5-5.05-68.7-20.66-68.7-20.66 1.21-3.2 2.41-6.25 3.59-9.18 15.34-38.27 26.99-55.05 28.81-66.82 3.38-21.96 3.45-44.68 1.77-66.12-.79-10.08-1.97-19.87-3.36-29.17-.056-.36-.028-.18 0 0 .027.18.054.35 0 0l-38.88-19.56c8.07-38.8 21.11-55.62 21.11-55.62l.02-.01c15.16-11.49 40.7-21.14 61.72-23.29 4.74 6.85 13.23 13.54 25.8 13.21 14.47-.37 20.87-7.68 25.17-14.46 31.39.85 40.16 2.43 40.16 2.43v.01s11.74-2.44 49.79 29.88c0 0-21.51 49.38-21.77 61.32l-.58-.43c.82 6.28 1.41 12.57 1.71 18.82.47 9.98-20.68 100.64-20.69 102.85"/>
        <path fill="#C47827"
              d="M299.84 1084.77c15.34-38.27 26.99-55.05 28.81-66.82 2.007-13.04 2.847-26.35 2.846-39.49 0-9-.394-17.92-1.076-26.63-.266-3.39-.576-6.75-.924-10.07a434.87 434.87 0 0 0-2.436-19.1c3.959-2.58 9.048-4.93 13.816-4.93 4.793 0 9.262 2.37 11.934 9.27 15.12 39.07 23.74 68.33 12.86 101.67-3.36 10.28-36.05 49.35-65.83 56.1"/>
        <path fill="#D0A2A9"
              d="M431.347 805.288s-58.901.971-58.941-35.718c-.041-36.69-7.67-61.274 29.935-63.446 37.605-2.172 44.927 11.82 47.919 24.064 2.992 12.243-3.593 73.901-18.913 75.1"/>
        <path fill="#B54D00"
              d="M448.509 709.788c-9.09-11.017-15.963-8.623-19.821-5.313-5.099-7.619-14.463-7.148-24.178-5.22-26.433 5.245-27.188 15.305-33.337 29.724-6.965 16.33-18.368 25.388-18.368 25.388s10.736 6.631 35.486.267c19.478-5.009 33.612-32.732 38.751-44.316 3.502 3.113 10.894 10.308 13.108 17.355 2.936 9.343 4.257 28.576 9.863 27.922 0 0 12.15-29.257-1.504-45.807"/>
        <path fill="#3A3582"
              d="m719.595 838.54-21.944-15.065a2.366 2.366 0 0 0-.588-.295l-.016-.012-4.141-1.689-20.192 63.761 17.662 14.3 3.171 1.38h.009l.044.02.003-.01c1.434.58 3.257-.34 4.021-2.21l22.857-56.01c.655-1.61.281-3.36-.886-4.17"/>
        <path fill="#595AA1"
              d="M668.207 881.47 689.146 899c1.477 1.23 3.778.33 4.661-1.84l22.857-56.01c.655-1.61.281-3.36-.886-4.16l-21.944-15.073c-1.496-1.027-3.637-.084-4.476 1.973l-21.853 53.56c-.615 1.5-.327 3.16.702 4.02"/>
        <path fill="#DBC359" d="m671.608 874.6 20.624 17.26 20.73-50.8-21.613-14.839-19.741 48.379"/>
        <path fill="#3A3582"
              d="M679.741 886.28c.287-1.02-.121-2.11-.912-2.43-.79-.32-1.664.24-1.951 1.26-.287 1.02.122 2.11.912 2.44.791.32 1.664-.25 1.951-1.27"/>
        <path fill="#CD832C"
              d="m687.333 850.26 12.17 8.29 5.198-12.54-12.113-7.71-5.255 11.96Zm12.485 9.35-13.353-9.1 5.813-13.23 13.288 8.46-5.748 13.87ZM678.652 868.7l12.171 8.29 5.198-12.55-12.113-7.71-5.256 11.97Zm12.485 9.34-13.353-9.1 5.814-13.23 13.288 8.46-5.749 13.87Z"/>
        <path fill="#CD832C"
              d="M692.63 843.37s.695 6.9 0 9.57c0 0 13.777-7.76 16.209-7.88 0 0-11.1.6-13.675 2.09l-2.534-3.78"/>
        <path fill="#EACF65" d="m1762.61 805.559-182.85-99.392 129-237.328 182.85 99.392-129 237.328"/>
        <path fill="#DBB357"
              d="m1731.02 550.996-32.13-17.467 17.47-32.135 32.13 17.468-17.47 32.134m-13.19-44.614-13.95 25.672 25.67 13.955 13.95-25.672-25.67-13.955M1702.65 603.2l-32.14-17.466 17.47-32.134 32.13 17.468-17.46 32.132m-13.2-44.612-13.95 25.671 25.67 13.955 13.96-25.672-25.68-13.954M1674.27 655.406l-32.14-17.467 17.47-32.134 32.14 17.467-17.47 32.134m-13.19-44.614-13.96 25.672 25.67 13.955 13.96-25.673-25.67-13.954M1645.89 707.611l-32.13-17.467 17.46-32.134 32.14 17.467-17.47 32.134m-13.19-44.615-13.96 25.674 25.68 13.955 13.95-25.673-25.67-13.956M1843.14 584.437c-.38 0-.77-.093-1.13-.288l-83.05-45.144a2.38 2.38 0 0 1 1.14-4.469c.39 0 .77.092 1.13.287l83.05 45.145a2.392 2.392 0 0 1 .96 3.227 2.383 2.383 0 0 1-2.1 1.242M1837.8 594.258c-.38 0-.77-.093-1.13-.288l-83.05-45.143a2.382 2.382 0 0 1 1.14-4.47c.39 0 .78.092 1.13.287l83.05 45.145a2.392 2.392 0 0 1 .96 3.227 2.383 2.383 0 0 1-2.1 1.242M1813.62 638.733c-.38 0-.77-.092-1.12-.287l-83.05-45.144a2.385 2.385 0 0 1-.96-3.228 2.383 2.383 0 0 1 3.23-.955l83.05 45.145a2.38 2.38 0 0 1-1.15 4.469M1808.29 648.554c-.39 0-.77-.092-1.13-.287l-83.05-45.144a2.394 2.394 0 0 1-.96-3.228 2.385 2.385 0 0 1 3.23-.954l83.05 45.143a2.382 2.382 0 0 1-1.14 4.47M1785.25 690.938c-.39 0-.77-.092-1.13-.287l-83.05-45.144a2.393 2.393 0 0 1-.96-3.227 2.396 2.396 0 0 1 2.1-1.243c.38 0 .77.093 1.13.288l83.05 45.144a2.394 2.394 0 0 1 .96 3.228 2.396 2.396 0 0 1-2.1 1.241M1779.91 700.759c-.38 0-.77-.092-1.13-.287l-83.05-45.144a2.394 2.394 0 0 1-.96-3.228 2.395 2.395 0 0 1 2.1-1.242c.39 0 .77.093 1.13.287l83.05 45.145a2.394 2.394 0 0 1 .96 3.228 2.394 2.394 0 0 1-2.1 1.241M1757.27 742.415c-.39 0-.78-.092-1.13-.287l-83.05-45.144a2.394 2.394 0 0 1-.96-3.228 2.383 2.383 0 0 1 3.23-.955l83.05 45.144a2.382 2.382 0 0 1-1.14 4.47M1751.93 752.236c-.39 0-.77-.092-1.13-.287l-83.05-45.144a2.394 2.394 0 0 1-.96-3.228 2.395 2.395 0 0 1 2.1-1.242c.38 0 .77.093 1.13.287l83.05 45.145a2.394 2.394 0 0 1 .96 3.228 2.396 2.396 0 0 1-2.1 1.241"/>
        <path fill="#C2541E"
              d="M1721.19 499.383s.4 22.749.06 35.928c0 0 33.84-28.128 49.14-35.395 0 0-24.03 5.15-40.61 14.672 0 0-3.85-6.957-8.59-15.205"/>
        <path fill="#A36D3C"
              d="m1636.95 505.789 12.21 7.774c3.29 2.557 6.12 4.231 10.22 3.469 9.89-1.838 30.08-2.676 45.41 15.767 0 0 7.88 11.033-2.03 12.95-9.91 1.916-6.49-.133-20.38 2.851-13.89 2.983-28.77-5.79-33.51-10.259l-13.59-10.663 1.67-21.889"/>
        <path fill="#E2E5F2" d="m2230.34 1181.23-140.82-23.95 31.08-182.78 140.82 23.95-31.08 182.78"/>
        <path fill="#CDD2EA"
              d="m2130.81 1017.1 20.88 3.55 3.55-20.88-20.87-3.55-3.56 20.88Zm22.03 5.16-23.64-4.01 4.02-23.65 23.64 4.02-4.02 23.64ZM2123.98 1057.3l20.88 3.56 3.55-20.88-20.88-3.56-3.55 20.88Zm22.02 5.17-23.64-4.02 4.02-23.64 23.64 4.02-4.02 23.64ZM2117.14 1097.51l20.88 3.55 3.55-20.88-20.88-3.55-3.55 20.88Zm22.03 5.17-23.65-4.02 4.02-23.64 23.64 4.02-4.01 23.64ZM2110.3 1137.72l20.88 3.55 3.55-20.88-20.88-3.55-3.55 20.88Zm22.03 5.16-23.64-4.02 4.02-23.64 23.64 4.02-4.02 23.64ZM2232.74 1019.8l-63.96-10.88c-.89-.15-1.49-1-1.34-1.88.15-.89 1-1.49 1.89-1.34l63.96 10.88c.88.15 1.49 1 1.34 1.88-.16.89-1 1.49-1.89 1.34M2231.46 1027.36l-63.97-10.87c-.88-.16-1.48-1-1.33-1.89.15-.88 1-1.49 1.88-1.34l63.96 10.88c.89.15 1.49 1 1.34 1.89-.15.88-1 1.48-1.88 1.33M2225.63 1061.62l-63.96-10.88c-.89-.15-1.49-1-1.34-1.89.15-.88 1-1.48 1.89-1.33l63.96 10.87c.88.16 1.49 1 1.33 1.89-.15.89-.99 1.49-1.88 1.34M2224.34 1069.18l-63.96-10.88c-.88-.15-1.49-1-1.34-1.88.16-.89 1-1.49 1.89-1.34l63.96 10.88c.89.15 1.49 1 1.34 1.88-.15.89-1 1.49-1.89 1.34M2218.79 1101.82l-63.96-10.88c-.88-.15-1.49-.99-1.34-1.88.15-.89 1-1.49 1.89-1.34l63.96 10.88c.89.15 1.49 1 1.34 1.89-.15.88-1 1.48-1.89 1.33M2217.51 1109.39l-63.97-10.88c-.88-.15-1.48-1-1.33-1.89.15-.88 1-1.48 1.88-1.33l63.96 10.88a1.631 1.631 0 1 1-.54 3.22M2212.05 1141.47l-63.96-10.88c-.89-.15-1.49-1-1.34-1.88.15-.89 1-1.49 1.89-1.34l63.96 10.88c.88.15 1.48 1 1.33 1.88-.15.89-.99 1.49-1.88 1.34M2210.76 1149.03l-63.96-10.88c-.88-.15-1.49-.99-1.33-1.88.15-.89.99-1.49 1.88-1.34l63.96 10.88c.89.15 1.49 1 1.34 1.88-.15.89-1 1.49-1.89 1.34"/>
        <path fill="#B85600"
              d="M2128.19 1033.4s5.31 14.68 8.02 23.31c0 0 15.73-25.78 24.05-33.89 0 0-14.46 8.68-23.11 18.54 0 0-4.05-3.66-8.96-7.96"/>
        <path fill="#A06D3C"
              d="m2620.26 1118.26 4.04 10.66s-14.9 21.58 9.88 34.65c0 0 10.81 4.7 13.06-2.96s.09-4.86 3.54-15.63c3.46-10.78.76-21.32-6.95-25.29l-5.41-7.21-18.16 5.78"/>
        <path fill="#915C2F"
              d="M2529.42 784.072c-2.17-23.701-1.23-37.579-1.23-37.579l48-32.992c-5.51 49.986 24.77 76.536 24.77 76.536s-62.53 25.061-96.53 11.414c0 0 9.42-10.306 24.99-17.379"/>
        <path fill="#272253"
              d="m2362.98 1634.39-7.84 25.94h-77.82s19.91-34.99 85.66-25.94M2583.29 1634.59l-8 25.89-77.82-.49s20.12-34.86 85.82-25.4"/>
        <path fill="#2F2C60"
              d="M2495.82 1111.85s-21.56 361.38 17.09 526.58l73.05.56s22.95-490.06 12.76-522.92l-102.9-4.22"/>
        <path fill="#373481"
              d="M2598.72 1116.07s-23.72 107.62-65.56 224.84c-37.99 106.49-108.58 236.67-165.53 298.08l-63.29-2.93s114.61-479.42 129.87-514.04l164.51-5.95"/>
        <path fill="#A06D3C"
              d="M2517.6 744.852s56.8 13.952 64.94-21.555c8.15-35.506 20.96-57.619-14.96-68.028-35.92-10.409-46.1 1.518-51.7 12.708-5.6 11.19-12.85 72.331 1.72 76.875"/>
        <path fill="#2F2C60"
              d="M2579.67 731.637s1.35-48.653-54.57-61.954c-38.3-9.111-13.32-37.086-8.65-41.447 0 0 29.22 8.169 59.07 17.342 62.67 19.254 11.23 79.498 4.15 86.059"/>
        <path fill="#BE7123"
              d="M2640.86 1133.82c-11.04-.52-22.26-4.14-22.26-4.14s-7.69-104.27-9.56-114.08c-1.87-9.81-65.26-135.99-65.26-135.99l59.66-83.634s55.8 184.294 61.19 209.024c5.4 24.72-7.78 126.2-7.78 126.2s-7.32 3.03-15.99 2.62"/>
        <path fill="#CD832C"
              d="M2616.59 964.21c-9.13 67.84-12.29 126.04-13.14 144.99a7.985 7.985 0 0 1-6.78 7.54c-46.15 7.08-93.91 8.08-127.08 7.5-15.2-.27-27.34-.87-34.86-1.37-1.39-.1-2.61-.65-3.55-1.49l-.07-.06a5.974 5.974 0 0 1-1.9-4.03c-.01-.3 0-.6.03-.9.06-.6.21-1.2.47-1.79 4.51-10.36 14.6-37.86 16.16-85.43l.01-.2c.38-12 .52-26.63.83-42.49.05-2.73.11-5.49.18-8.27 1.04-43.39 3.93-93.76 17.04-124.14 11.46-26.54 26.57-44.824 42.33-57.234.12 0 12.73-9.78 12.81-9.78 11.91 3.48 25.33-1.06 38.54-6.33 14.46-5.759 29.27-7.64 31.47-5.72 30.57 26.72 38.68 106.264 27.51 189.204"/>
        <path fill="#2F2C60"
              d="M2349.06 1606.94c9.04-46.63 22.18-101.12 38.62-156.99 2.52-8.55 5.16-17.32 7.84-26.07 2.97-9.66 6.03-19.42 9.1-29.01 1.06-3.3 3.3-6.75 5.46-10.08 2.01-3.1 4.09-6.31 5.02-9.15 11.94-36.37 24.43-69.14 35.45-98.05 2.89-7.58 5.72-15 8.47-22.28 24.79-65.82 38.62-103.2 38.73-103.58-.11.38-11.76 38.32-36.59 104.23-2.75 7.29-5.58 14.71-8.47 22.3-11.01 28.88-23.49 61.61-35.41 97.93-1.04 3.17-3.22 6.53-5.32 9.77-2.07 3.19-4.2 6.48-5.15 9.43-3.07 9.58-6.12 19.33-9.09 28.98-2.68 8.75-5.32 17.51-7.83 26.04-16.42 55.8-31.21 110.22-40.23 156.78l-.6-.25"/>
        <path fill="#272253"
              d="M2487.16 1157.15c-36.57 0-52.45-26.52-52.61-26.8l1.69-.98c22.17 28.94 52.24 27.77 52.24 27.77-.44.01-.89.01-1.32.01"/>
        <path fill="#C47827"
              d="M2469.59 1124.24c-15.2-.27-27.34-.87-34.86-1.37-1.39-.1-2.61-.65-3.55-1.49l-.07-.06a5.974 5.974 0 0 1-1.9-4.03v-.23c0-.22.01-.45.03-.67.06-.6.21-1.2.47-1.79 4.51-10.36 14.6-37.86 16.16-85.43l.01-.2c.38-12 .52-26.63.83-42.49.05-2.73.11-5.49.18-8.27 16.69-40.77 40.61-82.31 63.55-105.57 5.51-5.59 11.86-8.09 18.07-8.09 15.02 0 29.25 14.65 28.91 35.77-.96 59.22-7.89 161.31-28.02 183.51-20.22 22.31-36.98 35.9-59.81 40.41"/>
        <path fill="#A06D3C"
              d="m2276.91 1030.84-15.51 3.38s-26.06-16.45-49.69 7.71c0 0-8.94 10.61 1.01 13.38 9.95 2.78 6.63.4 20.55 4.59 13.93 4.19 28.98 2.16 36.2-5.37l11.12-4.99-3.68-18.7"/>
        <path fill="#CD832C"
              d="m2267.57 1030.99 2.64 25.06s128.9-6 151.55-16.8c0 0 139.66-105.23 145.06-178.8 4.88-66.525-24.26-69.868-24.26-69.868s-38.2-12.472-148.16 192.808c0 0-49.47 11.85-126.83 47.6"/>
        <path fill="#EACF65" d="M1305.01 806.832 1164.02 936.88l-168.8-183.004 141-130.044 168.79 183"/>
        <path fill="#DBB357"
              d="m1048.74 781.692-22.86-24.778 24.78-22.855 22.86 24.779-24.78 22.854m1.73-42.844-19.8 18.259 18.26 19.796 19.8-18.26-18.26-19.795M1085.87 821.947l-22.86-24.779 24.78-22.854 22.86 24.778-24.78 22.855m1.73-42.845-19.8 18.26 18.26 19.795 19.8-18.259-18.26-19.796M1132.66 853.28h-4.99l15.32-14.13-18.26-19.793-19.8 18.263 14.45 15.66h-4.61l-14.63-15.86 24.78-22.851 22.85 24.781-15.11 13.93M1069.86 731.482a2.195 2.195 0 0 1-1.49-3.804l64.04-59.066c.42-.387.95-.579 1.49-.579.59 0 1.18.237 1.61.704.82.887.76 2.282-.13 3.1l-64.04 59.067c-.41.387-.95.578-1.48.578M1076.84 739.055c-.59 0-1.18-.237-1.61-.704a2.196 2.196 0 0 1 .13-3.1l64.03-59.067a2.2 2.2 0 0 1 3.1.126c.82.887.77 2.282-.12 3.1l-64.04 59.066c-.42.387-.95.579-1.49.579M1108.48 773.349c-.6 0-1.19-.237-1.62-.704a2.195 2.195 0 0 1 .13-3.099l64.04-59.067c.42-.387.95-.579 1.48-.579.59 0 1.18.237 1.62.704.81.886.76 2.282-.13 3.1l-64.04 59.066c-.42.387-.95.579-1.48.579M1115.46 780.922c-.59 0-1.18-.237-1.61-.704a2.205 2.205 0 0 1 .12-3.1l64.04-59.067c.42-.387.95-.578 1.49-.578.59 0 1.18.237 1.61.705.82.886.76 2.28-.12 3.099l-64.04 59.066a2.2 2.2 0 0 1-1.49.579M1145.6 813.604c-.59 0-1.18-.237-1.61-.704a2.196 2.196 0 0 1 .13-3.1l64.04-59.067c.41-.387.95-.578 1.48-.578.59 0 1.18.236 1.61.703.82.888.77 2.282-.12 3.1l-64.04 59.067c-.42.387-.95.579-1.49.579M1152.59 821.176a2.194 2.194 0 0 1-1.49-3.803l64.04-59.066c.42-.388.95-.579 1.49-.579.59 0 1.18.237 1.61.703.82.887.76 2.283-.13 3.101l-64.04 59.066c-.41.387-.95.578-1.48.578M1182.45 853.28h-.47c-.51-.05-1.01-.28-1.38-.69-.82-.88-.76-2.28.13-3.1l64.04-59.064a2.205 2.205 0 0 1 3.1.126c.81.887.76 2.281-.13 3.099l-64.04 59.069c-.36.33-.79.51-1.25.56M1198.28 853.28h-6.47l59.94-55.28c.42-.388.95-.579 1.49-.579.59 0 1.18.237 1.61.703.82.888.76 2.283-.13 3.1l-56.44 52.056"/>
        <path fill="#C2541E"
              d="M1025.56 752.1s19.97 6.401 31.37 10.607c0 0-14.5-37.876-16.3-53.379 0 0-2.64 22.492.75 39.788 0 0-7.21 1.296-15.82 2.984"/>
        <path fill="#595AA1"
              d="m1386.36 1428.73-.05-.02v-55.86l-74.48 16.9.55 3.31v.03l-.04-.03-61.94-29.85-9.47 26.21-16.21-32.43-51.7 34.48-5.85-34.48-84.49 19.15 30.33-35.03-76.65-88.55-54.64 63.11-94.398 21.4-.113-.05v280.35h499.101v-188.52l.05-.12"/>
        <path fill="#A3AAD3"
              d="m1082.68 1376.14 30.33-35.03-76.65-88.55-54.64 63.11-94.398 21.4-.052-.02V853.28h199.64-65.51c-1.68 0-3.06 1.38-3.06 3.06v.46c0 1.68 1.38 3.05 3.06 3.05h71.57l43.79 47.48v456.55l-54.08 12.26"/>
        <path fill="#BEAC77" d="m1136.76 907.33-43.79-47.48h27.86l2.17 2.35 2.54-2.35h11.22v47.48"/>
        <path fill="#B3986D" d="m1123 862.2-2.17-2.35h4.71l-2.54 2.35"/>
        <path fill="#585AA1"
              d="M1136.76 1617.34H887.27v-280.29l.052.02 94.398-21.4 54.64-63.11 76.65 88.55-30.33 35.03 54.08-12.26v253.46"/>
        <path fill="#B9C0E1"
              d="M1386.31 1617.37v-188.52 188.52m0-188.66v-55.86l-74.48 16.9.55 3.31v.03l-.04-.03-61.94-29.85-9.47 26.21-16.21-32.43-51.7 34.48-5.85-34.48-30.36 6.88V907.39l27.21 29.49 90.54-83.52h131.75v575.35"/>
        <path fill="#DBC36B"
              d="m1164.02 936.88-27.21-29.49v-47.54h19.79l-19.33 17.83 22.86 24.77 24.77-22.85-18.21-19.75h20.66c.06.11.15.22.24.32a2.206 2.206 0 0 0 3.1.12l.47-.44h50.48c1.68 0 3.05-1.37 3.05-3.05v-.46c0-1.45-1.01-2.67-2.37-2.98h12.24l-90.54 83.52m-3.7-39.21-18.26-19.8 19.54-18.02h.48l18.03 19.56-19.79 18.26"/>
        <path fill="#CEAA5F"
              d="m1160.13 902.45-22.86-24.77 19.33-17.83h5l-19.54 18.02 18.26 19.8 19.79-18.26-18.03-19.56h4.61l18.21 19.75-24.77 22.85M1189.2 860.87c-.59 0-1.18-.24-1.61-.7-.09-.1-.18-.21-.24-.32h3.81l-.47.44c-.42.39-.96.58-1.49.58"/>
        <path fill="#595AA1"
              d="M1386.31 1617.37h-249.55v-.03h.05v-253.47l30.36-6.88 5.85 34.48 51.7-34.48 16.21 32.43 9.47-26.21 61.94 29.85.04.03v-.03l-.55-3.31 74.48-16.9v244.52"/>
        <path fill="#9BA2CE" d="M1136.76 1363.88V907.33l.05.06v456.48l-.05.01"/>
        <path fill="#B3A47B" d="m1136.81 907.39-.05-.06v-47.48h.05v47.54"/>
        <path fill="#585AA1" d="M1136.81 1617.34h-.05v-253.46l.05-.01v253.47"/>
        <path fill="#BEAC77"
              d="M1242.32 853.36h-44.12l.08-.08h43.36c.23 0 .46.03.68.08m-50.59 0h-54.92v-.08h45.17c.08.01.16.02.24.02.08 0 .16-.01.23-.02h9.36l-.08.08"/>
        <path fill="#B3986D"
              d="M1182.22 853.3c-.08 0-.16-.01-.24-.02h.47c-.07.01-.15.02-.23.02M1198.2 853.36h-6.47l.08-.08h6.47l-.08.08"/>
        <path fill="#8C92C4"
              d="M1092.97 859.85h-71.57c-1.68 0-3.06-1.37-3.06-3.05v-.46c0-1.68 1.38-3.06 3.06-3.06h65.51l6.06 6.57"/>
        <path fill="#9F9484"
              d="M1136.76 859.85h-11.22l7.12-6.57h4.15v.08h-.05v6.49m-15.93 0h-27.86l-6.06-6.57h27.86l6.06 6.57m2.36-2.44-3.81-4.13h8.29l-4.48 4.13"/>
        <path fill="#97867D" d="M1125.54 859.85h-4.71l-6.06-6.57h4.61l3.81 4.13 4.48-4.13h4.99l-7.12 6.57"/>
        <path fill="#B3A47B"
              d="M1241.64 859.85h-50.48l7.04-6.49h44.12c1.36.31 2.37 1.53 2.37 2.98v.46c0 1.68-1.37 3.05-3.05 3.05m-54.29 0h-20.66l-4.64-5.03-5.45 5.03h-19.79v-6.49h54.92l-4.02 3.71c-.79.72-.92 1.9-.36 2.78m-25.27 0h-.48l.26-.24.22.24"/>
        <path fill="#AA9273"
              d="M1166.69 859.85h-4.61l-.22-.24-.26.24h-5l5.45-5.03 4.64 5.03M1191.16 859.85h-3.81c-.56-.88-.43-2.06.36-2.78l4.02-3.71h6.47l-7.04 6.49"/>
        <path fill="#978E86" d="M1136.76 859.85h.05v-6.49h-.05z"/>
        <path fill="#595AA1"
              d="m1974.71 1428.73-.05-.02v-55.86l-74.48 16.9.55 3.31v.03l-.05-.03-61.94-29.85-9.46 26.21-16.21-32.43-51.7 34.48-5.86-34.48-84.48 19.15 30.33-35.03-76.65-88.55-54.64 63.11-94.4 21.4-.11-.05v280.35h499.1v-188.52l.05-.12"/>
        <path fill="#A3AAD3"
              d="m1671.03 1376.14 30.33-35.03-76.65-88.55-54.64 63.11-94.4 21.4-.05-.02V853.28h249.54-115.42c-1.68 0-3.05 1.38-3.05 3.06v.46c0 1.68 1.37 3.05 3.05 3.05h115.37v155.72c-19.37-27.81-37.14-67.37-37.14-67.37l-92.32 115.61s26.46 50.63 56.49 82.93c23.4 25.17 58.53 48.68 72.97 57.88v159.26l-54.08 12.26"/>
        <path fill="#8C92C4"
              d="M1725.11 1204.62c-14.44-9.2-49.57-32.71-72.97-57.88-30.03-32.3-56.49-82.93-56.49-82.93l92.32-115.61s17.77 39.56 37.14 67.37v189.05"/>
        <path fill="#585AA1"
              d="M1725.11 1617.34h-249.49v-280.29l.05.02 94.4-21.4 54.64-63.11 76.65 88.55-30.33 35.03 54.08-12.26v253.46"/>
        <path fill="#B9C0E1"
              d="M1974.66 1617.37v-188.52 188.52m0-188.66v-55.86l-74.48 16.9.55 3.31v.03l-.05-.03-61.94-29.85-9.46 26.21-16.21-32.43-51.7 34.48-5.86-34.48-30.35 6.88v-159.22c4.09 2.6 6.51 4.05 6.51 4.05l92.31-115.61s-53.92-27.31-86.49-61.91c-4.08-4.33-8.24-9.67-12.33-15.54V859.85h104.83c1.68 0 3.05-1.37 3.05-3.05v-.46c0-1.45-1.01-2.67-2.37-2.98h143.99v575.35"/>
        <path fill="#9BA2CE"
              d="M1731.67 1208.7s-2.42-1.45-6.51-4.05v-189.01c4.09 5.87 8.25 11.21 12.33 15.54 32.57 34.6 86.49 61.91 86.49 61.91l-92.31 115.61"/>
        <path fill="#595AA1"
              d="M1974.66 1617.37h-249.55v-.03h.05v-253.47l30.35-6.88 5.86 34.48 51.7-34.48 16.21 32.43 9.46-26.21 61.94 29.85.05.03v-.03l-.55-3.31 74.48-16.9v244.52"/>
        <path fill="#9BA2CE"
              d="M1725.11 1363.88v-159.26c.02.01.04.02.05.03v159.22l-.05.01m.05-348.24a.304.304 0 0 0-.05-.07V859.85h.05v155.79"/>
        <path fill="#878CC0" d="M1725.16 1204.65c-.01-.01-.03-.02-.05-.03v-189.05c.02.02.04.05.05.07v189.01"/>
        <path fill="#585AA1" d="M1725.16 1617.34h-.05v-253.46l.05-.01v253.47"/>
        <path fill="#A3AAD3" d="M1830.67 853.36h-105.51v-.08h104.83c.23 0 .46.03.68.08"/>
        <path fill="#8C92C4"
              d="M1725.11 859.85h-115.37c-1.68 0-3.05-1.37-3.05-3.05v-.46c0-1.68 1.37-3.06 3.05-3.06h115.42v.08h-.05v6.49"/>
        <path fill="#9BA2CE"
              d="M1829.99 859.85h-104.83v-6.49h105.51c1.36.31 2.37 1.53 2.37 2.98v.46c0 1.68-1.37 3.05-3.05 3.05"/>
        <path fill="#868DC0" d="M1725.11 859.85h.05v-6.49h-.05z"/>
    </g>
</svg>