<svg version="1.1" id="Calque_1" xmlns="http://www.w3.org/2000/svg"
     width="20px" height="20px" viewBox="0 0 20 20" enable-background="new 0 0 20 20">
    <path fill="#6A6AF4" d="M10,1.37c4.767,0,8.63,3.864,8.63,8.63c0,4.767-3.863,8.63-8.63,8.63c-1.418,0.002-2.813-0.346-4.063-1.015
	L1.37,18.63l1.014-4.566C1.716,12.813,1.368,11.418,1.37,10C1.37,5.234,5.233,1.37,10,1.37z M10,3.096
	c-3.813,0-6.903,3.091-6.903,6.904c0,1.151,0.279,2.26,0.811,3.25l0.301,0.563l-0.565,2.543l2.544-0.564l0.563,0.301
	c0.999,0.535,2.116,0.813,3.249,0.812c3.813,0,6.904-3.092,6.904-6.904C16.904,6.187,13.813,3.096,10,3.096z"/>
</svg>
