<svg width="20" height="20" viewBox="0 0 20 20" fill="none" xmlns="http://www.w3.org/2000/svg">    <path fill-rule="evenodd" clip-rule="evenodd" d="M19 0C19.5523 0 20 0.447715 20 1V15C20 15.5523 19.5523 16 19 16H4.455L0 19.5V1C0 0.447715 0.447715 0 1 0H19ZM18 2H2V15.385L3.763 14H18V2ZM11 11V13H9V11H11ZM10.4592 3.02822C12.2875 3.27003 13.6148 4.88878 13.4936 6.72908C13.3724 8.56938 11.8443 10.0001 10 10H9V8H10C10.7902 7.99995 11.4448 7.38695 11.4967 6.59851C11.5486 5.81006 10.9799 5.11655 10.1966 5.01295C9.41325 4.90935 8.68387 5.43117 8.529 6.206L6.567 5.813C6.92838 4.00447 8.6308 2.78641 10.4592 3.02822Z" fill="#000091"/></svg>