<svg xmlns="http://www.w3.org/2000/svg" width="20px" height="20px" viewBox="0 0 20 20"
     enable-background="new 0 0 20 20">
<g>
    <path fill-rule="evenodd" clip-rule="evenodd" fill="#626262" d="M19.814,10.874c0.002,1.274-0.312,2.528-0.912,3.652l0.912,4.104l-4.104-0.912
		c-1.124,0.602-2.378,0.914-3.652,0.912c-4.283,0-7.755-3.472-7.755-7.755c0-4.283,3.472-7.755,7.755-7.755
		C16.343,3.118,19.814,6.59,19.814,10.874z M5.855,10.874c0,3.426,2.778,6.205,6.204,6.205c1.019,0.001,2.022-0.248,2.921-0.729
		l0.507-0.271l2.286,0.508l-0.509-2.285l0.271-0.507c0.477-0.89,0.729-1.886,0.729-2.92c0-3.426-2.778-6.205-6.205-6.205
		C8.633,4.669,5.855,7.447,5.855,10.874z"/>
    <path fill-rule="evenodd" clip-rule="evenodd" fill="#626262" d="M4.214,15.986c-0.293-0.448-0.55-0.922-0.764-1.419l-1.222,0.271l0.508-2.285l-0.271-0.507
		c-0.477-0.89-0.729-1.886-0.729-2.92c0-3.107,2.284-5.681,5.266-6.134c0.952-0.613,2.019-1.061,3.165-1.297
		c-0.705-0.21-1.452-0.325-2.226-0.325c-4.284,0-7.756,3.472-7.756,7.756c-0.001,1.274,0.311,2.528,0.912,3.652l-0.912,4.104
		L4.214,15.986z"/>
</g>
</svg>
