<svg xmlns="http://www.w3.org/2000/svg" xmlns:xlink="http://www.w3.org/1999/xlink" width="2732" height="2752">
    <defs>
        <linearGradient id="b" x1="105.421%" x2="32.581%" y1="111.249%" y2="34.149%">
            <stop offset="0%" stop-color="#DAE2FD"/>
            <stop offset="100%" stop-color="#E9EEFC"/>
        </linearGradient>
        <linearGradient id="e" x1="0%" x2="100%" y1="50%" y2="50%">
            <stop offset="0%" stop-color="#DAE2FD"/>
            <stop offset="100%" stop-color="#E9EEFC"/>
        </linearGradient>
        <linearGradient id="h" x1="0%" x2="100%" y1="50.001%" y2="50.001%">
            <stop offset="0%" stop-color="#DAE2FD"/>
            <stop offset="100%" stop-color="#E9EEFC"/>
        </linearGradient>
        <linearGradient id="k" x1="36.105%" x2="51.049%" y1="150.85%" y2="41.592%">
            <stop offset="0%" stop-color="#FDBAB9"/>
            <stop offset="100%" stop-color="#FF928E"/>
        </linearGradient>
        <linearGradient id="n" x1="-23.611%" x2="112.611%" y1="151.682%" y2="-28.877%">
            <stop offset="0%" stop-color="#4F52FF"/>
            <stop offset="100%" stop-color="#4042E1"/>
        </linearGradient>
        <linearGradient id="q" x1="51.503%" x2="49.647%" y1="95.23%" y2="19.082%">
            <stop offset="0%" stop-color="#FDBAB9"/>
            <stop offset="100%" stop-color="#FF928E"/>
        </linearGradient>
        <linearGradient id="t" x1="52.245%" x2="47.828%" y1="215.675%" y2="-94.679%">
            <stop offset="0%" stop-color="#FDBAB9"/>
            <stop offset="100%" stop-color="#FF928E"/>
        </linearGradient>
        <linearGradient id="w" x1="53.191%" x2="46.923%" y1="222.645%" y2="-104.499%">
            <stop offset="0%" stop-color="#FDBAB9"/>
            <stop offset="100%" stop-color="#FF928E"/>
        </linearGradient>
        <linearGradient id="z" x1="-38.158%" x2="106.606%" y1="-102.193%" y2="119.757%">
            <stop offset="0%" stop-color="#08005D"/>
            <stop offset="100%" stop-color="#1A0F91"/>
        </linearGradient>
        <linearGradient id="C" x1="-2.18%" x2="122.042%" y1="-16.717%" y2="152.492%">
            <stop offset="0%" stop-color="#08005D"/>
            <stop offset="100%" stop-color="#1A0F91"/>
        </linearGradient>
        <linearGradient id="F" x1="-52.753%" x2="86.585%" y1="204.264%" y2="19.569%">
            <stop offset="0%" stop-color="#4F52FF"/>
            <stop offset="100%" stop-color="#4042E1"/>
        </linearGradient>
        <linearGradient id="I" x1="84.574%" x2="-104.149%" y1="-15.261%" y2="299.992%">
            <stop offset="0%" stop-color="#FF928E"/>
            <stop offset="100%" stop-color="#FD6F61"/>
        </linearGradient>
        <linearGradient id="L" x1="56.137%" x2="48.966%" y1="-7.269%" y2="53.007%">
            <stop offset="0%" stop-color="#FF928E"/>
            <stop offset="100%" stop-color="#FD6F61"/>
        </linearGradient>
        <linearGradient id="O" x1="-5.433%" x2="90.159%" y1="147.847%" y2="-10.075%">
            <stop offset="0%" stop-color="#4F52FF"/>
            <stop offset="100%" stop-color="#4042E1"/>
        </linearGradient>
        <linearGradient id="R" x1="-19.992%" x2="70.528%" y1="167.931%" y2="11.582%">
            <stop offset="0%" stop-color="#4F52FF"/>
            <stop offset="100%" stop-color="#4042E1"/>
        </linearGradient>
        <linearGradient id="U" x1="49.822%" x2="50.193%" y1="48.79%" y2="50.917%">
            <stop offset="0%" stop-color="#08005D"/>
            <stop offset="100%" stop-color="#1A0F91"/>
        </linearGradient>
        <linearGradient id="X" x1="50.323%" x2="43.643%" y1="3.186%" y2="96.473%">
            <stop offset="0%" stop-color="#08005D"/>
            <stop offset="100%" stop-color="#1A0F91"/>
        </linearGradient>
        <linearGradient id="aa" x1="49.961%" x2="50.137%" y1="-.063%" y2="100.056%">
            <stop offset="0%" stop-color="#FF928E"/>
            <stop offset="100%" stop-color="#FD6F61"/>
        </linearGradient>
        <linearGradient id="ad" x1="-39.705%" x2="103.105%" y1="-21.708%" y2="92.45%">
            <stop offset="0%" stop-color="#FF928E"/>
            <stop offset="100%" stop-color="#FD6F61"/>
        </linearGradient>
        <linearGradient id="ag" x1="49.667%" x2="50.175%" y1="-52.858%" y2="110.932%">
            <stop offset="0%" stop-color="#FF928E"/>
            <stop offset="100%" stop-color="#FD6F61"/>
        </linearGradient>
        <linearGradient id="aj" x1="49.8%" x2="50.049%" y1="39.091%" y2="56.48%">
            <stop offset="0%" stop-color="#FF928E"/>
            <stop offset="100%" stop-color="#FD6F61"/>
        </linearGradient>
        <linearGradient id="am" x1="70.338%" x2="42.654%" y1="-48.535%" y2="72.696%">
            <stop offset="0%" stop-color="#FF928E"/>
            <stop offset="100%" stop-color="#FD6F61"/>
        </linearGradient>
        <linearGradient id="ap" x1="139.705%" x2="-3.105%" y1="-21.708%" y2="92.45%">
            <stop offset="0%" stop-color="#FF928E"/>
            <stop offset="100%" stop-color="#FD6F61"/>
        </linearGradient>
        <linearGradient id="as" x1="50.333%" x2="49.825%" y1="-52.895%" y2="110.929%">
            <stop offset="0%" stop-color="#FF928E"/>
            <stop offset="100%" stop-color="#FD6F61"/>
        </linearGradient>
        <linearGradient id="av" x1="50.199%" x2="49.956%" y1="39.646%" y2="56.146%">
            <stop offset="0%" stop-color="#FF928E"/>
            <stop offset="100%" stop-color="#FD6F61"/>
        </linearGradient>
        <linearGradient id="ay" x1="59.565%" x2="48.489%" y1="41.475%" y2="50.545%">
            <stop offset="0%" stop-color="#08005D"/>
            <stop offset="100%" stop-color="#1A0F91"/>
        </linearGradient>
        <linearGradient id="aB" x1="84.256%" x2="7.36%" y1="-7.046%" y2="120.483%">
            <stop offset="0%" stop-color="#FDBAB9"/>
            <stop offset="100%" stop-color="#FF928E"/>
        </linearGradient>
        <linearGradient id="aE" x1="116.882%" x2="1.776%" y1="-25.875%" y2="115.359%">
            <stop offset="0%" stop-color="#FFE6E6"/>
            <stop offset="100%" stop-color="#FFD7D5"/>
        </linearGradient>
        <linearGradient id="aH" x1="554.046%" x2="-261.038%" y1="-753.461%" y2="1019.92%">
            <stop offset="0%" stop-color="#FFE9E9"/>
            <stop offset="100%" stop-color="#FFDCDB"/>
        </linearGradient>
        <linearGradient id="aK" x1="374.049%" x2="-441.036%" y1="-753.461%" y2="1019.92%">
            <stop offset="0%" stop-color="#FFE9E9"/>
            <stop offset="100%" stop-color="#FFDCDB"/>
        </linearGradient>
        <linearGradient id="aN" x1="194.068%" x2="-621.016%" y1="-753.461%" y2="1019.92%">
            <stop offset="0%" stop-color="#FFE9E9"/>
            <stop offset="100%" stop-color="#FFDCDB"/>
        </linearGradient>
        <path id="a"
              d="M1164.48 2678.96c-42.93 0-85.2-1.69-126.7-5.04-156.26-12.65-470.66-38.08-716.15-265-471.443-435.78-398.837-1346.7 52.469-1882.99C431.832 457.326 829.19.279 1448.93.279c4.15 0 8.3 0 12.47.062 178.2 1.76 335.76 41.035 464.16 90.28-131.9 29.633-228.18 122.636-228.18 232.778 0 37.159 10.97 72.363 30.56 103.843 9.69 15.565 12.94 34.475 8.44 52.248-8.77 34.62-4.17 79.36 35.32 132.45 2.95 3.97 7.2 5.79 11.41 5.79 6.5 0 12.91-4.34 14.31-11.85 2.88-15.48 7.85-34.67 16.36-53.19 5.93-12.89 18.69-20.68 32.04-20.68 4.54 0 9.14.9 13.57 2.8 46.17 19.88 99.5 31.23 156.31 31.23 137.05 0 253.86-66.01 298.71-158.603 24.22-4.182 49.24-11.008 73.79-20.27 46.65 47.988 100 110.533 150.5 187.733 231.12 353.29 251.44 846.49 78.52 1241.56-256.64 586.37-903.65 862.5-1452.74 862.5"/>
        <path id="d"
              d="M3.65.19C61.066 80.2 115.87 161.98 169.83 244.33c13.49 20.59 26.66 41.38 39.89 62.14l19.84 31.13 19.59 31.3c12.97 20.92 26.24 41.66 38.98 62.72l38.22 63.19c24.94 42.45 50.25 84.69 74.4 127.6 12.11 21.44 24.63 42.64 36.31 64.32l35.31 64.88c46.21 86.97 90.26 175.14 129.78 265.36l-3.87 1.74-32.12-66.38-8-16.61-8.41-16.41-16.87-32.78-16.81-32.8c-5.58-10.95-11.57-21.69-17.34-32.54-11.68-21.63-23.18-43.34-35-64.89-47.82-85.9-96.79-171.17-147.5-255.42-25.68-41.93-50.99-84.07-76.96-125.83l-19.39-31.36-19.65-31.21c-13.09-20.81-26.18-41.62-39.48-62.3-26.25-41.59-52.79-82.99-79.673-124.18C54.412 84.68 27.351 43.6.176 2.62L3.65.19"/>
        <path id="g"
              d="M648.79.94c-61.15 75.02-119.85 151.94-177.75 229.47-14.48 19.38-28.65 38.98-42.88 58.54l-21.35 29.35-21.1 29.52c-13.99 19.74-28.25 39.28-42.02 59.18l-41.31 59.67c-27.03 40.14-54.4 80.05-80.69 120.69-13.17 20.3-26.74 40.34-39.5 60.9l-38.56 61.51C93.05 792.3 44.52 876.14.31 962.26l3.68 1.93 35.53-63.17 8.84-15.81 9.24-15.59 18.53-31.14 18.47-31.17c6.14-10.4 12.66-20.57 18.98-30.87 12.76-20.51 25.35-41.12 38.25-61.54 52.1-81.38 105.28-162.07 160.11-241.66 27.72-39.58 55.1-79.4 83.09-118.79l20.92-29.6 21.16-29.43c14.09-19.62 28.19-39.25 42.49-58.73 28.25-39.21 56.79-78.23 85.65-117 28.65-38.93 57.67-77.6 86.81-116.16L648.79.94"/>
        <path id="j"
              d="M4.33.83.59 124.36c-.37 12.22 7.2 23.22 18.73 27.29 31.58 11.14 96.97 28.08 158.94 5.89 12.5-4.48 20.02-17.27 18.09-30.41L177.78.83H4.33"/>
        <path id="m"
              d="M499.52 775.51c21.98-21.97 34.19-37.71 34.19-37.71l-26.02-73.71s-212.47 121.41-281.85 60.7c-69.38-60.7 47.7-416.27 47.7-416.27L104.43.65S-37.52 473.9 10.21 732.5c4.6 24.89 26.3 43.01 51.61 43.01h437.7"/>
        <path id="p"
              d="M1.15 144.348S22.84 365.49 70.53 421.86c0 0 143.1 13.01 195.13-17.34 0 0 36.86-110.574 32.52-258.004 0 0 7.11-134.159-140.92-145.262C-16.19-11.753 1.15 144.348 1.15 144.348"/>
        <path id="s" d="M.01 39.726S13.01.701 34.69.701c21.69 0-4.33 104.068-34.68 104.068V39.726"/>
        <path id="v" d="M45.89 34.976S27.74-1.939 6.25.985c-21.48 2.923 18.33 102.532 48.41 98.439l-8.77-64.448"/>
        <path id="y"
              d="M.13 7.023S4.99 139.12 63.09 206.12c5.33 6.14 13.04 9.72 21.17 10.11 29.65 1.43 105.46 3.98 148.21-4.54 10.64-2.12 19.4-9.62 22.9-19.89 10.51-30.81 28.75-79.4 22.48-190.88l-34.88 83.1c-25.83 68.67-39.85-14.69-51.85-13.721h-78.05c-8.22.664-17.34 52.031-47.82 36.981L.13 7.023"/>
        <path id="B"
              d="M248.64 111.314S138.17 224.938 17.79 224.498c0 0-68.34-182.561 66.08-212.915 134.42-30.353 138.76 8.671 138.76 8.671s154.7-38.776 84.78 184.326l-58.77-93.266"/>
        <path id="E"
              d="M13.28 757.51h402.58c18.11 0 34.97-9.34 44.56-24.7C633.88 455.29 386.71 0 386.71 0L256.63 342.55s112.74 112.74 52.03 290.53C247.96 810.86.8 672.1.8 672.1l8.67 82.39s1.33 1.1 3.81 3.02"/>
        <path id="H" d="M36.34 4.85.32 29.36l25.39 49.38h41.4l27.66-45.9L47.63.59 36.34 4.85"/>
        <path id="K" d="M28.71.74.61 468.54l71.46 129.22L144 473.21 70.11.74h-41.4"/>
        <path id="N"
              d="M127.22 419.11a574.083 574.083 0 0 1 43.11 235.49l-6.72 231.91h326.04l-16.58-330.38L323.27.58C184.51 22.26.43 111.65.43 111.65l126.79 307.46"/>
        <path id="Q"
              d="m315.33 895.51 9.95-192.4c0-98.51 16.81-196.29 49.69-289.14L472.71 138C346.97 25.26 99.34.66 99.34.66L.07 565.13v330.38h315.26"/>
        <path id="T" d="m.87.82 36.32 82.7h1269.15l49.7-82.7H.87"/>
        <path id="W" d="m.71.52 95.57 1002.26h894.53L1090.2.52H.71"/>
        <path id="Z"
              d="M72.66 225.67c-6.34 0-13.23-5.14-13.23-11.47V87.25c0-18.73-7.9-35.98-23.64-46.15L5.76 21.22C.44 17.79-.71 10.69 2.72 5.37 6.16.05 13.43-1.5 18.77 1.96l31.14 19.88c22.31 14.4 35.98 38.86 35.98 65.41V214.2c0 6.33-6.9 11.47-13.23 11.47"/>
        <path id="ac"
              d="M214.42 111.08c26.27 22.65 29.2 62.3 6.55 88.57-22.65 26.26-62.31 29.2-88.57 6.54L22.27 111.22C-4 88.57-6.93 48.92 15.72 22.65c22.65-26.26 62.3-29.19 88.57-6.54l110.13 94.97"/>
        <path id="af" d="M57.2.12H12.6C5.91.12.58 4.39.58 11.08v98.2h72.77v-98.2C73.35 4.39 63.88.12 57.2.12"/>
        <path id="ai" d="M105.49.04H22.66C11.75.04.5 11.21.5 22.11v17.63h122.39V22.11c0-10.9-6.5-22.07-17.4-22.07"/>
        <path id="al"
              d="M13.47 225.67c6.34 0 13.23-5.14 13.23-11.47V87.25c0-18.73 8.61-35.98 24.35-46.15l30.39-19.88c5.32-3.43 6.65-10.53 3.22-15.85C81.22.05 74.04-1.5 68.7 1.96L36.89 21.84C14.58 36.24.24 60.7.24 87.25V214.2c0 6.33 6.9 11.47 13.23 11.47"/>
        <path id="ao"
              d="M22.14 111.08c-26.27 22.65-29.2 62.3-6.55 88.57 22.65 26.26 62.3 29.2 88.57 6.54l110.13-94.97c26.27-22.65 29.2-62.3 6.55-88.57-22.65-26.26-62.31-29.19-88.57-6.54L22.14 111.08"/>
        <path id="ar" d="M21.36.12h44.6c6.69 0 7.28 4.27 7.28 10.96v98.2H.47v-98.2C.47 4.39 14.68.12 21.36.12"/>
        <path id="au" d="M26.07.04h82.83c10.91 0 17.42 11.17 17.42 22.07v17.63H.62V22.11C.62 11.21 15.16.04 26.07.04"/>
        <path id="ax" d="M37.01 169.44.69.74h1433.53l-30.58 168.7H37.01"/>
        <path id="aA"
              d="M318.75 485.288c-39.48 0-77.26-5.473-112.15-15.486-19.15-5.497-37.43-12.362-54.62-20.438C61.05 406.647.43 330.04.43 242.644c0-30.116 7.19-58.943 20.35-85.551C66.16 65.302 182.45 0 318.75 0c175.8 0 318.32 108.635 318.32 242.644 0 102.88-91.62 180.085-190.87 217.523-24.55 9.262-49.57 16.088-73.79 20.27-18.55 3.203-36.63 4.851-53.66 4.851M42.81 218.479c-4.89 23.068-3.74 47.355 1.9 70.489 5.95 23.108 16.9 44.907 31.33 63.924 14.33 19.143 32.04 35.548 51.38 49.407 9.78 6.774 19.83 13.188 30.39 18.659 2.59 1.457 5.25 2.784 7.93 4.067 2.68 1.288 5.32 2.65 8.03 3.875 5.43 2.383 10.86 4.818 16.43 6.858 39.45 15.336 81.72 22.582 123.79 22.582 5.15 0 10.3-.109 15.44-.325 47.11-2.05 93.97-13.468 135.61-35.003l-1.41-2.993c-42.69 18.033-88.69 26.657-134.5 27.366-1.18.01-2.35.015-3.52.015-44.65 0-89.36-7.371-130.73-23.652-21.23-8.258-41.58-18.8-60.24-31.749-18.7-12.876-35.71-28.21-49.88-45.879-7.18-8.761-13.43-18.252-18.82-28.193-5.41-9.926-10.1-20.316-13.34-31.196-3.38-10.827-5.7-22.017-6.83-33.386-1.03-11.376-.97-22.893.31-34.349l-3.27-.517m407.5.258c-16.58 0-30.03 13.446-30.03 30.031s13.45 30.03 30.03 30.03c16.59 0 30.03-13.445 30.03-30.03s-13.44-30.031-30.03-30.031m-108.1 0c-16.59 0-30.03 13.446-30.03 30.031s13.44 30.03 30.03 30.03c16.58 0 30.03-13.445 30.03-30.03s-13.45-30.031-30.03-30.031m-108.11 0c-16.59 0-30.03 13.446-30.03 30.031s13.44 30.03 30.03 30.03c16.58 0 30.03-13.445 30.03-30.03s-13.45-30.031-30.03-30.031"/>
        <path id="aD"
              d="M274.99 240.34c-42.07 0-84.34-7.246-123.79-22.582-5.57-2.04-11-4.475-16.43-6.858-2.71-1.225-5.35-2.587-8.03-3.875-2.68-1.283-5.34-2.61-7.93-4.067-10.56-5.471-20.61-11.885-30.39-18.659-19.34-13.859-37.05-30.264-51.38-49.407-14.43-19.017-25.38-40.816-31.33-63.924C.07 47.834-1.08 23.547 3.81.479l3.27.517C5.8 12.452 5.74 23.969 6.77 35.345c1.13 11.369 3.45 22.559 6.83 33.386 3.24 10.88 7.93 21.27 13.34 31.196 5.39 9.941 11.64 19.432 18.82 28.193 14.17 17.669 31.18 33.003 49.88 45.879 18.66 12.949 39.01 23.491 60.24 31.749 41.37 16.281 86.08 23.652 130.73 23.652 1.17 0 2.34-.005 3.52-.015 45.81-.709 91.81-9.333 134.5-27.366l1.41 2.993c-41.64 21.535-88.5 32.953-135.61 35.003-5.14.216-10.29.325-15.44.325"/>
        <path id="aG"
              d="M30.1 60.798C13.51 60.798.07 47.353.07 30.768S13.51.737 30.1.737c16.58 0 30.03 13.446 30.03 30.031s-13.45 30.03-30.03 30.03"/>
        <path id="aJ"
              d="M30.21 60.798C13.62 60.798.18 47.353.18 30.768S13.62.737 30.21.737c16.58 0 30.03 13.446 30.03 30.031s-13.45 30.03-30.03 30.03"/>
        <path id="aM"
              d="M30.31 60.798C13.73 60.798.28 47.353.28 30.768S13.73.737 30.31.737c16.59 0 30.03 13.446 30.03 30.031s-13.44 30.03-30.03 30.03"/>
    </defs>
    <g fill="none" fill-rule="evenodd">
        <g transform="translate(0 73)">
            <mask id="c" fill="#fff">
                <use xlink:href="#a"/>
            </mask>
            <path fill="url(#b)"
                  d="M1164.48 2678.96c-42.93 0-85.2-1.69-126.7-5.04-156.26-12.65-470.66-38.08-716.15-265-471.443-435.78-398.837-1346.7 52.469-1882.99C431.832 457.326 829.19.279 1448.93.279c4.15 0 8.3 0 12.47.062 178.2 1.76 335.76 41.035 464.16 90.28-131.9 29.633-228.18 122.636-228.18 232.778 0 37.159 10.97 72.363 30.56 103.843 9.69 15.565 12.94 34.475 8.44 52.248-8.77 34.62-4.17 79.36 35.32 132.45 2.95 3.97 7.2 5.79 11.41 5.79 6.5 0 12.91-4.34 14.31-11.85 2.88-15.48 7.85-34.67 16.36-53.19 5.93-12.89 18.69-20.68 32.04-20.68 4.54 0 9.14.9 13.57 2.8 46.17 19.88 99.5 31.23 156.31 31.23 137.05 0 253.86-66.01 298.71-158.603 24.22-4.182 49.24-11.008 73.79-20.27 46.65 47.988 100 110.533 150.5 187.733 231.12 353.29 251.44 846.49 78.52 1241.56-256.64 586.37-903.65 862.5-1452.74 862.5"
                  mask="url(#c)"/>
        </g>
        <path fill="#91B3FA"
              d="M1172.08 1382.24c-44.96-139.33-131.16-250.25-232.92-315.33-90.97-58.17-156.75-148.96-181.47-253.97a426.88 426.88 0 0 0-9.25-33.17C694.37 612.2 547.86 509.479 421.199 550.35 294.54 591.22 235.698 760.2 289.771 927.78c11.057 34.26 25.982 65.81 43.811 93.97 56.902 89.86 79.538 197.76 59.293 302.22-18.092 93.36-12.526 198.41 21.183 302.87 50.274 155.8 152.102 276.08 269.602 336.47 44.44 22.84 84.57 53.6 117.86 90.81 55.32 61.84 132.99 90.77 204.1 67.83 76.71-24.75 124.32-102.96 127.31-194.07 1.7-51.55 13.52-102.11 32.97-149.93 45.91-112.9 51.64-254.83 6.18-395.71"/>
        <path fill="#BDD0FB"
              d="M523.07 714.31c52.29 105.41 101.14 212.42 148.88 319.93 11.94 26.88 23.46 53.94 35.06 80.97l17.39 40.54 17.05 40.68c11.27 27.17 22.91 54.18 33.86 81.48l32.88 81.89c21.22 54.87 42.9 109.55 63.1 164.82 10.14 27.61 20.81 55.02 30.39 82.85l29.11 83.31c37.69 111.48 72.59 223.95 101.74 337.97l-4.9 1.3-25.06-84.47-6.21-21.13-6.75-20.97-13.56-41.91-13.48-41.93c-4.47-13.99-9.46-27.81-14.17-41.71-9.59-27.76-18.96-55.59-28.73-83.28-39.81-110.52-81.08-220.51-124.62-329.64-22.18-54.39-43.9-108.98-66.47-163.22l-16.81-40.73-17.15-40.59c-11.42-27.07-22.84-54.13-34.53-81.08-22.93-54.1-46.24-108.04-69.99-161.79-23.48-53.87-47.46-107.54-71.6-161.1l4.57-2.19M1050.31 2092.43c-55.99-109-142.1-188.99-234.81-229.04-82.88-35.81-149.44-101.92-184.08-185.3-3.64-8.76-7.68-17.49-12.13-26.14-67.33-131.09-202.045-196.2-300.883-145.43-98.838 50.77-124.374 198.19-57.037 329.29 13.769 26.8 30.356 50.84 48.877 71.69 59.109 66.55 92.426 152.59 89.937 241.56-2.227 79.51 16.635 165.5 58.612 247.22 62.604 121.88 162.874 207.5 267.924 241.56 39.73 12.88 76.99 32.88 109.48 59.13 54 43.62 121.94 57.07 177.43 28.57 59.86-30.75 88.47-101.72 78.56-177.34-5.61-42.8-2.73-86.13 6.8-128.23 22.49-99.38 7.93-217.34-48.68-327.54"/>
        <g transform="translate(421 1628)">
            <mask id="f" fill="#fff">
                <use xlink:href="#d"/>
            </mask>
            <path fill="url(#e)"
                  d="M3.65.19C61.066 80.2 115.87 161.98 169.83 244.33c13.49 20.59 26.66 41.38 39.89 62.14l19.84 31.13 19.59 31.3c12.97 20.92 26.24 41.66 38.98 62.72l38.22 63.19c24.94 42.45 50.25 84.69 74.4 127.6 12.11 21.44 24.63 42.64 36.31 64.32l35.31 64.88c46.21 86.97 90.26 175.14 129.78 265.36l-3.87 1.74-32.12-66.38-8-16.61-8.41-16.41-16.87-32.78-16.81-32.8c-5.58-10.95-11.57-21.69-17.34-32.54-11.68-21.63-23.18-43.34-35-64.89-47.82-85.9-96.79-171.17-147.5-255.42-25.68-41.93-50.99-84.07-76.96-125.83l-19.39-31.36-19.65-31.21c-13.09-20.81-26.18-41.62-39.48-62.3-26.25-41.59-52.79-82.99-79.673-124.18C54.412 84.68 27.351 43.6.176 2.62L3.65.19"
                  mask="url(#f)"/>
        </g>
        <path fill="#91B3FA"
              d="M1494.91 1604.21c39.69-149.03 124.3-270.42 227.79-344.44 92.52-66.16 156.76-165.27 177.02-277.08 2.13-11.75 4.77-23.56 7.92-35.39 47.73-179.24 196.24-295.3 331.71-259.22 135.47 36.07 206.6 210.62 158.88 389.85-9.76 36.65-23.74 70.65-40.96 101.25-54.95 97.64-72.86 212.38-45.86 321.16 24.13 97.22 24.01 208.03-5.74 319.76-44.37 166.65-144.92 298.74-265.22 368.68-45.51 26.45-86.04 61-119.03 101.97-54.81 68.07-134.94 102.75-210.99 82.5-82.05-21.85-136.41-101.52-144.53-197.19-4.6-54.15-19.8-106.69-42.87-155.93-54.46-116.25-68.24-265.24-28.12-415.92"/>
        <path fill="#BDD0FB"
              d="M2141.14 866.12c-49.24 113.74-94.79 228.98-139.13 344.69-11.1 28.92-21.73 58.02-32.46 87.08l-16.08 43.6-15.72 43.73c-10.36 29.2-21.13 58.25-31.16 87.56l-30.11 87.94c-19.33 58.87-39.15 117.59-57.38 176.82-9.15 29.61-18.89 59.03-27.44 88.82l-26.07 89.23c-33.56 119.33-64.13 239.55-88.57 361.09l5.23 1.1 21.74-90.24 5.39-22.56 5.95-22.43 11.98-44.83 11.89-44.84c3.94-14.95 8.43-29.76 12.62-44.65 8.57-29.72 16.91-59.51 25.68-89.17 35.83-118.44 73.24-236.4 113.08-353.57 20.37-58.44 40.23-117.04 61-175.34l15.46-43.76 15.83-43.64c10.53-29.09 21.07-58.19 31.9-87.18 21.16-58.16 42.74-116.18 64.79-174.02 21.75-57.95 44.05-115.71 66.51-173.38l-4.93-2.05M1778.01 2101.59c61.5-103.55 150.81-176.83 244.17-210.52 83.47-30.12 152.75-90.96 191.76-170.66 4.11-8.38 8.6-16.69 13.48-24.91 73.97-124.54 210.05-180.28 303.94-124.51 93.9 55.77 110.05 201.94 36.08 326.47-15.13 25.47-32.85 48.05-52.28 67.38-62 61.72-99.87 144.11-102.8 231.54-2.62 78.13-26.31 161.34-72.42 238.98-68.77 115.78-172.3 193.72-277.41 220.79-39.75 10.24-77.51 27.62-110.97 51.4-55.6 39.53-123.06 48.63-175.78 17.32-56.86-33.78-80.65-105.12-66.36-178.72 8.08-41.64 7.88-84.32 1.07-126.19-16.07-98.85 5.34-213.68 67.52-318.37"/>
        <g transform="translate(1771 1683)">
            <mask id="i" fill="#fff">
                <use xlink:href="#g"/>
            </mask>
            <path fill="url(#h)"
                  d="M648.79.94c-61.15 75.02-119.85 151.94-177.75 229.47-14.48 19.38-28.65 38.98-42.88 58.54l-21.35 29.35-21.1 29.52c-13.99 19.74-28.25 39.28-42.02 59.18l-41.31 59.67c-27.03 40.14-54.4 80.05-80.69 120.69-13.17 20.3-26.74 40.34-39.5 60.9l-38.56 61.51C93.05 792.3 44.52 876.14.31 962.26l3.68 1.93 35.53-63.17 8.84-15.81 9.24-15.59 18.53-31.14 18.47-31.17c6.14-10.4 12.66-20.57 18.98-30.87 12.76-20.51 25.35-41.12 38.25-61.54 52.1-81.38 105.28-162.07 160.11-241.66 27.72-39.58 55.1-79.4 83.09-118.79l20.92-29.6 21.16-29.43c14.09-19.62 28.19-39.25 42.49-58.73 28.25-39.21 56.79-78.23 85.65-117 28.65-38.93 57.67-77.6 86.81-116.16L648.79.94"
                  mask="url(#i)"/>
        </g>
        <path fill="#FFF" d="m1703.59 1606.51-83.06-870.25c-199.46-73.72-450.96 8.67-450.96 8.67l-38.84 861.58h572.86"/>
        <g transform="translate(1304 588)">
            <mask id="l" fill="#fff">
                <use xlink:href="#j"/>
            </mask>
            <path fill="url(#k)"
                  d="M4.33.83.59 124.36c-.37 12.22 7.2 23.22 18.73 27.29 31.58 11.14 96.97 28.08 158.94 5.89 12.5-4.48 20.02-17.27 18.09-30.41L177.78.83H4.33"
                  mask="url(#l)"/>
        </g>
        <g transform="translate(844 831)">
            <mask id="o" fill="#fff">
                <use xlink:href="#m"/>
            </mask>
            <path fill="url(#n)"
                  d="M499.52 775.51c21.98-21.97 34.19-37.71 34.19-37.71l-26.02-73.71s-212.47 121.41-281.85 60.7c-69.38-60.7 47.7-416.27 47.7-416.27L104.43.65S-37.52 473.9 10.21 732.5c4.6 24.89 26.3 43.01 51.61 43.01h437.7"
                  mask="url(#o)"/>
        </g>
        <path fill="#FFF" d="m1306.07 663.38 96.54 92.56-69.71 47.55-61.63-82.95 34.8-57.16"/>
        <path fill="#FFF" d="m1490.96 663.38-96.54 92.56 69.72 47.55 61.63-82.95-34.81-57.16"/>
        <g transform="translate(1244 219)">
            <mask id="r" fill="#fff">
                <use xlink:href="#p"/>
            </mask>
            <path fill="url(#q)"
                  d="M1.15 144.348S22.84 365.49 70.53 421.86c0 0 143.1 13.01 195.13-17.34 0 0 36.86-110.574 32.52-258.004 0 0 7.11-134.159-140.92-145.262C-16.19-11.753 1.15 144.348 1.15 144.348"
                  mask="url(#r)"/>
        </g>
        <g transform="translate(1527 393)">
            <mask id="u" fill="#fff">
                <use xlink:href="#s"/>
            </mask>
            <path fill="url(#t)" d="M.01 39.726S13.01.701 34.69.701c21.69 0-4.33 104.068-34.68 104.068V39.726"
                  mask="url(#u)"/>
        </g>
        <g transform="translate(1219 408)">
            <mask id="x" fill="#fff">
                <use xlink:href="#v"/>
            </mask>
            <path fill="url(#w)"
                  d="M45.89 34.976S27.74-1.939 6.25.985c-21.48 2.923 18.33 102.532 48.41 98.439l-8.77-64.448"
                  mask="url(#x)"/>
        </g>
        <g transform="translate(1260 473)">
            <mask id="A" fill="#fff">
                <use xlink:href="#y"/>
            </mask>
            <path fill="url(#z)"
                  d="M.13 7.023S4.99 139.12 63.09 206.12c5.33 6.14 13.04 9.72 21.17 10.11 29.65 1.43 105.46 3.98 148.21-4.54 10.64-2.12 19.4-9.62 22.9-19.89 10.51-30.81 28.75-79.4 22.48-190.88l-34.88 83.1c-25.83 68.67-39.85-14.69-51.85-13.721h-78.05c-8.22.664-17.34 52.031-47.82 36.981L.13 7.023"
                  mask="url(#A)"/>
        </g>
        <g transform="translate(1235 200)">
            <mask id="D" fill="#fff">
                <use xlink:href="#B"/>
            </mask>
            <path fill="url(#C)"
                  d="M248.64 111.314S138.17 224.938 17.79 224.498c0 0-68.34-182.561 66.08-212.915 134.42-30.353 138.76 8.671 138.76 8.671s154.7-38.776 84.78 184.326l-58.77-93.266"
                  mask="url(#D)"/>
        </g>
        <g transform="translate(1507 849)">
            <mask id="G" fill="#fff">
                <use xlink:href="#E"/>
            </mask>
            <path fill="url(#F)"
                  d="M13.28 757.51h402.58c18.11 0 34.97-9.34 44.56-24.7C633.88 455.29 386.71 0 386.71 0L256.63 342.55s112.74 112.74 52.03 290.53C247.96 810.86.8 672.1.8 672.1l8.67 82.39s1.33 1.1 3.81 3.02"
                  mask="url(#G)"/>
        </g>
        <g transform="translate(1352 759)">
            <mask id="J" fill="#fff">
                <use xlink:href="#H"/>
            </mask>
            <path fill="url(#I)" d="M36.34 4.85.32 29.36l25.39 49.38h41.4l27.66-45.9L47.63.59 36.34 4.85"
                  mask="url(#J)"/>
        </g>
        <g transform="translate(1349 837)">
            <mask id="M" fill="#fff">
                <use xlink:href="#K"/>
            </mask>
            <path fill="url(#L)" d="M28.71.74.61 468.54l71.46 129.22L144 473.21 70.11.74h-41.4" mask="url(#M)"/>
        </g>
        <g transform="translate(948 720)">
            <mask id="P" fill="#fff">
                <use xlink:href="#N"/>
            </mask>
            <path fill="url(#O)"
                  d="M127.22 419.11a574.083 574.083 0 0 1 43.11 235.49l-6.72 231.91h326.04l-16.58-330.38L323.27.58C184.51 22.26.43 111.65.43 111.65l126.79 307.46"
                  mask="url(#P)"/>
        </g>
        <g transform="translate(1421 711)">
            <mask id="S" fill="#fff">
                <use xlink:href="#Q"/>
            </mask>
            <path fill="url(#R)"
                  d="m315.33 895.51 9.95-192.4c0-98.51 16.81-196.29 49.69-289.14L472.71 138C346.97 25.26 99.34.66 99.34.66L.07 565.13v330.38h315.26"
                  mask="url(#S)"/>
        </g>
        <path fill="#91B3FA"
              d="M1393.61 1256.7c-.68 0-1.34-.29-1.82-.83l-133.48-153.94c-.29-.33-.48-.75-.55-1.19l-13.46-82.51-49.4-9.94a2.386 2.386 0 0 1-1.92-2.25l-10.632-261.21a2.408 2.408 0 0 1 2.302-2.502c1.38-.048 2.44.972 2.5 2.302l10.54 259.33 49.19 9.89c.98.2 1.73.98 1.89 1.97l13.62 83.48 133.03 153.42c.87 1 .76 2.52-.24 3.39-.46.39-1.02.59-1.57.59M1438.37 1256.7c-.56 0-1.12-.2-1.57-.6-1-.87-1.11-2.4-.24-3.41l133.03-154.73 13.61-84.19c.17-.99.92-1.78 1.9-1.98l49.18-9.98 10.55-261.54c.05-1.33 1.05-2.36 2.5-2.321a2.414 2.414 0 0 1 2.29 2.521L1639 1003.91a2.41 2.41 0 0 1-1.92 2.27l-49.4 10.02-13.46 83.22c-.07.44-.26.86-.55 1.19l-133.48 155.25c-.48.55-1.15.84-1.82.84"/>
        <g transform="translate(743 1663)">
            <mask id="V" fill="#fff">
                <use xlink:href="#T"/>
            </mask>
            <path fill="url(#U)" d="m.87.82 36.32 82.7h1269.15l49.7-82.7H.87" mask="url(#V)"/>
        </g>
        <g transform="translate(876 1746)">
            <mask id="Y" fill="#fff">
                <use xlink:href="#W"/>
            </mask>
            <path fill="url(#X)" d="m.71.52 95.57 1002.26h894.53L1090.2.52H.71" mask="url(#Y)"/>
        </g>
        <g transform="translate(1791 1189)">
            <mask id="ab" fill="#fff">
                <use xlink:href="#Z"/>
            </mask>
            <path fill="url(#aa)"
                  d="M72.66 225.67c-6.34 0-13.23-5.14-13.23-11.47V87.25c0-18.73-7.9-35.98-23.64-46.15L5.76 21.22C.44 17.79-.71 10.69 2.72 5.37 6.16.05 13.43-1.5 18.77 1.96l31.14 19.88c22.31 14.4 35.98 38.86 35.98 65.41V214.2c0 6.33-6.9 11.47-13.23 11.47"
                  mask="url(#ab)"/>
        </g>
        <g transform="translate(1588 1019)">
            <mask id="ae" fill="#fff">
                <use xlink:href="#ac"/>
            </mask>
            <path fill="url(#ad)"
                  d="M214.42 111.08c26.27 22.65 29.2 62.3 6.55 88.57-22.65 26.26-62.31 29.2-88.57 6.54L22.27 111.22C-4 88.57-6.93 48.92 15.72 22.65c22.65-26.26 62.3-29.19 88.57-6.54l110.13 94.97"
                  mask="url(#ae)"/>
        </g>
        <g transform="translate(1830 1366)">
            <mask id="ah" fill="#fff">
                <use xlink:href="#af"/>
            </mask>
            <path fill="url(#ag)"
                  d="M57.2.12H12.6C5.91.12.58 4.39.58 11.08v98.2h72.77v-98.2C73.35 4.39 63.88.12 57.2.12"
                  mask="url(#ah)"/>
        </g>
        <g transform="translate(1797 1462)">
            <mask id="ak" fill="#fff">
                <use xlink:href="#ai"/>
            </mask>
            <path fill="url(#aj)"
                  d="M105.49.04H22.66C11.75.04.5 11.21.5 22.11v17.63h122.39V22.11c0-10.9-6.5-22.07-17.4-22.07"
                  mask="url(#ak)"/>
        </g>
        <g transform="translate(967 1189)">
            <mask id="an" fill="#fff">
                <use xlink:href="#al"/>
            </mask>
            <path fill="url(#am)"
                  d="M13.47 225.67c6.34 0 13.23-5.14 13.23-11.47V87.25c0-18.73 8.61-35.98 24.35-46.15l30.39-19.88c5.32-3.43 6.65-10.53 3.22-15.85C81.22.05 74.04-1.5 68.7 1.96L36.89 21.84C14.58 36.24.24 60.7.24 87.25V214.2c0 6.33 6.9 11.47 13.23 11.47"
                  mask="url(#an)"/>
        </g>
        <g transform="translate(1021 1019)">
            <mask id="aq" fill="#fff">
                <use xlink:href="#ao"/>
            </mask>
            <path fill="url(#ap)"
                  d="M22.14 111.08c-26.27 22.65-29.2 62.3-6.55 88.57 22.65 26.26 62.3 29.2 88.57 6.54l110.13-94.97c26.27-22.65 29.2-62.3 6.55-88.57-22.65-26.26-62.31-29.19-88.57-6.54L22.14 111.08"
                  mask="url(#aq)"/>
        </g>
        <g transform="translate(937 1366)">
            <mask id="at" fill="#fff">
                <use xlink:href="#ar"/>
            </mask>
            <path fill="url(#as)"
                  d="M21.36.12h44.6c6.69 0 7.28 4.27 7.28 10.96v98.2H.47v-98.2C.47 4.39 14.68.12 21.36.12"
                  mask="url(#at)"/>
        </g>
        <g transform="translate(917 1462)">
            <mask id="aw" fill="#fff">
                <use xlink:href="#au"/>
            </mask>
            <path fill="url(#av)"
                  d="M26.07.04h82.83c10.91 0 17.42 11.17 17.42 22.07v17.63H.62V22.11C.62 11.21 15.16.04 26.07.04"
                  mask="url(#aw)"/>
        </g>
        <g transform="translate(704 1501)">
            <mask id="az" fill="#fff">
                <use xlink:href="#ax"/>
            </mask>
            <path fill="url(#ay)" d="M37.01 169.44.69.74h1433.53l-30.58 168.7H37.01" mask="url(#az)"/>
        </g>
        <path fill="#91B3FA"
              d="M2015.7 153.755c-175.8 0-318.32 108.635-318.32 242.644 0 37.159 10.97 72.363 30.56 103.843 9.69 15.565 12.94 34.475 8.44 52.248-8.77 34.62-4.17 79.36 35.32 132.45 7.5 10.09 23.42 6.3 25.72-6.06 2.88-15.48 7.85-34.67 16.36-53.19 7.94-17.26 28.16-25.39 45.61-17.88 46.17 19.88 99.5 31.23 156.31 31.23 175.8 0 318.32-108.632 318.32-242.641S2191.5 153.755 2015.7 153.755"/>
        <path fill="#DCE7FD"
              d="M1907.59 482.886c-16.58 0-30.03-13.445-30.03-30.03 0-16.586 13.45-30.03 30.03-30.03 16.59 0 30.03 13.444 30.03 30.03 0 16.585-13.44 30.03-30.03 30.03M2015.7 482.886c-16.59 0-30.03-13.445-30.03-30.03 0-16.586 13.44-30.03 30.03-30.03 16.59 0 30.03 13.444 30.03 30.03 0 16.585-13.44 30.03-30.03 30.03M2123.81 482.886c-16.59 0-30.03-13.445-30.03-30.03 0-1.181.07-2.346.2-3.492 17.19 8.076 35.47 14.941 54.62 20.438-5.41 7.9-14.49 13.084-24.79 13.084"/>
        <g transform="translate(1942)">
            <mask id="aC" fill="#fff">
                <use xlink:href="#aA"/>
            </mask>
            <path fill="url(#aB)"
                  d="M318.75 485.288c-39.48 0-77.26-5.473-112.15-15.486-19.15-5.497-37.43-12.362-54.62-20.438C61.05 406.647.43 330.04.43 242.644c0-30.116 7.19-58.943 20.35-85.551C66.16 65.302 182.45 0 318.75 0c175.8 0 318.32 108.635 318.32 242.644 0 102.88-91.62 180.085-190.87 217.523-24.55 9.262-49.57 16.088-73.79 20.27-18.55 3.203-36.63 4.851-53.66 4.851M42.81 218.479c-4.89 23.068-3.74 47.355 1.9 70.489 5.95 23.108 16.9 44.907 31.33 63.924 14.33 19.143 32.04 35.548 51.38 49.407 9.78 6.774 19.83 13.188 30.39 18.659 2.59 1.457 5.25 2.784 7.93 4.067 2.68 1.288 5.32 2.65 8.03 3.875 5.43 2.383 10.86 4.818 16.43 6.858 39.45 15.336 81.72 22.582 123.79 22.582 5.15 0 10.3-.109 15.44-.325 47.11-2.05 93.97-13.468 135.61-35.003l-1.41-2.993c-42.69 18.033-88.69 26.657-134.5 27.366-1.18.01-2.35.015-3.52.015-44.65 0-89.36-7.371-130.73-23.652-21.23-8.258-41.58-18.8-60.24-31.749-18.7-12.876-35.71-28.21-49.88-45.879-7.18-8.761-13.43-18.252-18.82-28.193-5.41-9.926-10.1-20.316-13.34-31.196-3.38-10.827-5.7-22.017-6.83-33.386-1.03-11.376-.97-22.893.31-34.349l-3.27-.517m407.5.258c-16.58 0-30.03 13.446-30.03 30.031s13.45 30.03 30.03 30.03c16.59 0 30.03-13.445 30.03-30.03s-13.44-30.031-30.03-30.031m-108.1 0c-16.59 0-30.03 13.446-30.03 30.031s13.44 30.03 30.03 30.03c16.58 0 30.03-13.445 30.03-30.03s-13.45-30.031-30.03-30.031m-108.11 0c-16.59 0-30.03 13.446-30.03 30.031s13.44 30.03 30.03 30.03c16.58 0 30.03-13.445 30.03-30.03s-13.45-30.031-30.03-30.031"
                  mask="url(#aC)"/>
        </g>
        <g transform="translate(1981 218)">
            <mask id="aF" fill="#fff">
                <use xlink:href="#aD"/>
            </mask>
            <path fill="url(#aE)"
                  d="M274.99 240.34c-42.07 0-84.34-7.246-123.79-22.582-5.57-2.04-11-4.475-16.43-6.858-2.71-1.225-5.35-2.587-8.03-3.875-2.68-1.283-5.34-2.61-7.93-4.067-10.56-5.471-20.61-11.885-30.39-18.659-19.34-13.859-37.05-30.264-51.38-49.407-14.43-19.017-25.38-40.816-31.33-63.924C.07 47.834-1.08 23.547 3.81.479l3.27.517C5.8 12.452 5.74 23.969 6.77 35.345c1.13 11.369 3.45 22.559 6.83 33.386 3.24 10.88 7.93 21.27 13.34 31.196 5.39 9.941 11.64 19.432 18.82 28.193 14.17 17.669 31.18 33.003 49.88 45.879 18.66 12.949 39.01 23.491 60.24 31.749 41.37 16.281 86.08 23.652 130.73 23.652 1.17 0 2.34-.005 3.52-.015 45.81-.709 91.81-9.333 134.5-27.366l1.41 2.993c-41.64 21.535-88.5 32.953-135.61 35.003-5.14.216-10.29.325-15.44.325"
                  mask="url(#aF)"/>
        </g>
        <g transform="translate(2146 218)">
            <mask id="aI" fill="#fff">
                <use xlink:href="#aG"/>
            </mask>
            <path fill="url(#aH)"
                  d="M30.1 60.798C13.51 60.798.07 47.353.07 30.768S13.51.737 30.1.737c16.58 0 30.03 13.446 30.03 30.031s-13.45 30.03-30.03 30.03"
                  mask="url(#aI)"/>
        </g>
        <g transform="translate(2254 218)">
            <mask id="aL" fill="#fff">
                <use xlink:href="#aJ"/>
            </mask>
            <path fill="url(#aK)"
                  d="M30.21 60.798C13.62 60.798.18 47.353.18 30.768S13.62.737 30.21.737c16.58 0 30.03 13.446 30.03 30.031s-13.45 30.03-30.03 30.03"
                  mask="url(#aL)"/>
        </g>
        <g transform="translate(2362 218)">
            <mask id="aO" fill="#fff">
                <use xlink:href="#aM"/>
            </mask>
            <path fill="url(#aN)"
                  d="M30.31 60.798C13.73 60.798.28 47.353.28 30.768S13.73.737 30.31.737c16.59 0 30.03 13.446 30.03 30.031s-13.44 30.03-30.03 30.03"
                  mask="url(#aO)"/>
        </g>
    </g>
</svg>