<svg xmlns="http://www.w3.org/2000/svg" xmlns:xlink="http://www.w3.org/1999/xlink" width="2216" height="1393">
    <defs>
        <linearGradient id="b" x1="35.665%" x2="65.918%" y1="24.663%" y2="78.545%">
            <stop offset="0%" stop-color="#DAE2FD"/>
            <stop offset="100%" stop-color="#E9EEFC"/>
        </linearGradient>
        <linearGradient id="e" x1="102.462%" x2="89.349%" y1="-19.356%" y2="-1.76%">
            <stop offset="0%" stop-color="#08005D"/>
            <stop offset="100%" stop-color="#1A0F91"/>
        </linearGradient>
        <linearGradient id="h" x1="81.295%" x2="64.09%" y1="-20.396%" y2="18.305%">
            <stop offset="0%" stop-color="#4042E1"/>
            <stop offset="100%" stop-color="#4F52FF"/>
        </linearGradient>
        <linearGradient id="k" x1="108.845%" x2="73.972%" y1="-47.183%" y2="10.539%">
            <stop offset="0%" stop-color="#08005D"/>
            <stop offset="100%" stop-color="#1A0F91"/>
        </linearGradient>
        <linearGradient id="n" x1="246.982%" x2="203.213%" y1="-79.96%" y2="1.149%">
            <stop offset="0%" stop-color="#E0463C"/>
            <stop offset="100%" stop-color="#E95F5A"/>
        </linearGradient>
        <linearGradient id="q" x1="54.518%" x2="86.378%" y1="40.118%" y2="-14.806%">
            <stop offset="0%" stop-color="#FD6F61"/>
            <stop offset="100%" stop-color="#FF928E"/>
        </linearGradient>
        <linearGradient id="t" x1="0%" x2="105.488%" y1="50%" y2="50%">
            <stop offset="0%" stop-color="#DAE2FD"/>
            <stop offset="100%" stop-color="#E9EEFC"/>
        </linearGradient>
        <linearGradient id="w" x1="0%" x2="129.899%" y1="50%" y2="50%">
            <stop offset="0%" stop-color="#DAE2FD"/>
            <stop offset="100%" stop-color="#E9EEFC"/>
        </linearGradient>
        <linearGradient id="z" x1="0%" x2="114.389%" y1="50.648%" y2="50.648%">
            <stop offset="0%" stop-color="#DAE2FD"/>
            <stop offset="100%" stop-color="#E9EEFC"/>
        </linearGradient>
        <linearGradient id="C" x1=".108%" x2="35.38%" y1="55.74%" y2="51.926%">
            <stop offset="0%" stop-color="#FD6F61"/>
            <stop offset="100%" stop-color="#FF928E"/>
        </linearGradient>
        <linearGradient id="F" x1="58.767%" x2="110.223%" y1="37.75%" y2="-84.446%">
            <stop offset="0%" stop-color="#FD9E93"/>
            <stop offset="100%" stop-color="#FFB5B1"/>
        </linearGradient>
        <linearGradient id="I" x1="-809.977%" x2="100.003%" y1="50%" y2="50%">
            <stop offset="0%" stop-color="#E6EBFD"/>
            <stop offset="100%" stop-color="#EFF4FD"/>
        </linearGradient>
        <linearGradient id="L" x1="-247.173%" x2="100%" y1="50%" y2="50%">
            <stop offset="0%" stop-color="#E6EBFD"/>
            <stop offset="100%" stop-color="#EFF4FD"/>
        </linearGradient>
        <linearGradient id="O" x1="-373.688%" x2="99.999%" y1="46.799%" y2="46.799%">
            <stop offset="0%" stop-color="#E6EBFD"/>
            <stop offset="100%" stop-color="#EFF4FD"/>
        </linearGradient>
        <linearGradient id="R" x1="42.727%" x2="108.486%" y1="4.811%" y2="-126.605%">
            <stop offset="0%" stop-color="#FD9E93"/>
            <stop offset="100%" stop-color="#FFB5B1"/>
        </linearGradient>
        <linearGradient id="U" x1="-854.652%" x2="266.425%" y1="-243.033%" y2="-7823.643%">
            <stop offset="0%" stop-color="#FD9E93"/>
            <stop offset="100%" stop-color="#FFB5B1"/>
        </linearGradient>
        <linearGradient id="X" x1="586.243%" x2="607.864%" y1="-286.172%" y2="-299.725%">
            <stop offset="0%" stop-color="#08005D"/>
            <stop offset="100%" stop-color="#1A0F91"/>
        </linearGradient>
        <linearGradient id="aa" x1="492.064%" x2="476.045%" y1="-1336.417%" y2="-1285.937%">
            <stop offset="0%" stop-color="#08005D"/>
            <stop offset="100%" stop-color="#1A0F91"/>
        </linearGradient>
        <linearGradient id="ad" x1="99.999%" x2=".026%" y1="50.013%" y2="50.013%">
            <stop offset="0%" stop-color="#FF928E"/>
            <stop offset="100%" stop-color="#FDB3B0"/>
        </linearGradient>
        <linearGradient id="ag" x1="1434.012%" x2="1490.433%" y1="-3224.927%" y2="-3358.363%">
            <stop offset="0%" stop-color="#08005D"/>
            <stop offset="100%" stop-color="#1A0F91"/>
        </linearGradient>
        <linearGradient id="aj" x1="609.04%" x2="588.447%" y1="-4952.88%" y2="-4768.513%">
            <stop offset="0%" stop-color="#08005D"/>
            <stop offset="100%" stop-color="#1A0F91"/>
        </linearGradient>
        <linearGradient id="am" x1="100.002%" x2="-.014%" y1="50.003%" y2="50.003%">
            <stop offset="0%" stop-color="#FF928E"/>
            <stop offset="100%" stop-color="#FDB3B0"/>
        </linearGradient>
        <linearGradient id="ap" x1="99.957%" x2="72.604%" y1="-58.8%" y2="1.105%">
            <stop offset="0%" stop-color="#08005D"/>
            <stop offset="100%" stop-color="#1A0F91"/>
        </linearGradient>
        <linearGradient id="as" x1="4106.075%" x2="4183.624%" y1="-5732.779%" y2="-5843.424%">
            <stop offset="0%" stop-color="#FD6F61"/>
            <stop offset="100%" stop-color="#FF928E"/>
        </linearGradient>
        <linearGradient id="av" x1="72.719%" x2="-1228.31%" y1="35.858%" y2="846.697%">
            <stop offset="0%" stop-color="#08005D"/>
            <stop offset="100%" stop-color="#1A0F91"/>
        </linearGradient>
        <linearGradient id="ay" x1="28.613%" x2="86.586%" y1="10.026%" y2="114.241%">
            <stop offset="0%" stop-color="#FF928E"/>
            <stop offset="100%" stop-color="#FDB3B0"/>
        </linearGradient>
        <linearGradient id="aB" x1="5582.371%" x2="5688.682%" y1="-9961.98%" y2="-10154.437%">
            <stop offset="0%" stop-color="#FD6F61"/>
            <stop offset="100%" stop-color="#FF928E"/>
        </linearGradient>
        <linearGradient id="aE" x1="5788.315%" x2="5897.811%" y1="-11798.115%" y2="-12024.133%">
            <stop offset="0%" stop-color="#FD6F61"/>
            <stop offset="100%" stop-color="#FF928E"/>
        </linearGradient>
        <linearGradient id="aH" x1="100%" x2=".01%" y1="49.999%" y2="49.999%">
            <stop offset="0%" stop-color="#FF928E"/>
            <stop offset="100%" stop-color="#FDB3B0"/>
        </linearGradient>
        <linearGradient id="aK" x1="49.811%" x2="50.642%" y1="-.429%" y2="188.772%">
            <stop offset="0%" stop-color="#FF928E"/>
            <stop offset="100%" stop-color="#FDB3B0"/>
        </linearGradient>
        <linearGradient id="aN" x1="99.999%" x2="-.001%" y1="49.996%" y2="49.996%">
            <stop offset="0%" stop-color="#08005D"/>
            <stop offset="100%" stop-color="#1A0F91"/>
        </linearGradient>
        <linearGradient id="aQ" x1="-199.651%" x2="144.52%" y1="21.247%" y2="-1082.521%">
            <stop offset="0%" stop-color="#FD8579"/>
            <stop offset="100%" stop-color="#FFA19F"/>
        </linearGradient>
        <linearGradient id="aT" x1="1765.308%" x2="1459.338%" y1="-4220.762%" y2="-3053.394%">
            <stop offset="0%" stop-color="#2D2575"/>
            <stop offset="100%" stop-color="#3B33A0"/>
        </linearGradient>
        <linearGradient id="aW" x1="-432.239%" x2="158.005%" y1="-260.887%" y2="-6026.165%">
            <stop offset="0%" stop-color="#FD8579"/>
            <stop offset="100%" stop-color="#FFA19F"/>
        </linearGradient>
        <linearGradient id="aZ" x1="-699.487%" x2="433.483%" y1="100.41%" y2="-2663.058%">
            <stop offset="0%" stop-color="#FDACA3"/>
            <stop offset="100%" stop-color="#FFC0BC"/>
        </linearGradient>
        <linearGradient id="bc" x1="-56.946%" x2="83.495%" y1="-25.552%" y2="-795.443%">
            <stop offset="0%" stop-color="#FDACA3"/>
            <stop offset="100%" stop-color="#FFC0BC"/>
        </linearGradient>
        <linearGradient id="bf" x1="100%" x2="-.001%" y1="50.001%" y2="50.001%">
            <stop offset="0%" stop-color="#08005D"/>
            <stop offset="100%" stop-color="#1A0F91"/>
        </linearGradient>
        <linearGradient id="bi" x1="-11.364%" x2="157.955%" y1="34.758%" y2="79.373%">
            <stop offset="0%" stop-color="#FF928E"/>
            <stop offset="100%" stop-color="#FDB3B0"/>
        </linearGradient>
        <linearGradient id="bl" x1="100.006%" x2=".01%" y1="50.002%" y2="50.002%">
            <stop offset="0%" stop-color="#FF928E"/>
            <stop offset="100%" stop-color="#FDB3B0"/>
        </linearGradient>
        <linearGradient id="bo" x1="2435.929%" x2="2389.331%" y1="7623.73%" y2="7475.92%">
            <stop offset="0%" stop-color="#FF928E"/>
            <stop offset="100%" stop-color="#FDB3B0"/>
        </linearGradient>
        <linearGradient id="br" x1="71.861%" x2="-1.046%" y1="16.31%" y2="108.92%">
            <stop offset="0%" stop-color="#08005D"/>
            <stop offset="100%" stop-color="#1A0F91"/>
        </linearGradient>
        <linearGradient id="bu" x1="6252.079%" x2="6130.803%" y1="24713.206%" y2="24230.884%">
            <stop offset="0%" stop-color="#FF928E"/>
            <stop offset="100%" stop-color="#FDB3B0"/>
        </linearGradient>
        <linearGradient id="bx" x1="50.074%" x2="60.827%" y1="45.232%" y2="-61.795%">
            <stop offset="0%" stop-color="#FF928E"/>
            <stop offset="100%" stop-color="#FDB3B0"/>
        </linearGradient>
        <linearGradient id="bA" x1="69.378%" x2="58.935%" y1="-8.908%" y2="24.866%">
            <stop offset="0%" stop-color="#FF928E"/>
            <stop offset="100%" stop-color="#FDB3B0"/>
        </linearGradient>
        <linearGradient id="bD" x1="-.001%" x2="100.001%" y1="50.004%" y2="50.004%">
            <stop offset="0%" stop-color="#FF928E"/>
            <stop offset="100%" stop-color="#FDB3B0"/>
        </linearGradient>
        <linearGradient id="bG" x1="41.673%" x2="46.976%" y1="-270.059%" y2="-61.856%">
            <stop offset="0%" stop-color="#08005D"/>
            <stop offset="100%" stop-color="#1A0F91"/>
        </linearGradient>
        <linearGradient id="bJ" x1="372.577%" x2="285.02%" y1="-857.516%" y2="-605.417%">
            <stop offset="0%" stop-color="#08005D"/>
            <stop offset="100%" stop-color="#1A0F91"/>
        </linearGradient>
        <linearGradient id="bM" x1="70.601%" x2="-23.273%" y1="27.546%" y2="157.391%">
            <stop offset="0%" stop-color="#4042E1"/>
            <stop offset="100%" stop-color="#4F52FF"/>
        </linearGradient>
        <linearGradient id="bP" x1="0%" x2="100.001%" y1="49.99%" y2="49.99%">
            <stop offset="0%" stop-color="#FF928E"/>
            <stop offset="100%" stop-color="#FDB3B0"/>
        </linearGradient>
        <linearGradient id="bS" x1="68.422%" x2="-24.204%" y1="8.739%" y2="180.246%">
            <stop offset="0%" stop-color="#FD6F61"/>
            <stop offset="100%" stop-color="#FF928E"/>
        </linearGradient>
        <linearGradient id="bV" x1="62.293%" x2="35.864%" y1="19.139%" y2="67.567%">
            <stop offset="0%" stop-color="#FF928E"/>
            <stop offset="100%" stop-color="#FDB3B0"/>
        </linearGradient>
        <linearGradient id="bY" x1="80.737%" x2="-11.381%" y1="-1.374%" y2="140.147%">
            <stop offset="0%" stop-color="#FF928E"/>
            <stop offset="100%" stop-color="#FDB3B0"/>
        </linearGradient>
        <linearGradient id="cb" x1="83.436%" x2="4.44%" y1="107.486%" y2="-51.457%">
            <stop offset="0%" stop-color="#FF928E"/>
            <stop offset="100%" stop-color="#FDB3B0"/>
        </linearGradient>
        <linearGradient id="ce" x1="49.908%" x2="51.81%" y1="37.107%" y2="132.204%">
            <stop offset="0%" stop-color="#08005D"/>
            <stop offset="100%" stop-color="#1A0F91"/>
        </linearGradient>
        <path id="a"
              d="M477.042 1392.99c-21.271 0-42.556-.84-63.815-2.73-110.503-9.78-222.469-50.87-297.231-134.86-74.761-83.99-103.381-215.8-49.84-315.37 20.652-38.41 52.175-70.978 65.612-112.614 22.662-70.214-11.528-145.617-49.569-208.457C44.157 556.117-.34 491.129 0 417.173c.414-89.184 78.14-170.518 165.116-172.778 1.671-.044 3.344-.062 5.019-.062 4.485 0 8.981.131 13.476.262 4.493.132 8.985.263 13.461.263 8.771 0 17.482-.504 26.031-2.498 18.904-4.411 37.592-18.937 38.849-38.769.784-12.368-5.215-23.952-9.041-35.709-19.185-58.966 20.482-125.783 75.761-151.329C353.163 5.234 379.552.487 406.332.487c33.663 0 67.943 7.502 99.839 18.879 57.268 20.428 109.925 52.447 166.179 75.649 70.056 28.894 145.561 43.43 221.06 43.428 62.61-.001 125.22-9.997 184.69-30.092 76.97-26.01 148.29-68.082 226.21-90.961 31.56-9.269 65.24-14.881 98.38-14.881 48.66 0 96.18 12.096 134.21 42.471 41.54 33.176 69.43 86.052 118.84 104.697 13.38 5.046 26.84 7.147 40.39 7.146 55.9-.005 113.18-35.802 170.74-48.165 14.7-3.158 29.43-4.659 44.1-4.659 104.49 0 204.88 76.304 253.88 173.8 55.87 111.183 57.6 242.634 44.24 366.95-11.36 105.703-36.31 217.042-106.27 294.041V254.126c0-25.702-20.86-46.384-46.35-46.384-.57 0-1.15.011-1.72.032l-677.11 24.712c13.75-61.147 17.72-112.887-2.74-142.934-17.12-25.152-36.31-36.138-55.45-36.138-50.28 0-100.24 75.876-111.48 170.075-1.93 16.162-2.03 34.425-.73 54.012-32.02-57.175-72.48-106.28-116.96-106.28-8.52 0-17.17 1.795-25.96 5.681-31.19 13.799-82.68 89.886-8.46 173.859l-798.038 3.531c-11.388-.723-21.332-1.108-29.605-1.108-4.565 0-8.648.117-12.16.36-70.667 4.873-88.565 53.338-92.097 88.752-1.978 19.829 13.793 36.909 33.646 36.909.177 0 .358-.001.536-.004l219.284-3.396c10.86 20.604 21.258 44.67 30.802 72.784 65.495 192.947 126.161 687.761 401.31 804.341-21.877 3.38-43.714 6.99-65.494 10.6-88.427 14.66-177.708 29.46-267.002 29.46m1023.388-4.89c-38.68 0-77.36-1.28-115.96-3.82h231.79c-38.57 2.55-77.18 3.82-115.83 3.82m-158.94-7.19c-43.65-3.95-87.15-9.53-130.4-16.73 11.1-2.99 21.26-6.17 30.56-9.47l71.78-7.4c3.16 15.32 13.87 27.87 28.06 33.6m-33.87-761.764c-4.49-15.126-9.1-29.735-13.83-43.761 1.39-26.099 6.19-54.792 12.96-84.888l.87 128.649"/>
        <path id="d"
              d="M750.44 1177.28H52.86c-6.14 0-12.01-1.2-17.37-3.37-14.19-5.73-24.9-18.28-28.06-33.6l243.94-25.15c-11.41-6.56-22.09-13.33-32.14-20.42h84.55S136.84 1009.33 68.9 692.93c-11.66-54.323-22.8-105.703-34.1-153.67a124.64 124.64 0 0 0-4.22-17.734c-9.38-38.967-18.9-75.502-28.96-109.38L.75 283.497c18.89-84.039 53.09-178.904 70.89-258.011L748.75.774c.57-.032 1.15-.032 1.72-.032 25.49 0 46.35 20.682 46.35 46.384V1130.89c0 25.62-20.76 46.39-46.38 46.39"/>
        <path id="g"
              d="M634.12 1054.4H17.96c-9.42 0-17.06-7.64-17.06-17.06V17.43C.9 8.008 8.54.37 17.96.37h616.16c9.42 0 17.06 7.638 17.06 17.06v1019.9c0 9.43-7.64 17.07-17.06 17.07"/>
        <path id="j"
              d="M117.96 21.312H9.53a8.87 8.87 0 0 1-.27-17.735L117.69.241c5-.154 9.14 3.86 9.14 8.865v3.336a8.87 8.87 0 0 1-8.87 8.87"/>
        <path id="m"
              d="M34.606 126.205c-19.853 0-35.624-17.08-33.646-36.909C4.492 53.882 22.39 5.417 93.057.544c3.512-.243 7.595-.36 12.16-.36 8.273 0 18.217.385 29.605 1.108l-27.825.123a92.729 92.729 0 0 0-7.168-.289c-4.354 0-6.772.351-6.772.351l13.94-.062c28.094 2.188 93.45 18.985 147.429 121.39l-219.284 3.396c-.178.004-.359.004-.536.004"/>
        <path id="p"
              d="M820.35 1034.28c-41.35 0-88.12-2.62-140.9-8.78-30.776-3.59-59.338-11.31-85.912-22.57-275.149-116.58-335.815-611.394-401.31-804.341-9.544-28.114-19.942-52.18-30.802-72.784C107.447 23.4 42.091 6.603 13.997 4.415l27.825-.123L839.86.761l37.58-.166c96.9 9.229 154.04 89.754 198.71 219.99.55 1.592 1.1 3.193 1.64 4.8 4.73 14.026 9.34 28.635 13.83 43.761 10.06 33.878 19.58 70.413 28.96 109.38 0-.032-.02-.059-.03-.09-1.1-4.571-2.2-9.11-3.31-13.615l-1.37 1.166c-9.53-21.805-25.01-40.498-44.44-54.122l26.15-22.088c-40.53-143.559-88.69-242.683-170.32-276.894l-40.32 29.374c-15.72-9.596-25.03-9.596-25.03-9.596l-679.129-7.504-.123-.001c-8.604 0-13.392 10.064-7.848 16.691 74.422 88.947 104.922 246.531 146.621 412.442l-50.536 36.82C306.481 618.12 353.55 754.17 425.565 857.51l37.825-31.95c14.154 21.77 28.865 41.22 43.904 58.58l-35.92 30.58c22.299 24.02 46.631 45.01 73.239 62.2l33.305-26.77c88.822 66.12 177.252 76.34 223.422 76.34 20.65 0 32.86-2.04 32.86-2.04l191.45-19.74c-9.3 3.3-19.46 6.48-30.56 9.47-43.02 11.57-100.06 20.1-174.74 20.1m573.43-82.54h-84.55c-99.82-70.41-137.07-172.5-206.21-423.574l43.61-35.041c-7.33-33.6-14.54-65.904-21.82-96.787 0-.025 0-.053-.01-.078 11.3 47.967 22.44 99.347 34.1 153.67 67.94 316.4 234.88 401.81 234.88 401.81M.057 4.477s2.418-.351 6.772-.351c1.997 0 4.402.074 7.168.289l-13.94.062"/>
        <path id="s"
              d="M532.86 25.776H12.859c-4.63 0-8.885-2.541-11.081-6.618l-.035-.065C-2.771 10.709 3.301.542 12.824.542H567.49l-34.63 25.234"/>
        <path id="v"
              d="M426.61 25.892H13.211a12.583 12.583 0 0 1-11.08-6.618l-.035-.065C-2.419 10.824 3.654.658 13.175.658H461.24l-34.63 25.234"/>
        <path id="y"
              d="m318.302 27.502-304.78-1.458a12.585 12.585 0 0 1-11.02-6.618C-2.015 11.037 4.067.875 13.579.875h.064L352.62 2.497l-34.318 25.005"/>
        <path id="B"
              d="M200.61 15.04 1013.49.49c16.63-.3 30.18 13.18 30.041 29.81-.421 53.93-22.611 163.47-190.521 190.98H.2s151.73-19.33 171.46-180.07c1.81-14.72 14.12-25.91 28.95-26.17"/>
        <path id="E"
              d="M155.565 845.51C83.55 742.17 36.481 606.12.895 479.109l50.536-36.82C81.286 561.07 116.879 684.12 178.455 789.34a607.446 607.446 0 0 0 14.935 24.22l-37.825 31.95M801.43 299.865a131.557 131.557 0 0 0-35.59-17.634C706 107.58 648.53 49.54 616.94 30.257L657.26.883c81.63 34.211 129.79 133.335 170.32 276.894l-26.15 22.088"/>
        <path id="H"
              d="M54.02 25.776H.86L35.49.542h18.49c4.63 0 8.89 2.542 11.08 6.618l.04.065c4.51 8.385-1.56 18.551-11.08 18.551"/>
        <path id="K"
              d="M160.37 25.892H.61L35.24.658h125.1c4.63 0 8.88 2.542 11.08 6.618l.03.065c4.52 8.384-1.56 18.551-11.08 18.551"/>
        <path id="N"
              d="M72.62 25.848h-.06L.302 25.502 34.62.497l38.06.182A12.6 12.6 0 0 1 83.7 7.297c4.51 8.388-1.57 18.551-11.08 18.551"/>
        <path id="Q"
              d="M73.613 580.92c-26.608-17.19-50.94-38.18-73.239-62.2l35.92-30.58c23.035 26.6 46.842 48.31 70.624 66.01l-33.305 26.77M632.02 132.166c-2.52-9.175-5.09-18.542-7.71-28.121 19.42-22.456 31.14-51.539 31.14-83.309 0-6.941-.56-13.755-1.64-20.398 7.28 30.883 14.49 63.187 21.82 96.787l-43.61 35.041"/>
        <path id="T" d="M5.55 14.436A124.68 124.68 0 0 0 .87 1.987L2.24.821c1.11 4.505 2.21 9.044 3.31 13.615"/>
        <path id="W"
              d="M2.43.29c9.9.86 27.09 2.25 40.65 2.84 8.14.36 12.83-.44 15.53-1.52 0 .31-.01.6-.02.86-.07 1.43-1.22 2.57-2.67 2.65-25.6 1.43-45.97.49-53.22.05-1.5-.09-2.39-1.72-1.62-3 .38-.63.85-1.26 1.35-1.88"/>
        <path id="Z"
              d="M41.08 23.13c-13.56-.59-30.75-1.98-40.65-2.84 9.74-11.95 40.65-20 40.65-20h8.73c6 8.65 6.87 16.89 6.8 21.32-2.7 1.08-7.39 1.88-15.53 1.52"/>
        <path id="ac"
              d="m17.28.04-.82 16.16c-.09 1.76-1.4 3.23-3.15 3.48s-4.08.28-6.56-.55c-1.52-.5-2.66-1.79-2.94-3.35L.99.04h16.29"/>
        <path id="af"
              d="M15.66 6.01c4.3-.6 6.24-2.83 7.05-5.21l.02.06c.63 2.52-.83 5.12-3.76 6.36-3.54 1.5-7.41 1.76-10.42 1.64C5.33 8.72 2.37 7.39.74 5.25l-.02-.03c3.24 1.6 7.78 1.79 14.94.79"/>
        <path id="ai"
              d="M5.41.93h7.2C23.57.71 30.46 23.84 32.71 32.8c-.81 2.38-2.75 4.61-7.05 5.21-7.16 1-11.7.81-14.94-.79C4.79 29.43 1.86 18.01.45 11.34-1.16 3.77 5.41.93 5.41.93"/>
        <path id="al"
              d="m15.68.93 4 15.9c.49 1.95-.44 3.97-2.24 4.89-2.24 1.15-5.39 2.35-8.28 2.01-1.36-.17-2.49-1.13-2.94-2.41L.35 4.59 15.68.93"/>
        <path id="ao"
              d="M154.45 226.53c-4.97 4.41-21.15 4.99-21.15 4.99C75.03 91.66 51.19 71.79 51.19 71.79c8.41 52.79 1.36 169.66 1.36 169.66-9.62 4.24-22.02 0-22.02 0C29.75 155.03 16.47 79.66.78 20.24 40.16 19.35 61.11 5.87 67.94.46c32.84 52.93 86.51 226.07 86.51 226.07"/>
        <path id="ar"
              d="M110.94 1.624c7.46 37.186 4.79 103.739 3.03 134.096-.49 8.53 5.46 20.36 10.28 28.43.75 1.27.29 2.89-1.02 3.56-8.06 4.14-35.37 16.98-67.02 18.58-2.11.11-3.99-1.33-4.54-3.37C28.2 95.264.93 39.252.93 39.252 31.03-8.82 110.94 1.624 110.94 1.624"/>
        <path id="au"
              d="M24.21 23.48c.33 0 .67-.09.97-.27.88-.54 1.16-1.69.63-2.57-.32-.51-7.85-12.7-23.11-20.06C1.77.14.66.53.21 1.46c-.45.92-.06 2.04.87 2.49 14.22 6.86 21.47 18.52 21.54 18.63.35.58.96.9 1.59.9"/>
        <path id="ax"
              d="M29.7 3.344C27.31 20.666 20.23 39.56 6.08 59.63L.7 55.25s6.21-25.203 2.68-53.8c8.73-1.703 19.04.052 26.32 1.894"/>
        <path id="aA"
              d="M.62 46.506 8.94.624s55.64 42.525 46.76 106.72c-7.28-1.842-17.59-3.597-26.32-1.894C26.84 84.85 19.24 62.486.62 46.506"/>
        <path id="aD"
              d="M20.93.252 42.4 46.5C38.93 74.422 23.93 86.494 7.76 91.125 6.75 78.399 3.53 68.119.55 61.007 21.21 39.672 20.93.252 20.93.252"/>
        <path id="aG"
              d="M47.55.007c2.98 7.112 6.2 17.392 7.21 30.118C11.61 46.87.19 14.398.19 14.398l7.98-1.406C26.18 14.889 38.76 9.083 47.55.007"/>
        <path id="aJ"
              d="m.71 11.154 10.37 38.112c1.17 4.281 5.8 6.58 9.92 4.933 4.44-1.777 10.08-4.203 14.94-6.825 5.18-2.798 6.8-9.466 3.52-14.358L17.91.878.71 11.154"/>
        <path id="aM"
              d="M7.42.896 273.07 97.58c11.14 4.06 16.47 16.74 11.56 27.54l-.81 1.77c-4.34 9.55-15.63 13.74-25.15 9.33L.73 16.896l6.69-16"/>
        <path id="aP"
              d="M21.61 94.355C14.46 67.946 7.27 43.379.1 20.579L23.43.865c19.43 13.624 34.91 32.317 44.44 54.122L21.62 94.372"/>
        <path id="aS" d="M4.8 18.26C3.4 12.309 1.99 6.37.58.526A124.64 124.64 0 0 1 4.8 18.26"/>
        <path id="aV"
              d="M4.81 18.338C3.4 12.316 1.98 6.348.55.436l.03.09C1.99 6.37 3.4 12.309 4.8 18.26c.01.025.01.053.01.078"/>
        <path id="aY" d="M13.1 37.579C9 24.56 4.92 12.142.84.231a131.557 131.557 0 0 1 35.59 17.634L13.1 37.579"/>
        <path id="bb"
              d="M26.31 135.045C18.24 105.49 9.72 73.976.61 40.355L46.87.987a124.68 124.68 0 0 1 4.68 12.449c1.43 5.912 2.85 11.88 4.26 17.902a127.051 127.051 0 0 1 1.64 20.398c0 31.77-11.72 60.853-31.14 83.309"/>
        <path id="be"
              d="M21.83 143.736c0-67.511 55.73-122.24 124.48-122.24 68.76 0 124.49 54.729 124.49 122.24 0 67.512-55.73 122.244-124.49 122.244-68.75 0-124.48-54.732-124.48-122.244Zm-21.44 0c0 79.137 65.33 143.284 145.92 143.284 80.59 0 145.92-64.147 145.92-143.284C292.23 64.601 226.9.448 146.31.448 65.72.448.39 64.601.39 143.736Z"/>
        <path id="bh"
              d="M36.92 2.48 11.81.43.93 10.46s2.57 3.56 10.62 1.51c8.04-2.04 19.06-2.54 19.06-2.54s11.11 5 11.24-4.36l-4.93-2.59"/>
        <path id="bk"
              d="M17.39 19.339c-2.17 1.697-9.61-1.846-14.16-4.295-2.22-1.193-3.3-3.788-2.54-6.19C1.79 5.398 3.62.938 5.87.376 9.6-.557 26.34 12.347 17.39 19.339"/>
        <path id="bn"
              d="M10.47.741S1.89 20.453 1.32 30.799c-.58 10.346-2.81 17.059 9.15 19.142 11.97 2.084 22.04-3.876 27.5-14.181 0 0 8.56-15.88 6.64-22.384C42.69 6.873 10.47.741 10.47.741"/>
        <path id="bq"
              d="M34.89 49.351h-1.52s6.23-12.782.76-15.027C28.65 32.078 6.97 27.655 2.29 19.96-2.22 12.542 1.8 2.958 7.82.276c.38-.169.83.01 1.02.379l.5.943c.34.646 1.3.548 1.5-.154.19-.665 1.09-.811 1.46-.222 1.43 2.301 5.31 6.043 15.71 7.963 14.76 2.724 24.52 8.698 24.76 18.899.01.646.71 1.002 1.26.666 1.09-.664 2.83-.976 5.16.984 4.05 3.408 2.4 12.248-6.49 19.52-.42.346-.42 1.005.04 1.303 1.61 1.048 4.01 3.544-2.21 6.869-6.36 3.402-10.13 3.031-11.55 2.668a.815.815 0 0 1-.62-.841l.56-9.04a.81.81 0 0 0-.81-.862h-3.22"/>
        <path id="bt" d="M.51 10.241S3.79-2.35 9.43 1.18c5.65 3.531-2.93 14.108-7.47 14.58L.51 10.241"/>
        <path id="bw"
              d="M53.618.39 23.305 7.96l7.577 56.84S19.515 76.17 15.726 91.33c-3.789 15.15-7.283 78.79-7.283 78.79l-7.193 4.35-.875 3.63 20.927 28.14-3.47-22.4c-.551-3.55.403-10.76.103-10.91C29.302 142.62 53.618 57.22 53.618 57.22V.39"/>
        <path id="bz"
              d="M32.475 231.49c-.328 0-.65.02-.98 0 1.465-18.27 8.159-98.7 14.858-128.85C53.932 68.54 34.986.34 34.986.34L.882 34.44l18.947 64.42c-12.984 19.47 2.117 133.52 1.792 133.47l.021.26-4.943 6.79.601 3.69 30.2 17.82-11.883-19.3c-1.887-3.06-2.929-6.53-3.142-10.1"/>
        <path id="bC" d="M30.118.09s-66.399 92.13 0 139.37l6.764-6.03s-32.965-38.86 0-86.44L30.118.09"/>
        <path id="bF"
              d="M35.489 28.69h-9.638a5.802 5.802 0 0 1-4.605-2.26c-3.005-3.91-9.229-11.52-12.206-11.72-4.007-.27-3.494 13.98-3.494 13.98H3.3L.455 10.98A10.48 10.48 0 0 1 5.953.03s.916 6.78 5.882 9.77c4.967 3 20.21 13.73 20.21 13.73s1.868-.27 3.917.1c3.041.55 2.617 5.06-.473 5.06"/>
        <path id="bI"
              d="m30.051 38.59-8.883-3.74a5.797 5.797 0 0 1-3.37-3.87c-1.256-4.76-4.04-14.19-6.706-15.53-3.589-1.8-8.641 11.53-8.641 11.53l-2.07-.87L4.623 8.69A10.484 10.484 0 0 1 13.938.72s-1.782 6.6 1.633 11.29C18.987 16.7 28.877 32.5 28.877 32.5s1.824.48 3.57 1.61c2.59 1.69.452 5.68-2.396 4.48"/>
        <path id="bL"
              d="M65.67.67s-1.114 6.83.518 25.61c1.633 18.78 9.438 62.86 7.849 105.04 0 0-22.187 5.17-60.735 2.72 0 0-16.268-65.85-12.305-90.89C4.96 18.12 26.458.16 26.458.16L65.67.67"/>
        <path id="bO" d="m23.276 17.2 2.712 31.89H.224L6.63.42 23.276 17.2"/>
        <path id="bR"
              d="M8.591 1.68c8.892-.49 28.772-1.4 42.856-.63A16.35 16.35 0 0 1 66.59 14.04l3.435 16.46a39.673 39.673 0 0 1-.558 18.53L55.67 99.67s-12.272 7.38-39.212-.51c0 0-23.659-56.42-13.975-92.51a6.702 6.702 0 0 1 6.108-4.97"/>
        <path id="bU"
              d="M20.917 7.09c3.795 10 7.223 20.48 10.905 30.3 1.873 4.91 3.772 9.73 5.803 14.15 1.028 2.2 2.157 4.23 3.193 6.06 1.037 1.82 2.205 3.33 2.814 4.03.119.1-.28.18-.414.19-.081.01 2.565.43 3.377.57l3.172-.02c4.546-.24 9.693-1.04 14.863-2.04 10.41-1.94 21.24-4.67 32.36-6.73l.09-.02a3.926 3.926 0 0 1 4.57 3.14c.26 1.4-.27 2.77-1.27 3.65-4.48 3.95-9.23 7.19-14.16 10.35-2.49 1.52-5.01 3-7.58 4.43-2.61 1.34-5.24 2.68-7.96 3.92-5.49 2.4-11.16 4.6-17.693 6.01-1.716.29-3.411.59-5.176.83-1.981.07-3.78.24-5.943.12-1.15-.12-2.304-.26-3.455-.42-.614-.11-1.065-.12-1.809-.33-.789-.24-1.576-.5-2.353-.79-1.621-.58-2.669-1.29-3.987-2.02-1.094-.72-2.092-1.48-3.059-2.25-3.571-3.04-5.788-6.06-7.742-8.96-1.948-2.89-3.493-5.8-4.88-8.64-2.781-5.68-4.953-11.3-6.715-16.97C4.297 34.29 1.877 23.14.856 11.28.367 5.61 4.573.61 10.251.12c4.699-.41 8.934 2.4 10.53 6.6l.136.37"/>
        <path id="bX"
              d="m.49 17.69 4.6-10.91L29.29.75s1.93 4.19-8.23 6.03c0 0 3.63 4.01 1.69 8.73C20.82 20.23.25 24.95.49 17.69"/>
        <path id="ca"
              d="M29.185 5.38c.919.54 8.168 26.1 2.094 36.82C25.205 52.92 6.657 40.91 1.63 25.42-3.397 9.92 4.679-9.08 29.185 5.38"/>
        <path id="cd"
              d="M107.111 40.42c-4.16 20.38-17.945 14.8-27.709 23.87-15.824 14.7-38.461-.46-60.468 13.47C3.046 87.82-4.608 113.54 3.016 134.32c10.56 28.76 46.646 40.59 65.347 31.83 17.874-8.37 15.328-33.45 39.376-43.15 10.209-4.11 15.25-1.44 21.364-7.54 10.703-10.67 7.815-31.39 6.702-39.37-2.414-17.32-8.221-20.46-5.445-28.07 5.397-14.8 30.575-11.75 32.674-22.2 1.91-9.52-16.339-27.556-33.513-24.714-26.57 4.394-20.557 30.224-22.41 39.314"/>
    </defs>
    <g fill="none" fill-rule="evenodd">
        <mask id="c" fill="#fff">
            <use xlink:href="#a"/>
        </mask>
        <path fill="url(#b)"
              d="M477.042 1392.99c-21.271 0-42.556-.84-63.815-2.73-110.503-9.78-222.469-50.87-297.231-134.86-74.761-83.99-103.381-215.8-49.84-315.37 20.652-38.41 52.175-70.978 65.612-112.614 22.662-70.214-11.528-145.617-49.569-208.457C44.157 556.117-.34 491.129 0 417.173c.414-89.184 78.14-170.518 165.116-172.778 1.671-.044 3.344-.062 5.019-.062 4.485 0 8.981.131 13.476.262 4.493.132 8.985.263 13.461.263 8.771 0 17.482-.504 26.031-2.498 18.904-4.411 37.592-18.937 38.849-38.769.784-12.368-5.215-23.952-9.041-35.709-19.185-58.966 20.482-125.783 75.761-151.329C353.163 5.234 379.552.487 406.332.487c33.663 0 67.943 7.502 99.839 18.879 57.268 20.428 109.925 52.447 166.179 75.649 70.056 28.894 145.561 43.43 221.06 43.428 62.61-.001 125.22-9.997 184.69-30.092 76.97-26.01 148.29-68.082 226.21-90.961 31.56-9.269 65.24-14.881 98.38-14.881 48.66 0 96.18 12.096 134.21 42.471 41.54 33.176 69.43 86.052 118.84 104.697 13.38 5.046 26.84 7.147 40.39 7.146 55.9-.005 113.18-35.802 170.74-48.165 14.7-3.158 29.43-4.659 44.1-4.659 104.49 0 204.88 76.304 253.88 173.8 55.87 111.183 57.6 242.634 44.24 366.95-11.36 105.703-36.31 217.042-106.27 294.041V254.126c0-25.702-20.86-46.384-46.35-46.384-.57 0-1.15.011-1.72.032l-677.11 24.712c13.75-61.147 17.72-112.887-2.74-142.934-17.12-25.152-36.31-36.138-55.45-36.138-50.28 0-100.24 75.876-111.48 170.075-1.93 16.162-2.03 34.425-.73 54.012-32.02-57.175-72.48-106.28-116.96-106.28-8.52 0-17.17 1.795-25.96 5.681-31.19 13.799-82.68 89.886-8.46 173.859l-798.038 3.531c-11.388-.723-21.332-1.108-29.605-1.108-4.565 0-8.648.117-12.16.36-70.667 4.873-88.565 53.338-92.097 88.752-1.978 19.829 13.793 36.909 33.646 36.909.177 0 .358-.001.536-.004l219.284-3.396c10.86 20.604 21.258 44.67 30.802 72.784 65.495 192.947 126.161 687.761 401.31 804.341-21.877 3.38-43.714 6.99-65.494 10.6-88.427 14.66-177.708 29.46-267.002 29.46m1023.388-4.89c-38.68 0-77.36-1.28-115.96-3.82h231.79c-38.57 2.55-77.18 3.82-115.83 3.82m-158.94-7.19c-43.65-3.95-87.15-9.53-130.4-16.73 11.1-2.99 21.26-6.17 30.56-9.47l71.78-7.4c3.16 15.32 13.87 27.87 28.06 33.6m-33.87-761.764c-4.49-15.126-9.1-29.735-13.83-43.761 1.39-26.099 6.19-54.792 12.96-84.888l.87 128.649"
              mask="url(#c)"/>
        <g transform="translate(1306 207)">
            <mask id="f" fill="#fff">
                <use xlink:href="#d"/>
            </mask>
            <path fill="url(#e)"
                  d="M750.44 1177.28H52.86c-6.14 0-12.01-1.2-17.37-3.37-14.19-5.73-24.9-18.28-28.06-33.6l243.94-25.15c-11.41-6.56-22.09-13.33-32.14-20.42h84.55S136.84 1009.33 68.9 692.93c-11.66-54.323-22.8-105.703-34.1-153.67a124.64 124.64 0 0 0-4.22-17.734c-9.38-38.967-18.9-75.502-28.96-109.38L.75 283.497c18.89-84.039 53.09-178.904 70.89-258.011L748.75.774c.57-.032 1.15-.032 1.72-.032 25.49 0 46.35 20.682 46.35 46.384V1130.89c0 25.62-20.76 46.39-46.38 46.39"
                  mask="url(#f)"/>
        </g>
        <g transform="translate(1374 293)">
            <mask id="i" fill="#fff">
                <use xlink:href="#g"/>
            </mask>
            <path fill="url(#h)"
                  d="M634.12 1054.4H17.96c-9.42 0-17.06-7.64-17.06-17.06V17.43C.9 8.008 8.54.37 17.96.37h616.16c9.42 0 17.06 7.638 17.06 17.06v1019.9c0 9.43-7.64 17.07-17.06 17.07"
                  mask="url(#i)"/>
        </g>
        <g transform="translate(1613 241)">
            <mask id="l" fill="#fff">
                <use xlink:href="#j"/>
            </mask>
            <path fill="url(#k)"
                  d="M117.96 21.312H9.53a8.87 8.87 0 0 1-.27-17.735L117.69.241c5-.154 9.14 3.86 9.14 8.865v3.336a8.87 8.87 0 0 1-8.87 8.87"
                  mask="url(#l)"/>
        </g>
        <path fill="#91B3FA"
              d="M1671.78 555.42h-220.19a8.751 8.751 0 0 1-8.75-8.75V370.059c0-4.833 3.92-8.75 8.75-8.75h220.19c4.83 0 8.75 3.917 8.75 8.75V546.67c0 4.833-3.92 8.75-8.75 8.75"/>
        <path fill="#7D97F4"
              d="M1959.17 555.42h-220.19a8.751 8.751 0 0 1-8.75-8.75V370.059c0-4.833 3.92-8.75 8.75-8.75h220.19c4.83 0 8.75 3.917 8.75 8.75V546.67c0 4.833-3.92 8.75-8.75 8.75M1671.78 784.472h-220.19a8.751 8.751 0 0 1-8.75-8.75V599.11c0-4.832 3.92-8.75 8.75-8.75h220.19c4.83 0 8.75 3.918 8.75 8.75v176.612c0 4.833-3.92 8.75-8.75 8.75"/>
        <path fill="#91B3FA"
              d="M1959.17 784.472h-220.19a8.751 8.751 0 0 1-8.75-8.75V599.11c0-4.832 3.92-8.75 8.75-8.75h220.19c4.83 0 8.75 3.918 8.75 8.75v176.612c0 4.833-3.92 8.75-8.75 8.75"/>
        <path fill="#7D97F4"
              d="M1950.44 885.41h-498.86c-9.12 0-16.5-7.387-16.5-16.5 0-9.112 7.38-16.499 16.5-16.499h498.86c9.12 0 16.5 7.387 16.5 16.499 0 9.113-7.38 16.5-16.5 16.5M1950.44 932h-498.86c-9.12 0-16.5-7.39-16.5-16.5 0-9.12 7.38-16.5 16.5-16.5h498.86c9.12 0 16.5 7.38 16.5 16.5 0 9.11-7.38 16.5-16.5 16.5M1950.44 978.58h-498.86c-9.12 0-16.5-7.38-16.5-16.5 0-9.11 7.38-16.5 16.5-16.5h498.86c9.12 0 16.5 7.39 16.5 16.5 0 9.12-7.38 16.5-16.5 16.5M1610.75 1049.61h356.19v-20.56h-356.19zM1610.75 1078.64h356.19v-20.56h-356.19zM1610.75 1107.67h356.19v-20.56h-356.19zM2067.88 658.299c-1.07 0-1.94-.869-1.94-1.941V274.143c0-9.193-3.68-17.733-10.36-24.048-6.68-6.313-15.41-9.507-24.59-8.985l-168.76 9.552a1.93 1.93 0 0 1-2.04-1.829 1.934 1.934 0 0 1 1.82-2.047l168.76-9.553c10.27-.584 20.01 2.986 27.48 10.04 7.46 7.056 11.57 16.598 11.57 26.87v382.215c0 1.072-.87 1.941-1.94 1.941"/>
        <path fill="#BDD0FB"
              d="M1295.32 619.477s-102.88-265.933-87.35-395.988C1223.5 93.435 1312.79-1.68 1374.9 89.552c62.12 91.232-100.93 382.4-79.58 529.925"/>
        <path fill="#91B3FA"
              d="M1064.32 176.902c-34.87 15.427-95.11 108.703 23.3 203.817 118.41 95.116 161.11 141.703 186.35 219.347 25.23 77.644 23.29-97.056 0-166.936-23.3-69.88-108.71-300.873-209.65-256.228"/>
        <g transform="translate(123 353)">
            <mask id="o" fill="#fff">
                <use xlink:href="#m"/>
            </mask>
            <path fill="url(#n)"
                  d="M34.606 126.205c-19.853 0-35.624-17.08-33.646-36.909C4.492 53.882 22.39 5.417 93.057.544c3.512-.243 7.595-.36 12.16-.36 8.273 0 18.217.385 29.605 1.108l-27.825.123a92.729 92.729 0 0 0-7.168-.289c-4.354 0-6.772.351-6.772.351l13.94-.062c28.094 2.188 93.45 18.985 147.429 121.39l-219.284 3.396c-.178.004-.359.004-.536.004"
                  mask="url(#o)"/>
        </g>
        <g transform="translate(216 350)">
            <mask id="r" fill="#fff">
                <use xlink:href="#p"/>
            </mask>
            <path fill="url(#q)"
                  d="M820.35 1034.28c-41.35 0-88.12-2.62-140.9-8.78-30.776-3.59-59.338-11.31-85.912-22.57-275.149-116.58-335.815-611.394-401.31-804.341-9.544-28.114-19.942-52.18-30.802-72.784C107.447 23.4 42.091 6.603 13.997 4.415l27.825-.123L839.86.761l37.58-.166c96.9 9.229 154.04 89.754 198.71 219.99.55 1.592 1.1 3.193 1.64 4.8 4.73 14.026 9.34 28.635 13.83 43.761 10.06 33.878 19.58 70.413 28.96 109.38 0-.032-.02-.059-.03-.09-1.1-4.571-2.2-9.11-3.31-13.615l-1.37 1.166c-9.53-21.805-25.01-40.498-44.44-54.122l26.15-22.088c-40.53-143.559-88.69-242.683-170.32-276.894l-40.32 29.374c-15.72-9.596-25.03-9.596-25.03-9.596l-679.129-7.504-.123-.001c-8.604 0-13.392 10.064-7.848 16.691 74.422 88.947 104.922 246.531 146.621 412.442l-50.536 36.82C306.481 618.12 353.55 754.17 425.565 857.51l37.825-31.95c14.154 21.77 28.865 41.22 43.904 58.58l-35.92 30.58c22.299 24.02 46.631 45.01 73.239 62.2l33.305-26.77c88.822 66.12 177.252 76.34 223.422 76.34 20.65 0 32.86-2.04 32.86-2.04l191.45-19.74c-9.3 3.3-19.46 6.48-30.56 9.47-43.02 11.57-100.06 20.1-174.74 20.1m573.43-82.54h-84.55c-99.82-70.41-137.07-172.5-206.21-423.574l43.61-35.041c-7.33-33.6-14.54-65.904-21.82-96.787 0-.025 0-.053-.01-.078 11.3 47.967 22.44 99.347 34.1 153.67 67.94 316.4 234.88 401.81 234.88 401.81M.057 4.477s2.418-.351 6.772-.351c1.997 0 4.402.074 7.168.289l-13.94.062"
                  mask="url(#r)"/>
        </g>
        <path fill="#BDD0FB"
              d="M390.81 391.847c-5.571-6.659-.711-16.786 7.971-16.69l679.129 7.504s106.76 0 207.7 372.694c100.94 372.695 130.06 485.275 271.76 566.805l-507.17 52.29s-232.397 38.94-385.745-223.11C516.874 899.15 518.515 544.476 390.81 391.847"/>
        <g transform="translate(498 419)">
            <mask id="u" fill="#fff">
                <use xlink:href="#s"/>
            </mask>
            <path fill="url(#t)"
                  d="M532.86 25.776H12.859c-4.63 0-8.885-2.541-11.081-6.618l-.035-.065C-2.771 10.709 3.301.542 12.824.542H567.49l-34.63 25.234"
                  mask="url(#u)"/>
        </g>
        <g transform="translate(519 481)">
            <mask id="x" fill="#fff">
                <use xlink:href="#v"/>
            </mask>
            <path fill="url(#w)"
                  d="M426.61 25.892H13.211a12.583 12.583 0 0 1-11.08-6.618l-.035-.065C-2.419 10.824 3.654.658 13.175.658H461.24l-34.63 25.234"
                  mask="url(#x)"/>
        </g>
        <g transform="translate(540 543)">
            <mask id="A" fill="#fff">
                <use xlink:href="#y"/>
            </mask>
            <path fill="url(#z)"
                  d="m318.302 27.502-304.78-1.458a12.585 12.585 0 0 1-11.02-6.618C-2.015 11.037 4.067.875 13.579.875h.064L352.62 2.497l-34.318 25.005"
                  mask="url(#A)"/>
        </g>
        <g transform="translate(1013 1163)">
            <mask id="D" fill="#fff">
                <use xlink:href="#B"/>
            </mask>
            <path fill="url(#C)"
                  d="M200.61 15.04 1013.49.49c16.63-.3 30.18 13.18 30.041 29.81-.421 53.93-22.611 163.47-190.521 190.98H.2s151.73-19.33 171.46-180.07c1.81-14.72 14.12-25.91 28.95-26.17"
                  mask="url(#D)"/>
        </g>
        <path fill="#BDD0FB"
              d="M1998.18 1235.04c4.35-10.12-3.18-21.33-14.19-21.08l-729.88 16.67c-7.35.17-13.4 5.62-14.57 12.88-9.19 56.78-54.19 110.52-84.04 140.77h675.48c108.71-41.79 151.83-113.49 167.2-149.24"/>
        <g transform="translate(486 362)">
            <mask id="G" fill="#fff">
                <use xlink:href="#E"/>
            </mask>
            <path fill="url(#F)"
                  d="M155.565 845.51C83.55 742.17 36.481 606.12.895 479.109l50.536-36.82C81.286 561.07 116.879 684.12 178.455 789.34a607.446 607.446 0 0 0 14.935 24.22l-37.825 31.95M801.43 299.865a131.557 131.557 0 0 0-35.59-17.634C706 107.58 648.53 49.54 616.94 30.257L657.26.883c81.63 34.211 129.79 133.335 170.32 276.894l-26.15 22.088"
                  mask="url(#G)"/>
        </g>
        <path fill="#D2DFFC"
              d="M679.39 1175.56a607.446 607.446 0 0 1-14.935-24.22c-61.576-105.22-97.169-228.27-127.024-347.051l320.871-233.787 72.258.346h.06c9.51 0 15.59-10.163 11.08-18.551a12.6 12.6 0 0 0-11.02-6.618l-38.06-.182 52.99-38.605h159.76c9.52 0 15.6-10.167 11.08-18.551l-.03-.065a12.59 12.59 0 0 0-11.08-6.618h-125.1l50.62-36.882h53.16c9.52 0 15.59-10.166 11.08-18.551l-.04-.065a12.578 12.578 0 0 0-11.08-6.618h-18.49l37.45-27.285c31.59 19.283 89.06 77.323 148.9 251.974-12.76-4.069-26.38-6.267-40.53-6.267-72.42 0-131.13 57.653-131.13 128.772 0 20.97 5.1 40.767 14.16 58.263L679.39 1175.56"/>
        <g transform="translate(1030 419)">
            <mask id="J" fill="#fff">
                <use xlink:href="#H"/>
            </mask>
            <path fill="url(#I)"
                  d="M54.02 25.776H.86L35.49.542h18.49c4.63 0 8.89 2.542 11.08 6.618l.04.065c4.51 8.385-1.56 18.551-11.08 18.551"
                  mask="url(#J)"/>
        </g>
        <g transform="translate(945 481)">
            <mask id="M" fill="#fff">
                <use xlink:href="#K"/>
            </mask>
            <path fill="url(#L)"
                  d="M160.37 25.892H.61L35.24.658h125.1c4.63 0 8.88 2.542 11.08 6.618l.03.065c4.52 8.384-1.56 18.551-11.08 18.551"
                  mask="url(#M)"/>
        </g>
        <g transform="translate(858 545)">
            <mask id="P" fill="#fff">
                <use xlink:href="#N"/>
            </mask>
            <path fill="url(#O)"
                  d="M72.62 25.848h-.06L.302 25.502 34.62.497l38.06.182A12.6 12.6 0 0 1 83.7 7.297c4.51 8.388-1.57 18.551-11.08 18.551"
                  mask="url(#P)"/>
        </g>
        <g transform="translate(687 746)">
            <mask id="S" fill="#fff">
                <use xlink:href="#Q"/>
            </mask>
            <path fill="url(#R)"
                  d="M73.613 580.92c-26.608-17.19-50.94-38.18-73.239-62.2l35.92-30.58c23.035 26.6 46.842 48.31 70.624 66.01l-33.305 26.77M632.02 132.166c-2.52-9.175-5.09-18.542-7.71-28.121 19.42-22.456 31.14-51.539 31.14-83.309 0-6.941-.56-13.755-1.64-20.398 7.28 30.883 14.49 63.187 21.82 96.787l-43.61 35.041"
                  mask="url(#S)"/>
        </g>
        <path fill="#D2DFFC"
              d="M793.918 1300.15c-23.782-17.7-47.589-39.41-70.624-66.01l419.786-357.413c19.88 11.913 43.24 18.783 68.23 18.783 40.08 0 75.95-17.651 100-45.465 2.62 9.579 5.19 18.946 7.71 28.121L793.918 1300.15"/>
        <g transform="translate(1331 714)">
            <mask id="V" fill="#fff">
                <use xlink:href="#T"/>
            </mask>
            <path fill="url(#U)"
                  d="M5.55 14.436A124.68 124.68 0 0 0 .87 1.987L2.24.821c1.11 4.505 2.21 9.044 3.31 13.615"
                  mask="url(#V)"/>
        </g>
        <path fill="#7D97F4"
              d="M506.483 1364.89c4.562 5.69.32 14.07-6.974 13.797-44.845-1.727-152.269-19.657-155.338-151.637-3.882-166.94-32.999-264-149.466-372.697C78.238 745.649 80.179 617.536 179.176 570.949c132.765-62.477 287.285 116.467 285.344 306.697-1.849 181.214-35.405 390.614 41.963 487.244"/>
        <path fill="#BDD0FB"
              d="M497.521 1367.78c-.889 0-1.768-.41-2.339-1.18-40.576-54.62-46.233-93.21-64.976-221.09-4.867-33.2-10.383-70.84-17.646-116.64-18.224-114.94-58.479-192.04-89.04-236.483-33.106-48.144-62.284-69.398-62.575-69.607a2.912 2.912 0 0 1 3.395-4.73c1.215.87 30.125 21.888 63.786 70.76 30.975 44.967 71.764 122.96 90.186 239.14 7.268 45.84 12.786 83.5 17.656 116.72 18.579 126.76 24.186 165.02 63.888 218.46.959 1.29.69 3.11-.601 4.07-.521.39-1.13.58-1.734.58"/>
        <path fill="#91B3FA"
              d="M532.954 1378.69h-10.712a9.82 9.82 0 0 1-7.41-3.4c-15.613-17.97-86.022-107.87-99.811-281.95-15.528-196.05 139.761-376.575 238.758-347.458 98.997 29.116 151.407 106.761 0 298.928-126.169 160.14-117.546 285.23-111.166 322.49 1.021 5.95-3.614 11.39-9.659 11.39"/>
        <path fill="#BDD0FB"
              d="M523.723 1371.89a2.915 2.915 0 0 1-2.785-2.06c-28.869-95.05-42.737-181.66-41.222-257.44 1.215-60.77 12.271-114.77 32.861-160.49 35.196-78.16 85.342-104.639 87.46-105.728a2.91 2.91 0 0 1 3.918 1.256 2.914 2.914 0 0 1-1.252 3.922c-.503.259-50.717 26.881-85.023 103.4-20.178 45.01-30.995 98.22-32.15 158.16-1.447 75.07 12.342 160.94 40.98 255.22a2.92 2.92 0 0 1-1.94 3.64 3.11 3.11 0 0 1-.847.12"/>
        <path fill="#91B3FA"
              d="M579.133 1370.08c-.273 8.36-11.019 11.73-16.091 5.09-15.204-19.93-30.109-62.25.475-145.44 48.528-132 254.286-194.11 300.873-116.47 44.36 73.94-280.898 123.23-285.257 256.82"/>
        <path fill="#BDD0FB"
              d="M567.396 1370.46a2.915 2.915 0 0 1-2.893-2.6c-11.19-104.78 41.931-161.35 88.463-190.35 50.198-31.28 103.782-37.96 104.318-38.02 1.602-.2 3.044.95 3.236 2.54.19 1.6-.949 3.05-2.545 3.24-.525.06-52.987 6.63-102.088 37.29-28.692 17.91-50.655 40.44-65.277 66.96-18.281 33.16-25.117 72.76-20.315 117.72.17 1.6-.988 3.03-2.587 3.2-.105.01-.209.02-.312.02"/>
        <g transform="translate(1470 1169)">
            <mask id="Y" fill="#fff">
                <use xlink:href="#W"/>
            </mask>
            <path fill="url(#X)"
                  d="M2.43.29c9.9.86 27.09 2.25 40.65 2.84 8.14.36 12.83-.44 15.53-1.52 0 .31-.01.6-.02.86-.07 1.43-1.22 2.57-2.67 2.65-25.6 1.43-45.97.49-53.22.05-1.5-.09-2.39-1.72-1.62-3 .38-.63.85-1.26 1.35-1.88"
                  mask="url(#Y)"/>
        </g>
        <g transform="translate(1472 1149)">
            <mask id="ab" fill="#fff">
                <use xlink:href="#Z"/>
            </mask>
            <path fill="url(#aa)"
                  d="M41.08 23.13c-13.56-.59-30.75-1.98-40.65-2.84 9.74-11.95 40.65-20 40.65-20h8.73c6 8.65 6.87 16.89 6.8 21.32-2.7 1.08-7.39 1.88-15.53 1.52"
                  mask="url(#ab)"/>
        </g>
        <g transform="translate(1506 1135)">
            <mask id="ae" fill="#fff">
                <use xlink:href="#ac"/>
            </mask>
            <path fill="url(#ad)"
                  d="m17.28.04-.82 16.16c-.09 1.76-1.4 3.23-3.15 3.48s-4.08.28-6.56-.55c-1.52-.5-2.66-1.79-2.94-3.35L.99.04h16.29"
                  mask="url(#ae)"/>
        </g>
        <g transform="translate(1621 1166)">
            <mask id="ah" fill="#fff">
                <use xlink:href="#af"/>
            </mask>
            <path fill="url(#ag)"
                  d="M15.66 6.01c4.3-.6 6.24-2.83 7.05-5.21l.02.06c.63 2.52-.83 5.12-3.76 6.36-3.54 1.5-7.41 1.76-10.42 1.64C5.33 8.72 2.37 7.39.74 5.25l-.02-.03c3.24 1.6 7.78 1.79 14.94.79"
                  mask="url(#ah)"/>
        </g>
        <g transform="translate(1611 1134)">
            <mask id="ak" fill="#fff">
                <use xlink:href="#ai"/>
            </mask>
            <path fill="url(#aj)"
                  d="M5.41.93h7.2C23.57.71 30.46 23.84 32.71 32.8c-.81 2.38-2.75 4.61-7.05 5.21-7.16 1-11.7.81-14.94-.79C4.79 29.43 1.86 18.01.45 11.34-1.16 3.77 5.41.93 5.41.93"
                  mask="url(#ak)"/>
        </g>
        <g transform="translate(1607 1119)">
            <mask id="an" fill="#fff">
                <use xlink:href="#al"/>
            </mask>
            <path fill="url(#am)"
                  d="m15.68.93 4 15.9c.49 1.95-.44 3.97-2.24 4.89-2.24 1.15-5.39 2.35-8.28 2.01-1.36-.17-2.49-1.13-2.94-2.41L.35 4.59 15.68.93"
                  mask="url(#an)"/>
        </g>
        <g transform="translate(1473 898)">
            <mask id="aq" fill="#fff">
                <use xlink:href="#ao"/>
            </mask>
            <path fill="url(#ap)"
                  d="M154.45 226.53c-4.97 4.41-21.15 4.99-21.15 4.99C75.03 91.66 51.19 71.79 51.19 71.79c8.41 52.79 1.36 169.66 1.36 169.66-9.62 4.24-22.02 0-22.02 0C29.75 155.03 16.47 79.66.78 20.24 40.16 19.35 61.11 5.87 67.94.46c32.84 52.93 86.51 226.07 86.51 226.07"
                  mask="url(#aq)"/>
        </g>
        <g transform="translate(1420 736)">
            <mask id="at" fill="#fff">
                <use xlink:href="#ar"/>
            </mask>
            <path fill="url(#as)"
                  d="M110.94 1.624c7.46 37.186 4.79 103.739 3.03 134.096-.49 8.53 5.46 20.36 10.28 28.43.75 1.27.29 2.89-1.02 3.56-8.06 4.14-35.37 16.98-67.02 18.58-2.11.11-3.99-1.33-4.54-3.37C28.2 95.264.93 39.252.93 39.252 31.03-8.82 110.94 1.624 110.94 1.624"
                  mask="url(#at)"/>
        </g>
        <g transform="translate(1496 943)">
            <mask id="aw" fill="#fff">
                <use xlink:href="#au"/>
            </mask>
            <path fill="url(#av)"
                  d="M24.21 23.48c.33 0 .67-.09.97-.27.88-.54 1.16-1.69.63-2.57-.32-.51-7.85-12.7-23.11-20.06C1.77.14.66.53.21 1.46c-.45.92-.06 2.04.87 2.49 14.22 6.86 21.47 18.52 21.54 18.63.35.58.96.9 1.59.9"
                  mask="url(#aw)"/>
        </g>
        <g transform="translate(1548 841)">
            <mask id="az" fill="#fff">
                <use xlink:href="#ax"/>
            </mask>
            <path fill="url(#ay)"
                  d="M29.7 3.344C27.31 20.666 20.23 39.56 6.08 59.63L.7 55.25s6.21-25.203 2.68-53.8c8.73-1.703 19.04.052 26.32 1.894"
                  mask="url(#az)"/>
        </g>
        <g transform="translate(1522 737)">
            <mask id="aC" fill="#fff">
                <use xlink:href="#aA"/>
            </mask>
            <path fill="url(#aB)"
                  d="M.62 46.506 8.94.624s55.64 42.525 46.76 106.72c-7.28-1.842-17.59-3.597-26.32-1.894C26.84 84.85 19.24 62.486.62 46.506"
                  mask="url(#aC)"/>
        </g>
        <g transform="translate(1400 775)">
            <mask id="aF" fill="#fff">
                <use xlink:href="#aD"/>
            </mask>
            <path fill="url(#aE)"
                  d="M20.93.252 42.4 46.5C38.93 74.422 23.93 86.494 7.76 91.125 6.75 78.399 3.53 68.119.55 61.007 21.21 39.672 20.93.252 20.93.252"
                  mask="url(#aF)"/>
        </g>
        <g transform="translate(1353 836)">
            <mask id="aI" fill="#fff">
                <use xlink:href="#aG"/>
            </mask>
            <path fill="url(#aH)"
                  d="M47.55.007c2.98 7.112 6.2 17.392 7.21 30.118C11.61 46.87.19 14.398.19 14.398l7.98-1.406C26.18 14.889 38.76 9.083 47.55.007"
                  mask="url(#aI)"/>
        </g>
        <g transform="translate(1440 707)">
            <mask id="aL" fill="#fff">
                <use xlink:href="#aJ"/>
            </mask>
            <path fill="url(#aK)"
                  d="m.71 11.154 10.37 38.112c1.17 4.281 5.8 6.58 9.92 4.933 4.44-1.777 10.08-4.203 14.94-6.825 5.18-2.798 6.8-9.466 3.52-14.358L17.91.878.71 11.154"
                  mask="url(#aL)"/>
        </g>
        <g transform="translate(1326 824)">
            <mask id="aO" fill="#fff">
                <use xlink:href="#aM"/>
            </mask>
            <path fill="url(#aN)"
                  d="M7.42.896 273.07 97.58c11.14 4.06 16.47 16.74 11.56 27.54l-.81 1.77c-4.34 9.55-15.63 13.74-25.15 9.33L.73 16.896l6.69-16"
                  mask="url(#aO)"/>
        </g>
        <g transform="translate(1264 661)">
            <mask id="aR" fill="#fff">
                <use xlink:href="#aP"/>
            </mask>
            <path fill="url(#aQ)"
                  d="M21.61 94.355C14.46 67.946 7.27 43.379.1 20.579L23.43.865c19.43 13.624 34.91 32.317 44.44 54.122L21.62 94.372"
                  mask="url(#aR)"/>
        </g>
        <path fill="#C7D7FC"
              d="M1143.08 876.727c-20.74-12.432-37.69-30.364-48.74-51.728l169.76-143.42c7.17 22.8 14.36 47.367 21.51 73.776l-142.53 121.372"/>
        <g transform="translate(1336 728)">
            <mask id="aU" fill="#fff">
                <use xlink:href="#aS"/>
            </mask>
            <path fill="url(#aT)" d="M4.8 18.26C3.4 12.309 1.99 6.37.58.526A124.64 124.64 0 0 1 4.8 18.26"
                  mask="url(#aU)"/>
        </g>
        <g transform="translate(1336 728)">
            <mask id="aX" fill="#fff">
                <use xlink:href="#aV"/>
            </mask>
            <path fill="url(#aW)"
                  d="M4.81 18.338C3.4 12.316 1.98 6.348.55.436l.03.09C1.99 6.37 3.4 12.309 4.8 18.26c.01.025.01.053.01.078"
                  mask="url(#aX)"/>
        </g>
        <g transform="translate(1251 644)">
            <mask id="ba" fill="#fff">
                <use xlink:href="#aY"/>
            </mask>
            <path fill="url(#aZ)"
                  d="M13.1 37.579C9 24.56 4.92 12.142.84.231a131.557 131.557 0 0 1 35.59 17.634L13.1 37.579"
                  mask="url(#ba)"/>
        </g>
        <path fill="#D9E4FC"
              d="M1094.34 824.999c-9.06-17.496-14.16-37.293-14.16-58.263 0-71.119 58.71-128.772 131.13-128.772 14.15 0 27.77 2.198 40.53 6.267 4.08 11.911 8.16 24.329 12.26 37.348l-169.76 143.42"/>
        <g transform="translate(1285 715)">
            <mask id="bd" fill="#fff">
                <use xlink:href="#bb"/>
            </mask>
            <path fill="url(#bc)"
                  d="M26.31 135.045C18.24 105.49 9.72 73.976.61 40.355L46.87.987a124.68 124.68 0 0 1 4.68 12.449c1.43 5.912 2.85 11.88 4.26 17.902a127.051 127.051 0 0 1 1.64 20.398c0 31.77-11.72 60.853-31.14 83.309"
                  mask="url(#bd)"/>
        </g>
        <path fill="#D9E4FC"
              d="M1211.31 895.51c-24.99 0-48.35-6.87-68.23-18.783l142.54-121.355c9.1 33.604 17.62 65.118 25.69 94.673-24.05 27.814-59.92 45.465-100 45.465"/>
        <g transform="translate(1065 623)">
            <mask id="bg" fill="#fff">
                <use xlink:href="#be"/>
            </mask>
            <path fill="url(#bf)"
                  d="M21.83 143.736c0-67.511 55.73-122.24 124.48-122.24 68.76 0 124.49 54.729 124.49 122.24 0 67.512-55.73 122.244-124.49 122.244-68.75 0-124.48-54.732-124.48-122.244Zm-21.44 0c0 79.137 65.33 143.284 145.92 143.284 80.59 0 145.92-64.147 145.92-143.284C292.23 64.601 226.9.448 146.31.448 65.72.448.39 64.601.39 143.736Z"
                  mask="url(#bg)"/>
        </g>
        <path fill="#7D97F4"
              d="M1345.14 744.41c-.46 0-.87-.33-.96-.799a130.04 130.04 0 0 0-7.75-26.544c-20.74-50.298-69.85-82.798-125.12-82.798-25.77 0-50.83 7.16-72.45 20.705a.974.974 0 0 1-1.34-.307.962.962 0 0 1 .31-1.339c21.93-13.738 47.34-21 73.48-21 56.06 0 105.88 32.972 126.91 84a131.86 131.86 0 0 1 7.87 26.94.962.962 0 0 1-.78 1.127l-.17.015Zm1 40.067-.12-.007a.965.965 0 0 1-.84-1.087c.42-3.344.72-6.749.89-10.123a.956.956 0 0 1 1.02-.922c.53.027.95.482.92 1.018-.17 3.422-.47 6.879-.91 10.274a.968.968 0 0 1-.96.847Z"/>
        <g transform="translate(1514 893)">
            <mask id="bj" fill="#fff">
                <use xlink:href="#bh"/>
            </mask>
            <path fill="url(#bi)"
                  d="M36.92 2.48 11.81.43.93 10.46s2.57 3.56 10.62 1.51c8.04-2.04 19.06-2.54 19.06-2.54s11.11 5 11.24-4.36l-4.93-2.59"
                  mask="url(#bj)"/>
        </g>
        <g transform="translate(1339 837)">
            <mask id="bm" fill="#fff">
                <use xlink:href="#bk"/>
            </mask>
            <path fill="url(#bl)"
                  d="M17.39 19.339c-2.17 1.697-9.61-1.846-14.16-4.295-2.22-1.193-3.3-3.788-2.54-6.19C1.79 5.398 3.62.938 5.87.376 9.6-.557 26.34 12.347 17.39 19.339"
                  mask="url(#bm)"/>
        </g>
        <path fill="#7D97F4"
              d="M1593.83 956.5c-.41 0-.78-.26-.92-.66a.96.96 0 0 1 .6-1.23c7.5-2.6 11.43-6.79 11.67-12.47.25-5.76-3.39-11.12-9.06-13.33l-31.9-12.44a.964.964 0 0 1-.55-1.25c.2-.5.76-.75 1.26-.55l31.9 12.43c6.44 2.52 10.58 8.63 10.29 15.22-.19 4.51-2.6 10.64-12.98 14.22-.1.04-.21.06-.31.06M1554.75 912.61c-.12 0-.24-.02-.36-.07l-4.13-1.61a.97.97 0 0 1-.55-1.26c.2-.5.76-.74 1.26-.55l4.13 1.61c.5.2.75.76.55 1.26a.98.98 0 0 1-.9.62"/>
        <g transform="translate(1428 680)">
            <mask id="bp" fill="#fff">
                <use xlink:href="#bn"/>
            </mask>
            <path fill="url(#bo)"
                  d="M10.47.741S1.89 20.453 1.32 30.799c-.58 10.346-2.81 17.059 9.15 19.142 11.97 2.084 22.04-3.876 27.5-14.181 0 0 8.56-15.88 6.64-22.384C42.69 6.873 10.47.741 10.47.741"
                  mask="url(#bp)"/>
        </g>
        <g transform="translate(1427 659)">
            <mask id="bs" fill="#fff">
                <use xlink:href="#bq"/>
            </mask>
            <path fill="url(#br)"
                  d="M34.89 49.351h-1.52s6.23-12.782.76-15.027C28.65 32.078 6.97 27.655 2.29 19.96-2.22 12.542 1.8 2.958 7.82.276c.38-.169.83.01 1.02.379l.5.943c.34.646 1.3.548 1.5-.154.19-.665 1.09-.811 1.46-.222 1.43 2.301 5.31 6.043 15.71 7.963 14.76 2.724 24.52 8.698 24.76 18.899.01.646.71 1.002 1.26.666 1.09-.664 2.83-.976 5.16.984 4.05 3.408 2.4 12.248-6.49 19.52-.42.346-.42 1.005.04 1.303 1.61 1.048 4.01 3.544-2.21 6.869-6.36 3.402-10.13 3.031-11.55 2.668a.815.815 0 0 1-.62-.841l.56-9.04a.81.81 0 0 0-.81-.862h-3.22"
                  mask="url(#bs)"/>
        </g>
        <g transform="translate(1461 700)">
            <mask id="bv" fill="#fff">
                <use xlink:href="#bt"/>
            </mask>
            <path fill="url(#bu)" d="M.51 10.241S3.79-2.35 9.43 1.18c5.65 3.531-2.93 14.108-7.47 14.58L.51 10.241"
                  mask="url(#bv)"/>
        </g>
        <g transform="translate(749 1168)">
            <mask id="by" fill="#fff">
                <use xlink:href="#bw"/>
            </mask>
            <path fill="url(#bx)"
                  d="M53.618.39 23.305 7.96l7.577 56.84S19.515 76.17 15.726 91.33c-3.789 15.15-7.283 78.79-7.283 78.79l-7.193 4.35-.875 3.63 20.927 28.14-3.47-22.4c-.551-3.55.403-10.76.103-10.91C29.302 142.62 53.618 57.22 53.618 57.22V.39"
                  mask="url(#by)"/>
        </g>
        <g transform="translate(779 1115)">
            <mask id="bB" fill="#fff">
                <use xlink:href="#bz"/>
            </mask>
            <path fill="url(#bA)"
                  d="M32.475 231.49c-.328 0-.65.02-.98 0 1.465-18.27 8.159-98.7 14.858-128.85C53.932 68.54 34.986.34 34.986.34L.882 34.44l18.947 64.42c-12.984 19.47 2.117 133.52 1.792 133.47l.021.26-4.943 6.79.601 3.69 30.2 17.82-11.883-19.3c-1.887-3.06-2.929-6.53-3.142-10.1"
                  mask="url(#bB)"/>
        </g>
        <g transform="translate(743 964)">
            <mask id="bE" fill="#fff">
                <use xlink:href="#bC"/>
            </mask>
            <path fill="url(#bD)" d="M30.118.09s-66.399 92.13 0 139.37l6.764-6.03s-32.965-38.86 0-86.44L30.118.09"
                  mask="url(#bE)"/>
        </g>
        <g transform="translate(793 1350)">
            <mask id="bH" fill="#fff">
                <use xlink:href="#bF"/>
            </mask>
            <path fill="url(#bG)"
                  d="M35.489 28.69h-9.638a5.802 5.802 0 0 1-4.605-2.26c-3.005-3.91-9.229-11.52-12.206-11.72-4.007-.27-3.494 13.98-3.494 13.98H3.3L.455 10.98A10.48 10.48 0 0 1 5.953.03s.916 6.78 5.882 9.77c4.967 3 20.21 13.73 20.21 13.73s1.868-.27 3.917.1c3.041.55 2.617 5.06-.473 5.06"
                  mask="url(#bH)"/>
        </g>
        <g transform="translate(741 1339)">
            <mask id="bK" fill="#fff">
                <use xlink:href="#bI"/>
            </mask>
            <path fill="url(#bJ)"
                  d="m30.051 38.59-8.883-3.74a5.797 5.797 0 0 1-3.37-3.87c-1.256-4.76-4.04-14.19-6.706-15.53-3.589-1.8-8.641 11.53-8.641 11.53l-2.07-.87L4.623 8.69A10.484 10.484 0 0 1 13.938.72s-1.782 6.6 1.633 11.29C18.987 16.7 28.877 32.5 28.877 32.5s1.824.48 3.57 1.61c2.59 1.69.452 5.68-2.396 4.48"
                  mask="url(#bK)"/>
        </g>
        <g transform="translate(757 1057)">
            <mask id="bN" fill="#fff">
                <use xlink:href="#bL"/>
            </mask>
            <path fill="url(#bM)"
                  d="M65.67.67s-1.114 6.83.518 25.61c1.633 18.78 9.438 62.86 7.849 105.04 0 0-22.187 5.17-60.735 2.72 0 0-16.268-65.85-12.305-90.89C4.96 18.12 26.458.16 26.458.16L65.67.67"
                  mask="url(#bN)"/>
        </g>
        <g transform="translate(783 915)">
            <mask id="bQ" fill="#fff">
                <use xlink:href="#bO"/>
            </mask>
            <path fill="url(#bP)" d="m23.276 17.2 2.712 31.89H.224L6.63.42 23.276 17.2" mask="url(#bQ)"/>
        </g>
        <g transform="translate(767 958)">
            <mask id="bT" fill="#fff">
                <use xlink:href="#bR"/>
            </mask>
            <path fill="url(#bS)"
                  d="M8.591 1.68c8.892-.49 28.772-1.4 42.856-.63A16.35 16.35 0 0 1 66.59 14.04l3.435 16.46a39.673 39.673 0 0 1-.558 18.53L55.67 99.67s-12.272 7.38-39.212-.51c0 0-23.659-56.42-13.975-92.51a6.702 6.702 0 0 1 6.108-4.97"
                  mask="url(#bT)"/>
        </g>
        <g transform="translate(812 962)">
            <mask id="bW" fill="#fff">
                <use xlink:href="#bU"/>
            </mask>
            <path fill="url(#bV)"
                  d="M20.917 7.09c3.795 10 7.223 20.48 10.905 30.3 1.873 4.91 3.772 9.73 5.803 14.15 1.028 2.2 2.157 4.23 3.193 6.06 1.037 1.82 2.205 3.33 2.814 4.03.119.1-.28.18-.414.19-.081.01 2.565.43 3.377.57l3.172-.02c4.546-.24 9.693-1.04 14.863-2.04 10.41-1.94 21.24-4.67 32.36-6.73l.09-.02a3.926 3.926 0 0 1 4.57 3.14c.26 1.4-.27 2.77-1.27 3.65-4.48 3.95-9.23 7.19-14.16 10.35-2.49 1.52-5.01 3-7.58 4.43-2.61 1.34-5.24 2.68-7.96 3.92-5.49 2.4-11.16 4.6-17.693 6.01-1.716.29-3.411.59-5.176.83-1.981.07-3.78.24-5.943.12-1.15-.12-2.304-.26-3.455-.42-.614-.11-1.065-.12-1.809-.33-.789-.24-1.576-.5-2.353-.79-1.621-.58-2.669-1.29-3.987-2.02-1.094-.72-2.092-1.48-3.059-2.25-3.571-3.04-5.788-6.06-7.742-8.96-1.948-2.89-3.493-5.8-4.88-8.64-2.781-5.68-4.953-11.3-6.715-16.97C4.297 34.29 1.877 23.14.856 11.28.367 5.61 4.573.61 10.251.12c4.699-.41 8.934 2.4 10.53 6.6l.136.37"
                  mask="url(#bW)"/>
        </g>
        <g transform="translate(905 1003)">
            <mask id="bZ" fill="#fff">
                <use xlink:href="#bX"/>
            </mask>
            <path fill="url(#bY)"
                  d="m.49 17.69 4.6-10.91L29.29.75s1.93 4.19-8.23 6.03c0 0 3.63 4.01 1.69 8.73C20.82 20.23.25 24.95.49 17.69"
                  mask="url(#bZ)"/>
        </g>
        <g transform="translate(788 890)">
            <mask id="cc" fill="#fff">
                <use xlink:href="#ca"/>
            </mask>
            <path fill="url(#cb)"
                  d="M29.185 5.38c.919.54 8.168 26.1 2.094 36.82C25.205 52.92 6.657 40.91 1.63 25.42-3.397 9.92 4.679-9.08 29.185 5.38"
                  mask="url(#cc)"/>
        </g>
        <g transform="translate(662 875)">
            <mask id="cf" fill="#fff">
                <use xlink:href="#cd"/>
            </mask>
            <path fill="url(#ce)"
                  d="M107.111 40.42c-4.16 20.38-17.945 14.8-27.709 23.87-15.824 14.7-38.461-.46-60.468 13.47C3.046 87.82-4.608 113.54 3.016 134.32c10.56 28.76 46.646 40.59 65.347 31.83 17.874-8.37 15.328-33.45 39.376-43.15 10.209-4.11 15.25-1.44 21.364-7.54 10.703-10.67 7.815-31.39 6.702-39.37-2.414-17.32-8.221-20.46-5.445-28.07 5.397-14.8 30.575-11.75 32.674-22.2 1.91-9.52-16.339-27.556-33.513-24.714-26.57 4.394-20.557 30.224-22.41 39.314"
                  mask="url(#cf)"/>
        </g>
        <path fill="#91B3FA"
              d="M672.951 1004.44a.694.694 0 0 1-.677-.53c-3.402-14.12-1.858-25.7 4.59-34.43 10.7-14.47 31.497-15.9 31.706-15.91.327-.06.712.26.737.65a.705.705 0 0 1-.653.74c-.202.01-20.369 1.41-30.678 15.36-6.187 8.37-7.65 19.56-4.349 33.26.09.38-.139.75-.513.84l-.163.02M741.064 1017.37l-.088-.01a.349.349 0 0 1-.249-.42c3.315-12.72 9.129-21.55 17.281-26.25 5.93-3.42 11.484-3.74 16.383-4.02 4.725-.27 8.804-.51 12.088-3.43 6.788-6.03 6.395-20.55-1.168-43.13a.344.344 0 0 1 .22-.44c.183-.06.379.03.44.22 7.66 22.87 7.986 37.63.97 43.87-3.464 3.08-7.656 3.32-12.51 3.6-4.822.28-10.287.6-16.076 3.93-7.984 4.61-13.689 13.29-16.954 25.82a.344.344 0 0 1-.337.26M778.954 910.36l-.112-.02a.347.347 0 0 1-.218-.44c2.634-7.84 10.224-6.67 18.265-5.44 5.09.78 10.351 1.59 14.815.27 3.33-.99 5.308-2.52 5.879-4.55.978-3.46-2.443-7.31-2.478-7.35a.347.347 0 0 1 .026-.49.348.348 0 0 1 .491.02c.152.17 3.711 4.18 2.632 8.01-.641 2.27-2.778 3.96-6.352 5.02-4.615 1.37-9.953.55-15.119-.24-8.072-1.24-15.051-2.32-17.499 4.97a.345.345 0 0 1-.33.24M445.739 179.341c-.035 5.442-4.476 9.826-9.919 9.789-5.442-.036-9.824-4.476-9.788-9.919.035-5.442 4.476-9.824 9.918-9.789 5.443.036 9.825 4.477 9.789 9.919"/>
        <path fill="#91B3FA"
              d="M445.412 179.339a9.528 9.528 0 0 1-19.053-.125 9.528 9.528 0 0 1 19.053.125M445.739 239.078c-.035 5.443-4.476 9.825-9.919 9.789-5.442-.035-9.824-4.476-9.788-9.919.035-5.442 4.476-9.824 9.918-9.788 5.443.035 9.825 4.476 9.789 9.918"/>
        <path fill="#91B3FA"
              d="M445.412 239.076a9.528 9.528 0 0 1-19.053-.125c.035-5.262 4.328-9.499 9.589-9.464 5.261.034 9.498 4.328 9.464 9.589M445.739 298.815c-.035 5.442-4.476 9.825-9.919 9.789-5.442-.036-9.824-4.477-9.788-9.919.035-5.442 4.476-9.825 9.918-9.789 5.443.036 9.825 4.477 9.789 9.919"/>
        <path fill="#91B3FA"
              d="M445.412 298.813c-.035 5.261-4.328 9.498-9.589 9.463-5.261-.034-9.498-4.327-9.464-9.588a9.528 9.528 0 0 1 19.053.125M460.898 178.829l.046 1.678c.123 4.543 2.961 8.148 6.429 8.166l263.926.4c3.581.018 6.49-3.786 6.484-8.481-.007-4.603-2.817-8.356-6.328-8.449l-263.972-2.079c-3.707-.098-6.716 3.907-6.585 8.765M460.898 238.274l.046 1.679c.123 4.543 2.961 8.148 6.429 8.165l263.926.401c3.581.018 6.49-3.787 6.484-8.481-.007-4.603-2.817-8.357-6.328-8.45l-263.972-2.078c-3.707-.098-6.716 3.907-6.585 8.764M460.898 297.72l.046 1.678c.123 4.543 2.961 8.148 6.429 8.166l263.926.4c3.581.018 6.49-3.786 6.484-8.48-.007-4.604-2.817-8.358-6.328-8.45l-263.972-2.078c-3.707-.099-6.716 3.906-6.585 8.764"/>
        <path fill="#FFF"
              d="m1904.09 671.891-1.43-5.638v-.012c-.14-.542.19-1.092.73-1.229s1.09.19 1.23.731v.013l1.36 5.682a.968.968 0 0 1-1.88.465l-.01-.012M1899.05 653.179l-1.67-5.567v-.013c-.18-.607.16-1.246.77-1.428.6-.181 1.24.163 1.43.77v.016l1.59 5.617a1.1 1.1 0 0 1-.76 1.365 1.103 1.103 0 0 1-1.36-.746v-.014M1893.23 634.71l-1.89-5.489-.01-.015a1.286 1.286 0 0 1 2.43-.835v.016l1.83 5.546c.21.651-.14 1.353-.79 1.567a1.238 1.238 0 0 1-1.56-.774l-.01-.016M1886.67 616.508l-2.11-5.409v-.016c-.29-.725.07-1.541.8-1.824.72-.281 1.54.077 1.82.803l.01.014 2.05 5.463a1.376 1.376 0 0 1-2.57.985v-.016M1879.4 598.58l-2.32-5.319v-.017c-.34-.764.01-1.654.78-1.987.76-.333 1.65.017 1.98.781l.01.014 2.28 5.377a1.48 1.48 0 0 1-2.72 1.168l-.01-.017M1871.43 580.96l-2.53-5.222-.01-.017a1.61 1.61 0 0 1 .75-2.151 1.61 1.61 0 0 1 2.15.747l.01.016 2.49 5.282c.37.79.03 1.731-.76 2.103-.78.369-1.72.038-2.09-.74l-.01-.018M1862.76 563.671l-2.73-5.118-.01-.018c-.44-.834-.13-1.87.71-2.315.83-.446 1.87-.13 2.31.704l.01.015 2.7 5.183c.43.823.11 1.838-.72 2.267-.82.425-1.82.112-2.26-.699l-.01-.019M1853.43 546.736l-2.93-5.008-.01-.019a1.803 1.803 0 0 1 .65-2.479 1.816 1.816 0 0 1 2.48.649l.01.017 2.89 5.075a1.78 1.78 0 0 1-3.08 1.784l-.01-.019M1843.44 530.176l-3.12-4.891-.02-.018c-.56-.892-.3-2.075.59-2.643a1.912 1.912 0 0 1 2.64.584l.01.017 3.09 4.961c.55.882.29 2.043-.6 2.594a1.88 1.88 0 0 1-2.58-.584l-.01-.02M1832.82 514.015l-3.31-4.767-.01-.019c-.64-.915-.41-2.17.5-2.804a2.023 2.023 0 0 1 2.81.507l.01.017 3.28 4.84c.62.907.38 2.141-.53 2.756a1.98 1.98 0 0 1-2.74-.51l-.01-.02M1821.58 498.274l-3.49-4.637-.01-.02c-.7-.933-.52-2.26.42-2.962a2.113 2.113 0 0 1 2.96.419l.01.018 3.47 4.712c.68.927.48 2.233-.44 2.915-.92.678-2.22.487-2.91-.425l-.01-.02M1809.75 482.976l-3.66-4.501-.02-.019a2.218 2.218 0 0 1 3.44-2.799l.01.018 3.65 4.578c.75.944.6 2.32-.35 3.072-.93.747-2.3.599-3.05-.329l-.02-.02M1797.34 468.14l-3.82-4.364-.02-.02a2.31 2.31 0 0 1 .22-3.252 2.303 2.303 0 0 1 3.25.215l.01.011 3.83 4.428c.83.955.72 2.399-.23 3.225-.95.822-2.39.721-3.22-.223l-.02-.02M1784.41 453.766l-3.98-4.214-.02-.019a2.364 2.364 0 1 1 3.43-3.252l.02.011 3.99 4.278c.89.948.84 2.433-.11 3.319-.95.881-2.42.834-3.31-.102l-.02-.021M1770.94 439.901l-4.14-4.057-.02-.019a2.425 2.425 0 1 1 3.39-3.47l.01.011 4.16 4.122c.95.937.95 2.463.02 3.408-.94.94-2.45.951-3.4.025l-.02-.02M1756.95 426.567l-4.3-3.893-.02-.019a2.492 2.492 0 0 1 3.35-3.69l.01.011 4.31 3.96a2.471 2.471 0 0 1-3.33 3.651l-.02-.02M1742.46 413.788l-4.44-3.723-.02-.019a2.547 2.547 0 0 1-.32-3.594 2.546 2.546 0 0 1 3.59-.317l.02.011 4.46 3.789a2.542 2.542 0 0 1 .29 3.569 2.536 2.536 0 0 1-3.56.303l-.02-.019M1727.49 401.584l-4.58-3.545-.03-.018a2.607 2.607 0 0 1-.46-3.666 2.606 2.606 0 0 1 3.66-.468l.01.01 4.61 3.612a2.587 2.587 0 0 1 .44 3.643 2.596 2.596 0 0 1-3.63.452l-.02-.02M1712.06 389.98l-4.72-3.36-.02-.019a2.666 2.666 0 0 1-.63-3.73 2.673 2.673 0 0 1 3.73-.626l.01.009 4.75 3.428c1.19.859 1.46 2.52.6 3.709a2.663 2.663 0 0 1-3.7.608l-.02-.019M1696.19 378.999l-4.85-3.169-.03-.018a2.748 2.748 0 0 1-.79-3.789 2.741 2.741 0 0 1 3.79-.792l.02.01 4.87 3.237c1.26.83 1.6 2.516.77 3.767a2.728 2.728 0 0 1-3.76.772l-.02-.018M1679.9 368.664l-4.97-2.972-.03-.017a2.788 2.788 0 0 1-.96-3.838 2.79 2.79 0 0 1 3.83-.964l.02.009 5 3.037a2.781 2.781 0 0 1 .94 3.819 2.788 2.788 0 0 1-3.81.944l-.02-.018M1663.21 358.997l-5.09-2.767-.03-.016a2.861 2.861 0 0 1 2.74-5.024l.01.009 5.13 2.832a2.843 2.843 0 0 1 1.11 3.861 2.835 2.835 0 0 1-3.84 1.122l-.03-.017M1646.14 350.021l-5.2-2.554-.03-.016a2.92 2.92 0 0 1-1.33-3.911 2.92 2.92 0 0 1 3.91-1.332l.02.008 5.24 2.62a2.913 2.913 0 0 1 1.3 3.895 2.908 2.908 0 0 1-3.88 1.307l-.03-.017M1628.71 341.761l-5.29-2.336-.04-.015a2.975 2.975 0 0 1-1.52-3.934 2.977 2.977 0 0 1 3.93-1.525l.02.007 5.34 2.4a2.952 2.952 0 0 1 1.49 3.919 2.961 2.961 0 0 1-3.9 1.499l-.03-.015M1610.95 334.237l-5.39-2.112-.03-.013a3.048 3.048 0 0 1-1.73-3.947 3.051 3.051 0 0 1 3.95-1.724l.02.007 5.44 2.175a3.02 3.02 0 0 1 1.69 3.933 3.017 3.017 0 0 1-3.91 1.695l-.04-.014M1592.89 327.461l-5.46-1.885-.04-.013a3.106 3.106 0 0 1-1.92-3.95 3.103 3.103 0 0 1 3.95-1.924l.01.006 5.53 1.947a3.085 3.085 0 0 1 1.89 3.938 3.086 3.086 0 0 1-3.92 1.895l-.04-.014M1574.58 321.439l-5.54-1.66-.03-.011a3.17 3.17 0 0 1-2.13-3.945 3.17 3.17 0 0 1 3.95-2.125l.01.006 5.61 1.717a3.148 3.148 0 0 1 2.08 3.935 3.14 3.14 0 0 1-3.91 2.095l-.04-.012M1556.05 316.152l-5.6-1.447-.04-.009a3.192 3.192 0 0 1-2.29-3.9 3.19 3.19 0 0 1 3.89-2.298l.01.002 5.67 1.478a3.198 3.198 0 0 1 2.29 3.897 3.199 3.199 0 0 1-3.9 2.285l-.03-.008M1537.32 311.591l-5.65-1.222-.04-.008a3.22 3.22 0 0 1-2.46-3.83 3.218 3.218 0 0 1 3.83-2.467v.001l5.73 1.251a3.215 3.215 0 0 1-1.38 6.282l-.03-.007M1518.43 307.778l-5.7-.998-.03-.007a3.24 3.24 0 0 1-2.64-3.752 3.246 3.246 0 0 1 3.76-2.634v.001l5.77 1.024a3.236 3.236 0 0 1-1.13 6.372l-.03-.006M1499.4 304.711l-5.73-.775-.04-.005a3.263 3.263 0 1 1 .87-6.465h.01l5.81.798a3.258 3.258 0 0 1 2.78 3.669 3.26 3.26 0 0 1-3.67 2.782l-.03-.004M1480.26 302.388l-5.76-.552-.04-.003a3.292 3.292 0 0 1-2.96-3.581 3.292 3.292 0 0 1 3.59-2.954l5.84.572a3.28 3.28 0 0 1 2.94 3.58 3.28 3.28 0 0 1-3.58 2.942l-.03-.004M1461.04 300.809l-5.78-.33-.04-.001a3.307 3.307 0 0 1-3.11-3.486 3.305 3.305 0 0 1 3.49-3.11l5.86.347a3.294 3.294 0 0 1 3.09 3.485 3.292 3.292 0 0 1-3.48 3.097l-.03-.002M1441.76 299.97l-5.78-.107-.04-.001a3.314 3.314 0 0 1-3.26-3.384 3.32 3.32 0 0 1 3.38-3.261h.01l5.86.121a3.318 3.318 0 0 1-.13 6.633l-.04-.001M1422.47 299.872l-5.78.114-.04.001a3.338 3.338 0 0 1-3.41-3.277 3.34 3.34 0 0 1 3.27-3.409h.01l5.87-.104a3.333 3.333 0 0 1 3.39 3.278 3.33 3.33 0 0 1-3.28 3.396l-.03.001M1403.19 300.512l-5.78.335-.04.003a3.36 3.36 0 0 1-3.55-3.164 3.364 3.364 0 0 1 3.16-3.554h.01l5.85-.328a3.366 3.366 0 0 1 3.55 3.165 3.366 3.366 0 0 1-3.17 3.541l-.03.002M1383.94 301.888l-5.76.556-.04.004a3.38 3.38 0 0 1-3.69-3.043 3.383 3.383 0 0 1 3.04-3.695l.01-.001 5.84-.551a3.378 3.378 0 0 1 3.68 3.046 3.377 3.377 0 0 1-3.05 3.681l-.03.003M1364.76 304l-5.73.776-.04.006a3.405 3.405 0 1 1-.91-6.749v-.001l5.82-.775a3.403 3.403 0 0 1 3.82 2.921 3.405 3.405 0 0 1-2.92 3.818l-.04.004M1345.69 306.846l-5.71.996-.03.007a3.43 3.43 0 0 1-3.97-2.785 3.43 3.43 0 0 1 2.79-3.964v-.001l5.78-.998a3.418 3.418 0 0 1 3.95 2.788 3.408 3.408 0 0 1-2.78 3.951l-.03.006M1326.73 310.423l-5.65 1.216-.04.008c-1.86.4-3.7-.784-4.09-2.645a3.436 3.436 0 0 1 2.64-4.093l.01-.001 5.73-1.221a3.437 3.437 0 0 1 4.08 2.649 3.436 3.436 0 0 1-2.64 4.08l-.04.007M1307.94 314.731l-5.6 1.435-.04.01a3.47 3.47 0 0 1-4.22-2.498 3.469 3.469 0 0 1 2.5-4.219l.01-.001 5.68-1.443c1.85-.47 3.73.651 4.21 2.503a3.459 3.459 0 0 1-2.51 4.205l-.03.008M1289.33 319.768l-5.54 1.652-.04.013c-1.84.55-3.78-.5-4.33-2.345a3.489 3.489 0 0 1 2.34-4.338l.01-.002 5.62-1.665a3.485 3.485 0 0 1 4.33 2.35 3.488 3.488 0 0 1-2.35 4.325l-.04.01M1270.95 325.532l-5.47 1.87-.04.014a3.503 3.503 0 0 1-4.45-2.184 3.504 3.504 0 0 1 2.18-4.453l.01-.003 5.55-1.885a3.5 3.5 0 0 1 4.44 2.189 3.505 3.505 0 0 1-2.19 4.441l-.03.011M1252.81 332.02l-5.39 2.087-.04.016a3.522 3.522 0 0 1-4.56-2.016 3.525 3.525 0 0 1 2.01-4.563l.01-.003 5.47-2.106a3.518 3.518 0 0 1 4.55 2.021c.7 1.815-.2 3.853-2.02 4.551l-.03.013M1234.95 339.23l-5.3 2.304-.04.017c-1.79.782-3.88-.042-4.67-1.839a3.556 3.556 0 0 1 1.84-4.669l.01-.002 5.38-2.327c1.8-.776 3.88.05 4.66 1.846a3.536 3.536 0 0 1-1.85 4.656l-.03.014M1217.4 347.161l-5.2 2.519-.04.019c-1.77.859-3.9.118-4.76-1.656a3.569 3.569 0 0 1 1.65-4.767l.01-.003 5.28-2.546a3.57 3.57 0 0 1 4.76 1.662 3.567 3.567 0 0 1-1.66 4.756l-.04.016M1200.2 355.808l-5.09 2.733-.04.022a3.587 3.587 0 0 1-4.86-1.465 3.581 3.581 0 0 1 1.46-4.859l.01-.004 5.17-2.765a3.583 3.583 0 0 1 3.38 6.321l-.03.017M1183.36 365.155l-4.98 2.931-.04.021a3.596 3.596 0 0 1-4.92-1.274c-1-1.71-.43-3.91 1.28-4.916l5.05-2.977a3.593 3.593 0 0 1 4.92 1.272 3.592 3.592 0 0 1-1.27 4.921l-.01.001-.03.021M1166.87 375.145l-4.87 3.116-.03.021a3.584 3.584 0 0 1-4.95-1.089 3.575 3.575 0 0 1 1.09-4.947l4.93-3.162a3.593 3.593 0 0 1 4.96 1.085 3.593 3.593 0 0 1-1.09 4.954v.001l-.04.021M1150.76 385.734l-4.76 3.287-.03.021a3.57 3.57 0 0 1-4.97-.911 3.567 3.567 0 0 1 .9-4.971l4.82-3.332a3.577 3.577 0 1 1 4.07 5.884v.002l-.03.02M1135.01 396.877l-4.65 3.444-.03.02a3.557 3.557 0 0 1-4.98-.745 3.558 3.558 0 0 1 .74-4.986l4.7-3.488a3.578 3.578 0 0 1 5 .741 3.568 3.568 0 0 1-.75 4.992v.002l-.03.02M1119.63 408.526l-4.55 3.586-.02.02a3.563 3.563 0 0 1-5-.59 3.557 3.557 0 0 1 .59-4.996l4.59-3.629a3.559 3.559 0 0 1 5 .587 3.561 3.561 0 0 1-.58 5.001l-.01.002-.02.019M1104.59 420.634l-4.44 3.715-.03.018a3.548 3.548 0 1 1-4.55-5.446l4.49-3.755a3.547 3.547 0 0 1 5 .444 3.554 3.554 0 0 1-.44 5.003l-.01.002-.02.019M1089.88 433.153l-4.35 3.83-.02.017a3.544 3.544 0 0 1-5-.319 3.538 3.538 0 0 1 .32-4.995l4.39-3.868a3.542 3.542 0 0 1 5 .315 3.545 3.545 0 0 1-.32 5.001v.002l-.02.017M1075.48 446.041l-4.26 3.931-.02.015a3.53 3.53 0 0 1-4.99-.202 3.528 3.528 0 0 1 .2-4.99l4.29-3.966a3.54 3.54 0 0 1 5 .198 3.543 3.543 0 0 1-.2 4.995v.003l-.02.016M1061.36 459.252l-4.18 4.02-.02.014a3.52 3.52 0 0 1-4.98-.099 3.515 3.515 0 0 1 .1-4.981l4.21-4.053a3.519 3.519 0 0 1 4.98.096 3.52 3.52 0 0 1-.09 4.986v.003l-.02.014M1047.5 472.746l-4.11 4.097-.01.013a3.525 3.525 0 0 1-4.98-.009 3.519 3.519 0 0 1 .01-4.97l4.13-4.127a3.524 3.524 0 0 1 4.98.005 3.526 3.526 0 0 1 0 4.976l-.01.002-.01.013M1033.87 486.484l-4.05 4.163-.01.011a3.509 3.509 0 0 1-4.96.069 3.505 3.505 0 0 1-.07-4.958l4.06-4.189a3.518 3.518 0 0 1 4.97-.073 3.512 3.512 0 0 1 .07 4.964v.002l-.01.011M1020.43 500.428l-3.99 4.213-.01.009a3.491 3.491 0 0 1-4.94.134 3.489 3.489 0 0 1-.14-4.944l4.01-4.235c1.32-1.405 3.54-1.467 4.95-.138a3.505 3.505 0 0 1 .13 4.95v.002l-.01.009M1007.17 514.536l-3.95 4.265-.01.008a3.488 3.488 0 0 1-4.93.187 3.492 3.492 0 0 1-.19-4.931l3.97-4.284a3.486 3.486 0 0 1 4.93-.192 3.49 3.49 0 0 1 .19 4.937v.002l-.01.008M994.04 528.792l-3.92 4.299a3.472 3.472 0 0 1-4.91.239 3.484 3.484 0 0 1-.24-4.923l3.92-4.313a3.492 3.492 0 0 1 4.93-.232 3.492 3.492 0 0 1 .23 4.922l-.01.008M981.02 543.153l-3.9 4.324a3.475 3.475 0 0 1-5.17-4.642l3.9-4.335a3.476 3.476 0 1 1 5.17 4.646v.007M968.06 557.589l-3.88 4.341a3.462 3.462 0 0 1-4.89.28 3.468 3.468 0 0 1-.28-4.893l3.88-4.349a3.461 3.461 0 0 1 4.89-.28 3.462 3.462 0 0 1 .28 4.896v.005M955.14 572.07l-3.87 4.349a3.455 3.455 0 1 1-5.16-4.594l3.87-4.354a3.454 3.454 0 0 1 4.88-.287 3.457 3.457 0 0 1 .29 4.884l-.01.002M942.24 586.568l-3.88 4.349a3.45 3.45 0 0 1-4.87.279 3.447 3.447 0 0 1-.28-4.868l3.87-4.349a3.448 3.448 0 0 1 4.87-.286 3.452 3.452 0 0 1 .29 4.872v.003M929.3 601.053l-3.89 4.339a3.441 3.441 0 0 1-4.86.264 3.444 3.444 0 0 1-.26-4.859l3.88-4.336a3.441 3.441 0 1 1 5.13 4.587v.005M916.31 615.496l-3.92 4.32a3.435 3.435 0 0 1-4.85.238 3.432 3.432 0 0 1-.23-4.85l3.9-4.313a3.433 3.433 0 1 1 5.1 4.598v.007M903.22 629.866l-3.95 4.292a3.426 3.426 0 0 1-4.84.202 3.429 3.429 0 0 1-.19-4.841l3.93-4.283a3.426 3.426 0 0 1 5.06 4.621l-.01.009M890.01 644.133l-3.99 4.255a3.417 3.417 0 0 1-4.83.154 3.42 3.42 0 0 1-.15-4.827v-.006l3.98-4.242v-.009a3.418 3.418 0 0 1 4.99 4.673v.002M876.64 658.265l-4.04 4.208a3.406 3.406 0 0 1-4.913-4.721l.008-.008 4.025-4.192.01-.01a3.41 3.41 0 0 1 4.82-.1 3.421 3.421 0 0 1 .1 4.821l-.01.002M863.091 672.229l-4.107 4.15a3.399 3.399 0 1 1-4.831-4.78l.009-.009 4.081-4.132.011-.011a3.4 3.4 0 1 1 4.839 4.779l-.002.003M849.32 685.988l-4.178 4.083a3.39 3.39 0 0 1-4.738-4.849l.011-.011 4.148-4.061.013-.012a3.393 3.393 0 1 1 4.746 4.848l-.002.002M835.302 699.507l-4.258 4.003a3.38 3.38 0 1 1-4.632-4.927l.013-.012 4.224-3.978.015-.014a3.382 3.382 0 0 1 4.783.143 3.382 3.382 0 0 1-.143 4.783l-.002.002M821.008 712.747l-4.349 3.913a3.373 3.373 0 0 1-4.513-5.014l.016-.013 4.311-3.887.017-.016a3.375 3.375 0 0 1 4.52 5.015l-.002.002M806.408 725.669l-4.44 3.806a3.365 3.365 0 0 1-4.379-5.11l.017-.014 4.398-3.777.019-.016a3.367 3.367 0 0 1 4.387 5.109l-.002.002M791.494 738.218l-4.538 3.685a3.357 3.357 0 1 1-4.232-5.211l.02-.015 4.492-3.655.021-.017a3.36 3.36 0 0 1 4.24 5.211l-.003.002M776.233 750.359l-4.645 3.554a3.347 3.347 0 0 1-4.068-5.318l.022-.017 4.593-3.52.024-.018a3.35 3.35 0 1 1 4.076 5.318l-.002.001M760.619 762.04l-4.758 3.409a3.339 3.339 0 1 1-3.889-5.428l.024-.018 4.701-3.375.027-.02a3.341 3.341 0 0 1 4.663.767 3.34 3.34 0 0 1-.766 4.663l-.002.002M744.621 773.226l-4.884 3.252a3.331 3.331 0 0 1-3.693-5.544l.028-.02 4.82-3.215.03-.02a3.334 3.334 0 0 1 3.701 5.545l-.002.002M728.218 783.847l-4.994 3.066a3.323 3.323 0 0 1-3.476-5.663l.028-.018 4.929-3.032.031-.019a3.326 3.326 0 0 1 3.485 5.664l-.003.002M711.441 793.851l-5.105 2.878a3.313 3.313 0 1 1-3.255-5.773l.029-.017 5.037-2.846.033-.019a3.317 3.317 0 1 1 3.263 5.775l-.002.002M694.303 803.224l-5.209 2.686a3.305 3.305 0 0 1-3.031-5.876l.031-.015 5.14-2.657.034-.017a3.307 3.307 0 1 1 3.037 5.878l-.002.001M676.824 811.948l-5.307 2.488a3.297 3.297 0 1 1-2.799-5.971l.032-.015 5.236-2.46.035-.016a3.299 3.299 0 1 1 2.806 5.973l-.003.001M659.024 820.002l-5.399 2.282a3.288 3.288 0 0 1-2.56-6.058l.032-.014 5.327-2.257.035-.015a3.29 3.29 0 1 1 2.568 6.061l-.003.001M640.925 827.363l-5.485 2.069a3.28 3.28 0 1 1-2.315-6.139l.033-.013 5.411-2.046.036-.013a3.282 3.282 0 1 1 2.323 6.14l-.003.002M622.547 834.005l-5.564 1.848a3.272 3.272 0 0 1-2.063-6.21l.036-.012 5.486-1.828.038-.013a3.275 3.275 0 0 1 2.07 6.214l-.003.001M603.914 839.9l-5.636 1.62a3.264 3.264 0 1 1-1.802-6.274l.036-.011 5.557-1.601.039-.011a3.266 3.266 0 1 1 1.809 6.276l-.003.001M585.05 845.021l-5.7 1.381a3.254 3.254 0 1 1-1.533-6.327l.038-.009 5.618-1.366.04-.01a3.259 3.259 0 0 1 1.54 6.331h-.003M565.982 849.338l-5.755 1.134a3.247 3.247 0 0 1-1.255-6.371l.039-.008 5.671-1.122.042-.008a3.248 3.248 0 1 1 1.261 6.375h-.003M546.74 852.818l-5.807.877a3.239 3.239 0 0 1-.967-6.404l.041-.006 5.719-.869.044-.007a3.241 3.241 0 0 1 .973 6.408l-.003.001M527.348 855.431l-5.836.609a3.23 3.23 0 1 1-.67-6.426l.042-.004 5.745-.604.045-.005a3.233 3.233 0 0 1 .677 6.43h-.003M507.862 857.141l-5.853.333a3.222 3.222 0 0 1-.365-6.434l.043-.002 5.76-.332.047-.003a3.225 3.225 0 0 1 .371 6.438h-.003M488.319 857.919l-5.871.048a3.213 3.213 0 0 1-.052-6.427h.045l5.775-.052h.048a3.215 3.215 0 1 1 .057 6.431h-.002M468.75 857.736l-5.867-.246a3.204 3.204 0 1 1 .268-6.403l.046.002 5.77.237.049.002a3.207 3.207 0 1 1-.264 6.408h-.002M449.211 856.566l-5.838-.545a3.196 3.196 0 0 1 .595-6.365l.047.004 5.74.532.049.004a3.2 3.2 0 0 1-.59 6.371l-.003-.001M429.762 854.388l-5.809-.853a3.188 3.188 0 1 1 .926-6.308l.048.007 5.709.833.051.007a3.191 3.191 0 0 1-.922 6.315l-.003-.001M410.446 851.162l-5.758-1.186a3.166 3.166 0 0 1 1.278-6.202l.046.01 5.652 1.15.055.01a3.175 3.175 0 0 1-1.265 6.22l-.008-.002M391.341 846.819l-5.679-1.516a3.141 3.141 0 0 1 1.621-6.068l.044.012 5.578 1.474.052.013a3.149 3.149 0 0 1-1.608 6.087l-.008-.002M372.521 841.39l-5.583-1.836a3.115 3.115 0 1 1 1.947-5.918l.042.013 5.487 1.789.05.016a3.122 3.122 0 1 1-1.936 5.939l-.007-.003M354.041 834.906l-5.47-2.146a3.09 3.09 0 1 1 2.257-5.752l.041.015 5.378 2.094.048.019a3.097 3.097 0 1 1-2.247 5.773l-.007-.003M335.955 827.398l-5.341-2.447a3.065 3.065 0 0 1 2.553-5.571l.04.017 5.253 2.392.047.021a3.073 3.073 0 0 1-2.545 5.591l-.007-.003M318.317 818.895l-5.195-2.742a3.038 3.038 0 1 1 2.836-5.375l.039.02 5.112 2.681.045.023a3.047 3.047 0 0 1-2.829 5.396l-.008-.003M301.183 809.419l-5.033-3.028a3.014 3.014 0 1 1 3.107-5.164l.037.022 4.954 2.963.044.026a3.02 3.02 0 0 1-3.102 5.186l-.007-.005M284.609 798.995l-4.854-3.308a2.988 2.988 0 1 1 3.366-4.939l.036.024 4.778 3.24.043.028a2.996 2.996 0 0 1-3.362 4.96l-.007-.005M268.655 787.644l-4.656-3.583a2.964 2.964 0 0 1 3.613-4.697l.035.028 4.583 3.507.041.032a2.97 2.97 0 1 1-3.61 4.717l-.006-.004M253.383 775.385l-4.438-3.851a2.937 2.937 0 0 1 3.85-4.437l.034.029 4.369 3.771.039.035a2.943 2.943 0 0 1 .305 4.153 2.946 2.946 0 0 1-4.153.305l-.006-.005M238.863 762.241l-4.199-4.111a2.912 2.912 0 0 1 4.075-4.161l.032.032 4.133 4.026.039.037a2.919 2.919 0 1 1-4.075 4.183l-.005-.006M225.166 748.238l-3.941-4.37a2.885 2.885 0 1 1 4.286-3.866l.031.035 3.88 4.278.036.04a2.894 2.894 0 1 1-4.287 3.888l-.005-.005M212.364 733.396l-3.648-4.603a2.862 2.862 0 0 1 4.485-3.554l.03.037 3.591 4.508.034.043a2.869 2.869 0 0 1-4.487 3.575l-.005-.006M200.552 717.768l-3.341-4.84a2.837 2.837 0 0 1 4.667-3.222l.028.041 3.288 4.736.033.047a2.843 2.843 0 1 1-4.671 3.243l-.004-.005M189.8 701.379l-3.005-5.056a2.81 2.81 0 1 1 4.831-2.871l.026.044 2.959 4.947.03.05a2.819 2.819 0 0 1-4.837 2.892l-.004-.006M180.197 684.288l-2.644-5.254a2.785 2.785 0 1 1 4.974-2.504l.024.046 2.604 5.142.027.053a2.792 2.792 0 1 1-4.982 2.524l-.003-.007M171.824 666.559l-2.261-5.433a2.759 2.759 0 1 1 5.095-2.12l.02.049 2.229 5.315.023.056a2.766 2.766 0 1 1-5.104 2.139l-.002-.006M164.757 648.272l-1.858-5.588a2.734 2.734 0 0 1 5.189-1.725l.017.052 1.833 5.468.02.057a2.741 2.741 0 1 1-5.199 1.743l-.002-.007M159.055 629.504l-1.438-5.704a2.708 2.708 0 1 1 5.253-1.324l.013.05 1.423 5.586.015.057a2.717 2.717 0 0 1-5.264 1.342l-.002-.007M154.749 610.379l-1.021-5.792a2.682 2.682 0 1 1 5.284-.931l.009.049 1.016 5.675.01.058a2.69 2.69 0 1 1-5.297.948l-.001-.007M151.825 591.001l-.61-5.846a2.659 2.659 0 0 1 5.286-.552l.005.048.615 5.734.005.055a2.666 2.666 0 1 1-5.3.568l-.001-.007M150.261 571.474l-.209-5.872a2.631 2.631 0 1 1 5.261-.187l.002.046.22 5.765.003.054a2.641 2.641 0 0 1-5.277.201v-.007M150.023 551.893l.182-5.871a2.606 2.606 0 1 1 5.211.161l-.001.044-.164 5.77-.001.051a2.614 2.614 0 0 1-5.227-.148v-.007M151.072 532.345l.559-5.845a2.581 2.581 0 0 1 5.14.491l-.004.042-.535 5.749-.005.05a2.59 2.59 0 0 1-5.156-.48l.001-.007M153.365 512.91l.924-5.798a2.556 2.556 0 1 1 5.048.805l-.006.04-.894 5.706-.008.047a2.563 2.563 0 0 1-5.065-.793l.001-.007M156.858 493.659l1.276-5.729a2.531 2.531 0 0 1 4.94 1.1l-.009.039-1.24 5.642-.01.045a2.538 2.538 0 0 1-4.959-1.09l.002-.007M161.509 474.66l1.616-5.641a2.503 2.503 0 0 1 3.097-1.719 2.504 2.504 0 0 1 1.719 3.097l-.01.037-1.576 5.56-.012.043a2.514 2.514 0 0 1-4.835-1.371l.001-.006M167.278 455.974l1.94-5.529a2.48 2.48 0 1 1 4.679 1.642l-.011.035-1.898 5.452-.014.041a2.487 2.487 0 0 1-4.699-1.635l.003-.006M174.119 437.674l2.258-5.413a2.455 2.455 0 0 1 4.531 1.89l-.014.034-2.212 5.34-.016.039a2.462 2.462 0 1 1-4.55-1.884l.003-.006M182.011 419.782l2.568-5.279a2.428 2.428 0 1 1 4.368 2.125l-.015.032-2.518 5.21-.018.038a2.437 2.437 0 0 1-4.388-2.12l.003-.006M190.915 402.373l2.867-5.126a2.403 2.403 0 1 1 4.195 2.347l-.017.031-2.814 5.061-.02.036a2.411 2.411 0 1 1-4.215-2.344l.004-.005M200.801 385.501l3.152-4.946a2.379 2.379 0 0 1 4.011 2.557l-.018.029-3.095 4.884-.022.035a2.385 2.385 0 1 1-4.031-2.554l.003-.005M211.638 369.233l3.438-4.762a2.352 2.352 0 1 1 3.815 2.754l-.021.028-3.377 4.705-.024.033a2.36 2.36 0 0 1-3.835-2.753l.004-.005M223.406 353.614l3.71-4.551a2.326 2.326 0 1 1 3.608 2.941l-.022.028-3.646 4.496-.027.033a2.334 2.334 0 1 1-3.627-2.942l.004-.005M236.08 338.711l3.973-4.319a2.3 2.3 0 1 1 3.388 3.116l-.024.027-3.905 4.268-.028.03a2.309 2.309 0 1 1-3.408-3.118l.004-.004M249.618 324.604l4.224-4.064a2.27 2.27 0 1 1 3.15 3.273l-.02.019-4.151 4.03-.028.027a2.284 2.284 0 1 1-3.182-3.277l.007-.008M263.956 311.335l4.44-3.823a2.226 2.226 0 1 1 2.905 3.373l-.02.017-4.367 3.796-.028.025a2.239 2.239 0 0 1-2.938-3.381l.008-.007M278.996 298.876l4.639-3.576a2.18 2.18 0 1 1 2.663 3.454l-.02.016-4.567 3.555-.028.021a2.194 2.194 0 0 1-2.696-3.463l.009-.007M294.678 287.247l4.821-3.326a2.137 2.137 0 0 1 2.425 3.516l-.019.014-4.75 3.309-.028.019a2.149 2.149 0 1 1-2.457-3.527l.008-.005M310.944 276.457l4.985-3.072a2.09 2.09 0 0 1 2.193 3.56l-.018.012-4.916 3.061-.028.016a2.103 2.103 0 0 1-2.898-.674 2.103 2.103 0 0 1 .674-2.898l.008-.005M327.735 266.515l5.131-2.817a2.046 2.046 0 0 1 1.969 3.585l-.018.01-5.065 2.812-.027.015a2.06 2.06 0 0 1-1.998-3.6l.008-.005M344.996 257.421l5.261-2.562a2 2 0 1 1 1.751 3.596l-.017.009-5.198 2.561-.026.013a2.013 2.013 0 1 1-1.78-3.613l.009-.004M362.671 249.176l5.376-2.309a1.955 1.955 0 1 1 1.543 3.592l-.017.007-5.314 2.312-.026.012a1.969 1.969 0 0 1-1.57-3.611l.008-.003M380.712 241.774l5.476-2.057a1.91 1.91 0 0 1 1.343 3.575l-.016.007-5.417 2.063-.025.01a1.924 1.924 0 0 1-1.369-3.595l.008-.003M399.07 235.21l5.563-1.807a1.865 1.865 0 0 1 1.152 3.547l-.016.005-5.506 1.817-.024.008a1.878 1.878 0 0 1-1.177-3.567l.008-.003M417.701 229.478l5.628-1.556c.969-.268 1.971.3 2.238 1.269a1.818 1.818 0 0 1-1.268 2.238l-.015.004-5.575 1.57-.022.006a1.833 1.833 0 1 1-.994-3.529l.008-.002M436.555 224.574l5.695-1.312a1.774 1.774 0 1 1 .796 3.458l-.014.003-5.644 1.328-.023.005a1.787 1.787 0 1 1-.819-3.481l.009-.001M455.606 220.486l5.751-1.069a1.73 1.73 0 0 1 .632 3.4l-.014.003-5.703 1.087-.021.004a1.743 1.743 0 1 1-.652-3.424l.007-.001M474.816 217.21l5.793-.825a1.684 1.684 0 1 1 .475 3.334l-.013.002-5.747.846-.021.003a1.698 1.698 0 0 1-.495-3.359l.008-.001M494.147 214.744l5.824-.584a1.64 1.64 0 0 1 .326 3.261l-.012.001-5.781.606-.02.003a1.653 1.653 0 0 1-.345-3.287h.008M513.563 213.083l5.833-.342a1.593 1.593 0 0 1 .187 3.182l-.013.001-5.792.366-.02.001a1.608 1.608 0 0 1-.202-3.208h.007M533.02 212.227l5.849-.101a1.548 1.548 0 1 1 .053 3.096h-.012l-5.81.127-.019.001a1.561 1.561 0 1 1-.068-3.123h.007M552.501 212.174l5.844.141a1.504 1.504 0 1 1-.073 3.005h-.011l-5.807-.113h-.019a1.517 1.517 0 0 1 .059-3.033h.007M571.966 212.928l5.83.387a1.458 1.458 0 1 1-.193 2.91l-.014-.001-5.792-.358-.02-.002a1.472 1.472 0 0 1 .182-2.937l.007.001M591.381 214.559l5.807.696a1.413 1.413 0 1 1-.336 2.806l-.019-.003-5.76-.663-.025-.003a1.426 1.426 0 0 1 .326-2.834l.007.001M610.686 217.318l5.752 1.092a1.368 1.368 0 0 1-.51 2.687l-.025-.005-5.695-1.053-.031-.006a1.381 1.381 0 0 1 .503-2.716l.006.001M629.752 221.503l5.644 1.58a1.321 1.321 0 1 1-.712 2.546l-.03-.008-5.579-1.534-.036-.009a1.337 1.337 0 0 1 .708-2.577l.005.002M648.374 227.421l5.449 2.154a1.277 1.277 0 1 1-.939 2.375l-.035-.013-5.378-2.098-.041-.015a1.292 1.292 0 0 1 .938-2.406l.006.003M666.239 235.353l5.154 2.803a1.233 1.233 0 0 1-1.177 2.164l-.037-.02-5.082-2.734-.043-.023a1.246 1.246 0 0 1 1.18-2.193l.005.003M682.946 245.541l4.697 3.534a1.188 1.188 0 0 1-1.427 1.896l-.04-.029-4.625-3.447-.044-.033a1.199 1.199 0 1 1 1.434-1.924l.005.003M697.933 258.133l4.098 4.213a1.143 1.143 0 0 1-1.636 1.592l-.034-.035-4.042-4.117-.038-.039a1.155 1.155 0 1 1 1.648-1.618l.004.004M710.772 272.91l3.359 4.826a1.096 1.096 0 1 1-1.798 1.252l-.03-.042-3.349-4.764a1.11 1.11 0 1 1 1.816-1.276l.002.004M720.939 289.647l2.433 5.37a1.05 1.05 0 1 1-1.914.867l-.024-.052-2.406-5.246-.026-.056a1.065 1.065 0 0 1 1.935-.887l.002.004M727.747 308.03l1.271 5.752a1.004 1.004 0 1 1-1.963.433l-.014-.06-1.268-5.615-.015-.065a1.02 1.02 0 0 1 1.988-.45l.001.005M730.443 327.446l.021 1.955a.97.97 0 1 1-1.94.021l-.001-.019-.028-1.909v-.023a.975.975 0 0 1 1.948-.029v.004"/>
    </g>
</svg>