<svg width="16" height="16" viewBox="0 0 16 16" fill="none" xmlns="http://www.w3.org/2000/svg">
    <path fill-rule="evenodd" clip-rule="evenodd" d="M8.25596 0.460715L9.46529 1.06538C10.1665 1.41587 10.5287 2.20767 10.3353 2.96738L9.73329 5.33338H14C14.7363 5.33338 15.3333 5.93034 15.3333 6.66672V8.06938C15.3335 8.24362 15.2995 8.41621 15.2333 8.57738L13.17 13.5874C13.067 13.8372 12.8235 14 12.5533 14H1.33329C0.965103 14 0.666626 13.7016 0.666626 13.3334V6.66672C0.666626 6.29853 0.965103 6.00005 1.33329 6.00005H3.65463C3.87121 6.0001 4.07432 5.89494 4.19929 5.71805L7.83463 0.566715C7.92959 0.432137 8.10861 0.387098 8.25596 0.460715ZM8.42863 2.03872L5.28863 6.48672C5.12196 6.72272 4.90863 6.91605 4.66663 7.05872V12.6667H12.1066L14 8.06938V6.66672H9.73329C9.32179 6.66666 8.93337 6.47659 8.68081 6.15171C8.42825 5.82682 8.33986 5.40352 8.44129 5.00472L9.04329 2.63938C9.08211 2.48736 9.00966 2.32884 8.86929 2.25872L8.42863 2.03872Z" fill="#F5F5FE"/>
</svg>
