<svg width="16" height="14" viewBox="0 0 16 14" fill="none" xmlns="http://www.w3.org/2000/svg">
    <path fill-rule="evenodd" clip-rule="evenodd" d="M14.6667 0C15.0349 0 15.3334 0.298477 15.3334 0.666667V7.33333C15.3334 7.70152 15.0349 8 14.6667 8H12.3454C12.1288 7.99994 11.9257 8.10511 11.8007 8.282L8.16542 13.4327C8.07045 13.5672 7.89143 13.6123 7.74408 13.5387L6.53475 12.9333C5.83352 12.5828 5.47134 11.791 5.66475 11.0313L6.26675 8.66667H2.00008C1.2637 8.66667 0.666749 8.06971 0.666749 7.33333V5.93067C0.66657 5.75643 0.700543 5.58384 0.766749 5.42267L2.83075 0.413333C2.93339 0.163488 3.17664 0.000266513 3.44675 0H14.6667ZM11.3334 1.33333H3.89342L2.00008 5.93067V7.33333H6.26675C6.67825 7.33339 7.06668 7.52346 7.31923 7.84834C7.57179 8.17323 7.66019 8.59653 7.55875 8.99533L6.95675 11.3607C6.91793 11.5127 6.99039 11.6712 7.13075 11.7413L7.57142 11.9613L10.7114 7.51333C10.8781 7.27733 11.0914 7.084 11.3334 6.94133V1.33333Z" fill="white"/>
</svg>
