<svg width="46" height="54" viewBox="0 0 46 54" fill="none" xmlns="http://www.w3.org/2000/svg">
<path d="M37.0003 51.5629H13.6667C12.7827 51.5629 11.9348 51.2117 11.3097 50.5866C10.6846 49.9615 10.3334 49.1136 10.3334 48.2296V18.2293H40.3336V48.2296C40.3336 49.1136 39.9825 49.9615 39.3573 50.5866C38.7322 51.2117 37.8843 51.5629 37.0003 51.5629Z" stroke="#000091" stroke-width="3.125" stroke-linecap="round" stroke-linejoin="round"/>
<path d="M20.3335 41.5628V28.2294" stroke="#000091" stroke-width="3.125" stroke-linecap="round" stroke-linejoin="round"/>
<path d="M30.3336 41.5628V28.2294" stroke="#000091" stroke-width="3.125" stroke-linecap="round" stroke-linejoin="round"/>
<path d="M2 13.7004L44.387 4.69141" stroke="#000091" stroke-width="3.125" stroke-linecap="round" stroke-linejoin="round"/>
<path d="M26.698 1.63578L16.9202 3.71357C16.491 3.80413 16.0839 3.97851 15.7222 4.2267C15.3606 4.47489 15.0515 4.79202 14.8126 5.15991C14.5738 5.52779 14.4099 5.9392 14.3303 6.37056C14.2508 6.80191 14.2571 7.24472 14.349 7.67361L15.0513 10.9292L31.3536 7.4625L30.6514 4.20247C30.4674 3.33791 29.9476 2.58183 29.2062 2.1005C28.4648 1.61917 27.5626 1.45201 26.698 1.63578Z" stroke="#000091" stroke-width="3.125" stroke-linecap="round" stroke-linejoin="round"/>
</svg>
