<svg width="18" height="21" viewBox="0 0 18 21" fill="none" xmlns="http://www.w3.org/2000/svg">    <path d="M14.618 4.968L16.071 3.515L17.485 4.929L16.032 6.382C17.4678 8.17917 18.1609 10.4579 17.9691 12.7501C17.7772 15.0424 16.715 17.1742 15.0005 18.7077C13.286 20.2412 11.0494 21.0601 8.74998 20.9961C6.4506 20.9321 4.26301 19.9901 2.63647 18.3635C1.00993 16.737 0.0679267 14.5494 0.00391608 12.25C-0.0600946 9.95063 0.758749 7.71402 2.29228 5.99951C3.82581 4.285 5.95761 3.22275 8.24987 3.03092C10.5421 2.83909 12.8208 3.53223 14.618 4.968V4.968ZM9 19C9.91925 19 10.8295 18.8189 11.6788 18.4672C12.5281 18.1154 13.2997 17.5998 13.9497 16.9497C14.5998 16.2997 15.1154 15.5281 15.4672 14.6788C15.8189 13.8295 16 12.9193 16 12C16 11.0807 15.8189 10.1705 15.4672 9.32122C15.1154 8.47194 14.5998 7.70026 13.9497 7.05025C13.2997 6.40024 12.5281 5.88463 11.6788 5.53284C10.8295 5.18106 9.91925 5 9 5C7.14348 5 5.36301 5.7375 4.05025 7.05025C2.7375 8.36301 2 10.1435 2 12C2 13.8565 2.7375 15.637 4.05025 16.9497C5.36301 18.2625 7.14348 19 9 19V19ZM8 7H10V13H8V7ZM5 0H13V2H5V0Z" fill="#000091"/></svg>