<svg version="1.1" id="Calque_1" xmlns="http://www.w3.org/2000/svg" x="0px" y="0px"
     width="113.39px" height="113.39px" viewBox="0 0 113.39 113.39" enable-background="new 0 0 113.39 113.39"
     xml:space="preserve">
<path fill="#FFFFFF" d="M56.952,8.339c26.992,0,48.869,21.879,48.869,48.869c0,26.992-21.877,48.869-48.869,48.869
	c-8.027,0.01-15.93-1.961-23.012-5.746l-25.855,5.746l5.744-25.857c-3.783-7.08-5.756-14.984-5.744-23.011
	C8.085,30.219,29.962,8.339,56.952,8.339z M56.952,18.114c-21.59,0-39.094,17.502-39.094,39.095c0,6.519,1.588,12.794,4.59,18.402
	l1.709,3.193l-3.203,14.397l14.404-3.197l3.193,1.708c5.658,3.026,11.982,4.602,18.4,4.592c21.59,0,39.096-17.506,39.096-39.095
	C96.048,35.616,78.542,18.114,56.952,18.114z"/>
</svg>
