<svg version="1.1" id="Calque_1" xmlns="http://www.w3.org/2000/svg" x="0px" y="0px"
     width="113.39px" height="113.39px" viewBox="0 0 113.39 113.39" enable-background="new 0 0 113.39 113.39"
     xml:space="preserve">
<path fill="#FFFFFF" d="M90.729,7.619c2.699,0,4.893,2.188,4.893,4.893v18.377l-9.783,9.785V17.402H17.347v78.273h68.491V82.184
	l9.783-9.783v28.168c0,2.703-2.193,4.891-4.893,4.891H12.457c-2.699,0-4.893-2.188-4.893-4.891V12.512
	c0-2.705,2.193-4.893,4.893-4.893H90.729z M99.424,40.928l6.918,6.916L68.295,85.891l-6.928-0.008l0.01-6.908L99.424,40.928z
	 M56.484,56.539v9.785H32.025v-9.785H56.484z M71.162,36.971v9.785H32.025v-9.785H71.162z"/>
</svg>
