<svg version="1.1" id="Calque_1" xmlns="http://www.w3.org/2000/svg" x="0px" y="0px"
	 width="113.39px" height="113.39px" viewBox="0 0 113.39 113.39" enable-background="new 0 0 113.39 113.39" xml:space="preserve">
<g>
	<path fill="#FFFFFF" d="M112.595,61.826c0.008,7.223-1.766,14.332-5.17,20.705l5.17,23.264l-23.262-5.172
		c-6.373,3.408-13.482,5.18-20.707,5.172c-24.283,0-43.969-19.682-43.969-43.969c0-24.283,19.686-43.967,43.969-43.967
		C92.911,17.859,112.595,37.543,112.595,61.826z M33.454,61.826c0,19.426,15.748,35.176,35.172,35.176
		c5.775,0.006,11.465-1.408,16.559-4.131l2.871-1.539l12.959,2.877l-2.881-12.953l1.537-2.873
		c2.701-5.045,4.131-10.691,4.131-16.557c0-19.426-15.752-35.176-35.176-35.176S33.454,42.4,33.454,61.826z"/>
	<path fill="#FFFFFF" d="M24.151,90.814c-1.664-2.543-3.117-5.23-4.33-8.047l-6.928,1.537l2.879-12.953l-1.535-2.873
		c-2.701-5.045-4.131-10.691-4.131-16.557c0-17.617,12.949-32.205,29.85-34.773c5.395-3.475,11.447-6.012,17.941-7.35
		c-3.998-1.195-8.23-1.846-12.617-1.846c-24.283,0-43.969,19.684-43.969,43.969c-0.008,7.223,1.766,14.332,5.172,20.705
		L1.312,95.889L24.151,90.814z"/>
</g>
</svg>
